<svg xmlns="http://www.w3.org/2000/svg" viewBox="4647 8549 46 88.993">
  <defs>
    <style>
      .cls-1 {
        fill: none;
      }

      .cls-2 {
        fill: #5a7814;
      }

      .cls-3, .cls-5 {
        fill: #303030;
      }

      .cls-4, .cls-5 {
        stroke: none;
      }
    </style>
  </defs>
  <g id="Group_31" data-name="Group 31" transform="translate(4091 6535)">
    <g id="Group_30" data-name="Group 30" transform="translate(764 -7218.121)">
      <g id="Union_18" data-name="Union 18" class="cls-1" transform="translate(-208 9232.121)">
        <path class="cls-4" d="M0,71.635A17.355,17.355,0,0,1,8.8,56.528V8.557a8.557,8.557,0,1,1,17.114,0V56.527A17.36,17.36,0,1,1,0,71.635Z"/>
        <path class="cls-5" d="M 17.35830116271973 85.99291229248047 C 21.19357299804688 85.99291229248047 24.79927253723145 84.49939727783203 27.51118659973145 81.78749847412109 C 30.22308731079102 79.07558441162109 31.71660041809082 75.46987915039063 31.71660041809082 71.63461303710938 C 31.71660041809082 69.0308837890625 31.01550102233887 66.47930908203125 29.68910026550293 64.25575256347656 C 28.40732955932617 62.10699462890625 26.59762954711914 60.34057998657227 24.45565795898438 59.14748001098633 L 22.91550064086914 58.28959655761719 L 22.91550064086914 56.5266227722168 L 22.91550064086914 8.557209014892578 C 22.91550064086914 5.492952346801758 20.42255783081055 2.999995231628418 17.35830116271973 2.999995231628418 C 14.29404449462891 2.999995231628418 11.801100730896 5.492952346801758 11.801100730896 8.557209014892578 L 11.801100730896 56.5279541015625 L 11.801100730896 58.2744255065918 L 10.28235816955566 59.13675308227539 C 8.109844207763672 60.37029647827148 6.286015510559082 62.15776824951172 5.008072376251221 64.30592346191406 C 3.694372653961182 66.51413726806641 3.000001192092896 69.04837036132813 3.000001192092896 71.63461303710938 C 3.000001192092896 75.46987915039063 4.493515491485596 79.07558441162109 7.20541524887085 81.78749847412109 C 9.917329788208008 84.49939727783203 13.52302932739258 85.99291229248047 17.35830116271973 85.99291229248047 M 17.35830116271973 88.99291229248047 C 7.771501064300537 88.99291229248047 1.162719740932516e-06 81.22141265869141 1.162719740932516e-06 71.63461303710938 C 1.162719740932516e-06 65.15953826904297 3.545801162719727 59.51186752319336 8.801100730895996 56.5279541015625 L 8.801100730895996 8.557209014892578 C 8.801100730895996 3.831295251846313 12.63240146636963 -4.811314283870161e-06 17.35830116271973 -4.811314283870161e-06 C 22.08420181274414 -4.811314283870161e-06 25.91550064086914 3.831295251846313 25.91550064086914 8.557209014892578 L 25.91550064086914 56.5266227722168 C 31.11411476135254 59.42230987548828 34.71660232543945 65.10758209228516 34.71660232543945 71.63461303710938 C 34.71660232543945 81.22141265869141 26.94510078430176 88.99291229248047 17.35830116271973 88.99291229248047 Z"/>
      </g>
      <path id="Union_19" data-name="Union 19" class="cls-2" d="M0,37.843A11.663,11.663,0,0,1,8.357,26.659V3.3a3.3,3.3,0,1,1,6.6,0V26.663a12.125,12.125,0,0,1,2.364.989A11.659,11.659,0,1,1,0,37.843Z" transform="translate(-202.132 9265.86)"/>
    </g>
    <rect id="Rectangle_495" data-name="Rectangle 495" class="cls-3" width="15" height="4" rx="2" transform="translate(587 2023)"/>
    <rect id="Rectangle_496" data-name="Rectangle 496" class="cls-3" width="15" height="4" rx="2" transform="translate(587 2037)"/>
    <rect id="Rectangle_497" data-name="Rectangle 497" class="cls-3" width="15" height="4" rx="2" transform="translate(587 2051)"/>
    <rect id="Rectangle_498" data-name="Rectangle 498" class="cls-3" width="8.589" height="4" rx="2" transform="translate(587 2030)"/>
    <rect id="Rectangle_499" data-name="Rectangle 499" class="cls-3" width="8.589" height="4" rx="2" transform="translate(587 2044)"/>
  </g>
</svg>
