<svg xmlns="http://www.w3.org/2000/svg" viewBox="3423 8544 79.074 94.049">
  <defs>
    <style>
      .cls-1 {
        fill: #5a7814;
      }
    </style>
  </defs>
  <g id="Group_26" data-name="Group 26" transform="translate(2895.665 6535.217)">
    <path id="Path_306" data-name="Path 306" class="cls-1" d="M-167.547,8800.137c12.957,19.586,3.48,37.169-12.875,36.686s-35.673-16.569-23.317-39.379c10.753-18.358,18.747-26.3,23.317-34.407.714-1.593,1.813-2.114,2.609,0C-175.535,8769.765-181.247,8779.8-167.547,8800.137Z" transform="translate(735 -6734)"/>
    <path id="Path_307" data-name="Path 307" class="cls-1" d="M-206.317,8786.145c-7.538,11.846-2.215,22.331,8.2,22.023s24.2-8.479,14.843-23.737c-6.845-11.687-11.933-16.743-14.843-21.9-.454-1.015-1.154-1.348-1.661,0C-201.233,8766.812-197.6,8773.2-206.317,8786.145Z" transform="matrix(0.891, -0.454, 0.454, 0.891, -3231.884, -5879.691)"/>
  </g>
</svg>
