<svg xmlns="http://www.w3.org/2000/svg" viewBox="2580 8549 89.403 89.403">
  <defs>
    <style>
      .cls-1 {
        fill: #303030;
      }

      .cls-2 {
        fill: #5a7814;
      }
    </style>
  </defs>
  <g id="Group_20" data-name="Group 20" transform="translate(2066 6535)">
    <path id="Path_314" data-name="Path 314" class="cls-1" d="M9.69,2.082C16.7-2.44,22.1,1.085,22.1,6.16S14.488,17.954,9.69,14.171,0,12.048,0,6.973,2.676,6.6,9.69,2.082Z" transform="matrix(0.391, 0.921, -0.921, 0.391, 542.723, 2051.687)"/>
    <path id="Path_315" data-name="Path 315" class="cls-1" d="M3.375,1.573C8.673-1.843,12.75.82,12.75,4.653S7,13.563,3.375,10.705-1.923,4.989,3.375,1.573Z" transform="translate(568.646 2064.582) rotate(11)"/>
    <path id="Path_334" data-name="Path 334" class="cls-1" d="M9.69,2.082C16.7-2.44,22.1,1.085,22.1,6.16S14.488,17.954,9.69,14.171,0,12.048,0,6.973,2.676,6.6,9.69,2.082Z" transform="translate(574.564 2056.798) rotate(-140)"/>
    <g id="Group_19" data-name="Group 19" transform="translate(371)">
      <path id="Subtraction_2" data-name="Subtraction 2" class="cls-2" d="M44.7,89.4a45.031,45.031,0,0,1-9.009-.908,44.457,44.457,0,0,1-15.984-6.726A44.832,44.832,0,0,1,3.513,62.1a44.477,44.477,0,0,1-2.6-8.391,45.137,45.137,0,0,1,0-18.018A44.457,44.457,0,0,1,7.634,19.709,44.832,44.832,0,0,1,27.3,3.513a44.477,44.477,0,0,1,8.391-2.6,45.137,45.137,0,0,1,18.018,0A44.457,44.457,0,0,1,69.695,7.634,44.832,44.832,0,0,1,85.89,27.3a44.477,44.477,0,0,1,2.6,8.391,45.137,45.137,0,0,1,0,18.018,44.457,44.457,0,0,1-6.726,15.984A44.832,44.832,0,0,1,62.1,85.89a44.477,44.477,0,0,1-8.391,2.6A45.031,45.031,0,0,1,44.7,89.4Zm.078-79.625a35,35,0,1,0,35,35A35.04,35.04,0,0,0,44.779,9.778Z" transform="translate(143 2014)"/>
      <rect id="Rectangle_490" data-name="Rectangle 490" class="cls-2" width="10.089" height="76.365" transform="translate(210.085 2028.946) rotate(43)"/>
    </g>
    <path id="Path_335" data-name="Path 335" class="cls-1" d="M1.945.906C5-1.062,7.347.472,7.347,2.681s-3.314,5.134-5.4,3.487S-1.108,2.875,1.945.906Z" transform="translate(552.646 2077.582) rotate(11)"/>
    <path id="Path_336" data-name="Path 336" class="cls-1" d="M3,1.4c4.7-3.032,8.322-.669,8.322,2.734S6.214,12.039,3,9.5-1.707,4.428,3,1.4Z" transform="translate(542.332 2036.054) rotate(11)"/>
  </g>
</svg>
