<svg xmlns="http://www.w3.org/2000/svg" viewBox="1169 7523.474 251.014 96.552">
  <defs>
    <style>
      .cls-1 {
        fill: #7dbb5d;
      }

      .cls-2 {
        fill: #5d9b43;
      }
    </style>
  </defs>
  <g id="КОНООПА_лого_1-05" data-name="КОНООПА лого 1-05" transform="translate(1118.4 7406.374)">
    <path id="XMLID_754_" class="cls-1" d="M124.817,152.65a10.489,10.489,0,0,1-5.973,1.27,8.269,8.269,0,0,0,5.685-6.089,9.462,9.462,0,0,1-4.011.433,15.187,15.187,0,0,0,5.8-5.973,9.681,9.681,0,0,1-4.617,1.068,18.5,18.5,0,0,0,4.04-8.051,4.814,4.814,0,0,1-4.415,2.106,41.727,41.727,0,0,0,2.482-8.31c-1.068.606-2.106,1.039-3.174,1.645a8.323,8.323,0,0,0,2.914-7.647,5.919,5.919,0,0,1-1.9,2.4,8.239,8.239,0,0,0-3.665-8.4,6.678,6.678,0,0,1,1.443,5.4,20.819,20.819,0,0,1-1.472,5.6,3.614,3.614,0,0,1-1.616-2.6,5.233,5.233,0,0,0-1.068,4.155,12.408,12.408,0,0,1-.029,4.5,2.366,2.366,0,0,0-1.616-2.28,11.856,11.856,0,0,0-2.02,9.811c-.808-.837-1.789-1.558-2.6-2.4-1.414,1.443-1.731,3.607-1.962,5.6-.115,1.01-.4,2.193-.519,3.2a4.026,4.026,0,0,1-.923-3.78,6.725,6.725,0,0,0-2.712,2.453,17.764,17.764,0,0,0-1.645,3.318c-.462,1.1-1.183,1.991-1.645,3.088-.548-1.068-1.1-2.135-1.616-3.2-3.751,1.731-6.954,5.973-6.752,10.128a16.845,16.845,0,0,1-1.587-4.963,13.445,13.445,0,0,0-6.493,10.5c-.519-1.472-1.039-2.914-1.558-4.386A14.148,14.148,0,0,0,73.8,172.474a10.889,10.889,0,0,1-3.636-4.444,12.3,12.3,0,0,0-3.463,6.55,73.949,73.949,0,0,0-1.1,7.82c-1.27-2.222-2.337-4.213-4.386-5.8a15.21,15.21,0,0,0-3.232,14.774,11.267,11.267,0,0,1-3.492-2.886c-1.472,4.126.029,9.667.144,14.053-1.183.491-1.472.808-4.04.346.635,3.03,2.482,4.213,5.281,5.6,4.992-5.887,10.128-11.744,15.149-17.631a59.159,59.159,0,0,1,8.282-7.589A108.729,108.729,0,0,1,91.2,175.389c4.126-2.482,8.108-5.685,9.984-10.128-.231,6.291-5.367,10.705-10.215,14.745s-9.494,8.166-14.255,12.293c-5.627,4.877-9.84,11.167-14,17.342-.779,1.154-1.472,2.337-2.251,3.492l-.087.346a37.514,37.514,0,0,0,16.91-2.251,11.914,11.914,0,0,0,3.492-1.847c1.01-.837,1.645-1.385,1.76-2.712-1.731-.289-3.116-.231-4.848-.519,4.04-.519,8.022-3.29,11.283-5.742a10.48,10.48,0,0,1-4.646-.895,14.339,14.339,0,0,0,9.984-4.906c-1.7-.26-4.328-.289-6.031-.548a30.189,30.189,0,0,0,10.994-2.366,11.2,11.2,0,0,1-6.233-1.616,14.516,14.516,0,0,0,13.014-4.934c-1.645-.808-3.174-1.125-4.819-1.933a18.955,18.955,0,0,0,10.706-2.626,10.091,10.091,0,0,1-5.454-2.02,17.692,17.692,0,0,0,10.965-5.338,24.648,24.648,0,0,1-6.983-.491,10.653,10.653,0,0,0,7.531-3.059,21.249,21.249,0,0,0,3.549-5.569c-1.7.664-3.751,1.472-5.771.837,3.52-.058,7.272-3.145,8.714-6.348-1.876.2-3.982.664-5.829.866A9.754,9.754,0,0,0,124.817,152.65Z" transform="translate(0 0)"/>
    <path id="XMLID_753_" class="cls-2" d="M85.637,134.3h0A12.438,12.438,0,0,0,73.2,146.737v42.851l24.845-21.613V146.737A12.4,12.4,0,0,0,85.637,134.3Z" transform="translate(-16.079 -12.237)"/>
    <path id="XMLID_752_" class="cls-2" d="M207.251,355.8,186.1,372.306l1.789,5.887a3.956,3.956,0,0,0,3.78,2.8h20.4a3.963,3.963,0,0,0,3.636-5.512Z" transform="translate(-96.4 -169.821)"/>
    <g id="XMLID_207_" transform="translate(123.461 181.073)">
      <path id="XMLID_749_" class="cls-2" d="M303.1,353.863a15.063,15.063,0,1,1,15.063,15.063A15.055,15.055,0,0,1,303.1,353.863Zm23.921,0a8.888,8.888,0,1,0-8.888,8.888A8.855,8.855,0,0,0,327.022,353.863Z" transform="translate(-303.1 -338.8)"/>
      <path id="XMLID_747_" class="cls-2" d="M423.716,340.1h3a1.582,1.582,0,0,1,1.587,1.587v8.455a1.582,1.582,0,0,0,1.587,1.587h5.6a1.582,1.582,0,0,0,1.587-1.587v-8.455a1.582,1.582,0,0,1,1.587-1.587h3a1.582,1.582,0,0,1,1.587,1.587v26.23a1.582,1.582,0,0,1-1.587,1.587h-3a1.582,1.582,0,0,1-1.587-1.587v-8.455a1.582,1.582,0,0,0-1.587-1.587h-5.627a1.582,1.582,0,0,0-1.587,1.587v8.455a1.582,1.582,0,0,1-1.587,1.587h-3a1.582,1.582,0,0,1-1.587-1.587v-26.23A1.626,1.626,0,0,1,423.716,340.1Z" transform="translate(-387.762 -339.725)"/>
      <path id="XMLID_744_" class="cls-2" d="M510.1,353.863a15.063,15.063,0,1,1,15.063,15.063A15.055,15.055,0,0,1,510.1,353.863Zm23.922,0a8.888,8.888,0,1,0-8.888,8.888A8.855,8.855,0,0,0,534.021,353.863Z" transform="translate(-450.368 -338.8)"/>
      <path id="XMLID_741_" class="cls-2" d="M625.9,353.863a15.063,15.063,0,1,1,15.063,15.063A15.055,15.055,0,0,1,625.9,353.863Zm23.95,0a8.888,8.888,0,1,0-8.888,8.888A8.855,8.855,0,0,0,649.85,353.863Z" transform="translate(-532.753 -338.8)"/>
      <path id="XMLID_739_" class="cls-2" d="M746.8,340.1h17.342a1.872,1.872,0,0,1,1.876,1.876v25.653a1.872,1.872,0,0,1-1.876,1.876h-2.424a1.872,1.872,0,0,1-1.876-1.876V348.151a1.872,1.872,0,0,0-1.876-1.876h-5.021a1.872,1.872,0,0,0-1.876,1.876v19.478A1.872,1.872,0,0,1,749.2,369.5h-2.424a1.872,1.872,0,0,1-1.876-1.876V341.976A1.916,1.916,0,0,1,746.8,340.1Z" transform="translate(-617.415 -339.725)"/>
      <path id="XMLID_727_" class="cls-2" d="M847.093,371.28h-8.714a1.259,1.259,0,0,0-1.154.779l-1.01,2.453a1.29,1.29,0,0,1-1.154.779h-4.184a1.268,1.268,0,0,1-1.154-1.789l10.994-23.95a2.213,2.213,0,0,1,4.011,0l10.994,23.95a1.268,1.268,0,0,1-1.154,1.789h-4.155a1.259,1.259,0,0,1-1.154-.779l-1.01-2.453A1.29,1.29,0,0,0,847.093,371.28Zm-1.933-6.55-1.674-4.04a.814.814,0,0,0-1.5,0l-1.674,4.04a.808.808,0,0,0,.75,1.125h3.376A.8.8,0,0,0,845.16,364.73Z" transform="translate(-677.681 -345.541)"/>
    </g>
    <path id="XMLID_753_2" data-name="XMLID_753_" class="cls-2" d="M85.637,134.3h0A12.438,12.438,0,0,0,73.2,146.737v42.851l24.845-21.613V146.737A12.4,12.4,0,0,0,85.637,134.3Z" transform="translate(-16.079 -12.237)"/>
  </g>
</svg>
