<svg xmlns="http://www.w3.org/2000/svg" viewBox="603 10117 221.759 85.3">
  <defs>
    <style>
      .cls-1 {
        fill: #e7eedf;
      }
    </style>
  </defs>
  <g id="КОНООПА_лого_1-05" data-name="КОНООПА лого 1-05" transform="translate(552.4 9999.9)">
    <path id="XMLID_754_" class="cls-1" d="M116.167,148.507a9.267,9.267,0,0,1-5.277,1.122,7.305,7.305,0,0,0,5.022-5.379,8.36,8.36,0,0,1-3.543.382,13.417,13.417,0,0,0,5.124-5.277,8.553,8.553,0,0,1-4.079.943,16.346,16.346,0,0,0,3.569-7.112,4.253,4.253,0,0,1-3.9,1.861,36.865,36.865,0,0,0,2.192-7.342c-.943.535-1.861.918-2.8,1.453a7.353,7.353,0,0,0,2.575-6.756,5.23,5.23,0,0,1-1.683,2.116,7.278,7.278,0,0,0-3.238-7.418,5.9,5.9,0,0,1,1.275,4.767,18.393,18.393,0,0,1-1.3,4.946,3.193,3.193,0,0,1-1.428-2.294,4.623,4.623,0,0,0-.943,3.671,10.962,10.962,0,0,1-.025,3.977,2.09,2.09,0,0,0-1.428-2.014,10.474,10.474,0,0,0-1.784,8.668c-.714-.739-1.581-1.377-2.294-2.116-1.249,1.275-1.53,3.187-1.734,4.946-.1.892-.357,1.937-.459,2.83a3.557,3.557,0,0,1-.816-3.34,5.941,5.941,0,0,0-2.4,2.167,15.7,15.7,0,0,0-1.453,2.932c-.408.969-1.045,1.759-1.453,2.728-.484-.943-.969-1.886-1.428-2.83-3.314,1.53-6.144,5.277-5.965,8.948a14.882,14.882,0,0,1-1.4-4.385,11.878,11.878,0,0,0-5.736,9.279c-.459-1.3-.918-2.575-1.377-3.875a12.5,12.5,0,0,0-6.883,9.917,9.62,9.62,0,0,1-3.212-3.926,10.869,10.869,0,0,0-3.059,5.787,65.329,65.329,0,0,0-.969,6.909,15.671,15.671,0,0,0-3.875-5.124,13.438,13.438,0,0,0-2.855,13.052,9.954,9.954,0,0,1-3.085-2.549c-1.3,3.645.025,8.54.127,12.415-1.045.433-1.3.714-3.569.306.561,2.677,2.192,3.722,4.665,4.946,4.41-5.2,8.948-10.376,13.384-15.576a52.264,52.264,0,0,1,7.316-6.7,96.053,96.053,0,0,1,10.5-6.96c3.645-2.192,7.163-5.022,8.82-8.948-.2,5.557-4.742,9.458-9.024,13.027s-8.387,7.214-12.593,10.86c-4.971,4.308-8.693,9.866-12.364,15.321-.688,1.02-1.3,2.065-1.988,3.085l-.076.306a33.142,33.142,0,0,0,14.939-1.988,10.526,10.526,0,0,0,3.085-1.632,3.194,3.194,0,0,0,1.555-2.4c-1.53-.255-2.753-.2-4.283-.459,3.569-.459,7.087-2.906,9.968-5.073a9.258,9.258,0,0,1-4.1-.79,12.668,12.668,0,0,0,8.82-4.334c-1.5-.229-3.824-.255-5.328-.484A26.671,26.671,0,0,0,93.606,183a9.9,9.9,0,0,1-5.506-1.428,12.824,12.824,0,0,0,11.5-4.359c-1.453-.714-2.8-.994-4.257-1.708a16.746,16.746,0,0,0,9.458-2.32,8.915,8.915,0,0,1-4.818-1.784,15.63,15.63,0,0,0,9.687-4.716,21.775,21.775,0,0,1-6.169-.433,9.412,9.412,0,0,0,6.654-2.7,18.774,18.774,0,0,0,3.136-4.92c-1.5.586-3.314,1.3-5.1.739,3.11-.051,6.424-2.779,7.7-5.608-1.657.178-3.518.586-5.15.765A8.617,8.617,0,0,0,116.167,148.507Z"/>
    <path id="XMLID_753_" class="cls-1" d="M84.187,134.3h0A10.989,10.989,0,0,0,73.2,145.287v37.857L95.149,164.05V145.287A10.951,10.951,0,0,0,84.187,134.3Z" transform="translate(-16.839 -12.815)"/>
    <path id="XMLID_752_" class="cls-1" d="M204.786,355.8,186.1,370.382l1.581,5.2a3.5,3.5,0,0,0,3.34,2.473h18.023a3.5,3.5,0,0,0,3.212-4.869Z" transform="translate(-100.957 -177.849)"/>
    <g id="XMLID_207_" transform="translate(114.969 173.617)">
      <path id="XMLID_749_" class="cls-1" d="M303.1,352.107a13.307,13.307,0,1,1,13.307,13.307A13.3,13.3,0,0,1,303.1,352.107Zm21.134,0a7.852,7.852,0,1,0-7.852,7.852A7.823,7.823,0,0,0,324.234,352.107Z" transform="translate(-303.1 -338.8)"/>
      <path id="XMLID_747_" class="cls-1" d="M423.528,340.1h2.651a1.4,1.4,0,0,1,1.4,1.4v7.469a1.4,1.4,0,0,0,1.4,1.4h4.946a1.4,1.4,0,0,0,1.4-1.4V341.5a1.4,1.4,0,0,1,1.4-1.4h2.651a1.4,1.4,0,0,1,1.4,1.4v23.173a1.4,1.4,0,0,1-1.4,1.4h-2.651a1.4,1.4,0,0,1-1.4-1.4v-7.469a1.4,1.4,0,0,0-1.4-1.4h-4.971a1.4,1.4,0,0,0-1.4,1.4v7.469a1.4,1.4,0,0,1-1.4,1.4H423.5a1.4,1.4,0,0,1-1.4-1.4V341.5A1.436,1.436,0,0,1,423.528,340.1Z" transform="translate(-391.764 -339.769)"/>
      <path id="XMLID_744_" class="cls-1" d="M510.1,352.107a13.307,13.307,0,1,1,13.307,13.307A13.3,13.3,0,0,1,510.1,352.107Zm21.134,0a7.852,7.852,0,1,0-7.852,7.852A7.823,7.823,0,0,0,531.234,352.107Z" transform="translate(-457.33 -338.8)"/>
      <path id="XMLID_741_" class="cls-1" d="M625.9,352.107a13.307,13.307,0,1,1,13.307,13.307A13.3,13.3,0,0,1,625.9,352.107Zm21.159,0a7.852,7.852,0,1,0-7.852,7.852A7.823,7.823,0,0,0,647.059,352.107Z" transform="translate(-543.609 -338.8)"/>
      <path id="XMLID_739_" class="cls-1" d="M746.582,340.1H761.9a1.654,1.654,0,0,1,1.657,1.657V364.42a1.654,1.654,0,0,1-1.657,1.657h-2.141a1.654,1.654,0,0,1-1.657-1.657V347.212a1.654,1.654,0,0,0-1.657-1.657h-4.436a1.654,1.654,0,0,0-1.657,1.657V364.42a1.654,1.654,0,0,1-1.657,1.657h-2.141a1.654,1.654,0,0,1-1.657-1.657V341.757A1.692,1.692,0,0,1,746.582,340.1Z" transform="translate(-632.273 -339.769)"/>
      <path id="XMLID_727_" class="cls-1" d="M845.056,368.6h-7.7a1.112,1.112,0,0,0-1.02.688l-.892,2.167a1.14,1.14,0,0,1-1.02.688h-3.7a1.12,1.12,0,0,1-1.02-1.581l9.713-21.159a1.955,1.955,0,0,1,3.544,0l9.713,21.159a1.12,1.12,0,0,1-1.02,1.581h-3.671a1.112,1.112,0,0,1-1.02-.688l-.892-2.167A1.14,1.14,0,0,0,845.056,368.6Zm-1.708-5.787-1.479-3.569a.719.719,0,0,0-1.326,0l-1.479,3.569a.713.713,0,0,0,.663.994h2.983A.707.707,0,0,0,843.348,362.812Z" transform="translate(-695.388 -345.86)"/>
    </g>
    <path id="XMLID_753_2" data-name="XMLID_753_" class="cls-1" d="M84.187,134.3h0A10.989,10.989,0,0,0,73.2,145.287v37.857L95.149,164.05V145.287A10.951,10.951,0,0,0,84.187,134.3Z" transform="translate(-16.839 -12.815)"/>
  </g>
</svg>
