<svg xmlns="http://www.w3.org/2000/svg" viewBox="5411 10148 53 53">
  <defs>
    <style>
      .cls-1 {
        fill: #e7eedf;
      }
    </style>
  </defs>
  <path id="Path_347" data-name="Path 347" class="cls-1" d="M15.384,0A15.415,15.415,0,0,0,0,15.384V37.616A15.415,15.415,0,0,0,15.384,53H37.616A15.415,15.415,0,0,0,53,37.616V15.384A15.415,15.415,0,0,0,37.616,0Zm0,4.077H37.616A11.274,11.274,0,0,1,48.923,15.384V37.616A11.274,11.274,0,0,1,37.616,48.923H15.384A11.274,11.274,0,0,1,4.077,37.616V15.384A11.274,11.274,0,0,1,15.384,4.077Zm26.4,4.077a3.058,3.058,0,1,0,3.058,3.058A3.059,3.059,0,0,0,41.788,8.154ZM26.5,12.231A14.269,14.269,0,1,0,40.769,26.5,14.3,14.3,0,0,0,26.5,12.231Zm0,4.077A10.192,10.192,0,1,1,16.308,26.5,10.161,10.161,0,0,1,26.5,16.308Z" transform="translate(5411 10148)"/>
</svg>
