<svg xmlns="http://www.w3.org/2000/svg" viewBox="952 8552 102.817 86.161">
  <defs>
    <style>
      .cls-1 {
        fill: #5a7814;
      }
    </style>
  </defs>
  <path id="Subtraction_5" data-name="Subtraction 5" class="cls-1" d="M72.37,88.155a20.907,20.907,0,0,1-11.446-3.1,53.3,53.3,0,0,1-7.713.562,49.375,49.375,0,0,1-32.88-12.063,43.309,43.309,0,0,1-5.851-6.31c.555-.272,1.125-.571,1.7-.891,1.833-1.136,2.629-2.508,2.243-3.864-.473-1.661-2.715-3.064-4.9-3.064a4.27,4.27,0,0,0-1.252.178c-.983.291-2.035.644-3.127,1.049a41.038,41.038,0,0,1-4.662-1.2,3.618,3.618,0,0,1-2.286-3.8c.211-1.352,1.372-2.128,3.187-2.128.1,0,.206,0,.314.007.755.065,1.5.162,2.219.289A37.115,37.115,0,0,1,6.73,45.682,57.066,57.066,0,0,1,3.183,35.247,3.51,3.51,0,0,1,3.965,32.4a2.936,2.936,0,0,1,2.223-1.2,2.961,2.961,0,0,1,2.491,1.717A32.87,32.87,0,0,1,20.331,17.729a44.768,44.768,0,0,1,10.884-5.85,31.354,31.354,0,0,1-3.87-1.143,2.4,2.4,0,0,1-1.4-2.665c.208-1.176,1.225-1.879,2.722-1.879.145,0,.3.006.452.019a15.3,15.3,0,0,1,8.667,3.65A65.291,65.291,0,0,1,51.837,8.1c.353.362.727.722,1.114,1.07a3.656,3.656,0,0,0,2.262.985A2.26,2.26,0,0,0,57.219,8.82a3.317,3.317,0,0,0-.109-3.314c-.56-.808-1.23-1.676-1.993-2.58a2.078,2.078,0,0,1,1.721-.932,3.626,3.626,0,0,1,2.149.881,20.566,20.566,0,0,1,5,6.053,50.667,50.667,0,0,1,22.113,8.8c8.91,6.61,13.62,15.843,13.62,26.7,0,1.016-.043,2.049-.127,3.071l.083-.053c.115-.073.229-.145.345-.215a3.113,3.113,0,0,1,1.669-.449,3.379,3.379,0,0,1,3.1,1.757c.314.714.392,1.888-1.02,3.428a23.8,23.8,0,0,1-5.914,4.365A34.128,34.128,0,0,0,92.4,58.685c-2.141,1.276-2.476,2.581-2.379,3.452.149,1.345,1.457,2.644,3.255,3.233A42.65,42.65,0,0,1,86.1,73.556,46.984,46.984,0,0,1,72.573,81.9c.469.076.849.146,1.193.215a3.638,3.638,0,0,1,2.728,3.545c-.077,1.42-1.248,2.323-3.213,2.477C72.974,88.15,72.668,88.155,72.37,88.155ZM53.6,46.313a3.085,3.085,0,0,1,3.011,1.8,23.239,23.239,0,0,0-3.745,7.9,3.6,3.6,0,0,0,.415,3.082,2.556,2.556,0,0,0,2.055.891,3.628,3.628,0,0,0,3.15-1.748,61.784,61.784,0,0,0,4.362-11.611l-.027-.02a43.834,43.834,0,0,1,2.962-5.175,3.561,3.561,0,0,1,2.933-1.429,2.717,2.717,0,0,1,2.266,1.025,3.5,3.5,0,0,1,.156,3.2A24.583,24.583,0,0,1,68.5,49.3,38.676,38.676,0,0,0,83.35,42.552c3.752-3.006,5.735-6.491,5.735-10.079,0-10.257-16.093-18.6-35.874-18.6-1.429,0-2.882.044-4.317.132a40.243,40.243,0,0,1-4.6,5.642,2.153,2.153,0,0,1-1.543.6,2.433,2.433,0,0,1-2.1-1.133,2.867,2.867,0,0,1,.286-2.983c.272-.437.561-.861.883-1.3-14.647,2.548-24.49,9.636-24.49,17.643,0,6.076,5.762,11.785,15.414,15.27a3.82,3.82,0,0,1,.781-3,2.331,2.331,0,0,1,1.815-.893,3.861,3.861,0,0,1,2.529,1.207A24.355,24.355,0,0,1,41.535,49.7c.112.52.244,1.046.393,1.566.506,1.518,1.39,2.353,2.49,2.353a3.31,3.31,0,0,0,2.962-2.791l.032,0a42.492,42.492,0,0,1,4.113-3.839A3.26,3.26,0,0,1,53.6,46.313Z" transform="translate(949.838 8550.007)"/>
</svg>
