<svg xmlns="http://www.w3.org/2000/svg" viewBox="1500.316 8797 204.684 87.488">
  <defs>
    <style>
      .cls-1 {
        fill: #303030;
      }
    </style>
  </defs>
  <g id="GUSTER" transform="translate(102 6521)">
    <path id="Path_203" data-name="Path 203" class="cls-1" d="M43.64,202.7c-.072-.036-.108-.108-.181-.108a6.126,6.126,0,0,0-3.939.036c-.9.434-1.807.831-2.638,1.337a5.555,5.555,0,0,1-2.71.65c-1.735.108-3.469.072-5.24.181a18.658,18.658,0,0,1-4.264-.181,9.137,9.137,0,0,1-.976.036,24.158,24.158,0,0,0-3.614-.108,72.107,72.107,0,0,0-8.383-.072c-1.012,0-2.06.036-3.072,0a18.6,18.6,0,0,1-1.915-.253.947.947,0,0,0,.181.325,10.654,10.654,0,0,0,1.554,1.048c2.1,1.012,4.228,1.987,6.36,2.891a9.949,9.949,0,0,0,2.06.434c1.373.181,2.782.4,4.156.506.9.072,1.807.036,2.674.072a19.346,19.346,0,0,1,2.024.253,3.618,3.618,0,0,1,.759.361,5.336,5.336,0,0,0,.976.361c1.445.325,2.855.723,4.3.94,2.024.325,3.722,1.373,5.565,2.132.542.217,1.156.4,1.734.578,1.12.361,2.2.759,3.361,1.048,1.048.253,2.132.434,3.216.614a22.9,22.9,0,0,0,2.71.253,19.046,19.046,0,0,0,2.024-.145,2.416,2.416,0,0,1,.687.181c.65.145,1.265.361,1.915.47a40.376,40.376,0,0,0,4.192.614c1.012.036,2.024.361,3.072.325.072,0,.145.036.217.036a20.164,20.164,0,0,0,4.119.759,9.944,9.944,0,0,0,3.577-.145,2.448,2.448,0,0,0,.867-.434,10.784,10.784,0,0,0,1.337-1.229,3.248,3.248,0,0,0,.434-.867,9.09,9.09,0,0,1,.434-1.048c.036-.108.253-.181.4-.181a40.767,40.767,0,0,0,6.288-.65c1.084-.108,2.168-.145,3.252-.181a1.055,1.055,0,0,1,.325.072,4.985,4.985,0,0,0,3.4.072,1.742,1.742,0,0,1,1.7.036c-.145-.687-.289-1.337-.434-2.024H85.7a3.026,3.026,0,0,1-2.06-.687,9,9,0,0,1-3.072-4.228c-.253-.65-.506-1.265-.795-2.06-.47,1.192-.867,2.277-1.3,3.361-.145.434-.181.94-.723,1.156-.108.036-.217.325-.217.47,0,.289-.108.4-.4.4H75.765v-.181H77.21c.108-.506.217-.9.289-1.337a.271.271,0,0,1,.036-.181c.434-.4.289-.759.072-1.192a1.6,1.6,0,0,1-.072-.723c.145.4.253.795.4,1.192h.181c.145-.542.325-1.12.47-1.662.072-.181.181-.361.253-.578.145-.4.325-.831.434-1.229a3.089,3.089,0,0,0,0-.578c.036,0,.072-.036.108-.036.072.108.181.217.253.325.506,1.156,1.012,2.349,1.518,3.505a7.725,7.725,0,0,0,2.6,3.288,3.027,3.027,0,0,0,1.987.614c.687-.036.867.145.976.831a9.008,9.008,0,0,0,.325,1.662,15.628,15.628,0,0,1,.361,4.3,1.241,1.241,0,0,1-.9,1.3,5.5,5.5,0,0,1-3.469.614c-1.012-.253-1.987-.506-3-.687a11.1,11.1,0,0,0-1.879-.217,2.193,2.193,0,0,0-1.843,1.662A2.157,2.157,0,0,0,77.68,223.3a10.49,10.49,0,0,0,3.505.578c.217,0,.47.072.795.108a4.862,4.862,0,0,1-2.6.867,5.04,5.04,0,0,0-3.18,1.409,2.073,2.073,0,0,0-.325,2.1c.108.253.253.506.361.795a2,2,0,0,0,1.987,1.229,8.042,8.042,0,0,0,5.24-1.662c.578-.4,1.192-.759,1.807-1.12.036.036.072.108.108.145-.253.217-.47.47-.723.65-.795.542-1.626,1.048-2.385,1.626a3.352,3.352,0,0,0-1.3,2.493,6.057,6.057,0,0,0,.47,2.529,1.369,1.369,0,0,0,1.373.976,5.474,5.474,0,0,0,3.4-1.192,7.289,7.289,0,0,0,2.746-3.722c.253-.578.434-1.192.687-1.771a1.523,1.523,0,0,1,1.554-.94.737.737,0,0,1,.723.506,3.529,3.529,0,0,1,.217.831,13.38,13.38,0,0,0,.217,1.734,11.748,11.748,0,0,0,.723,2.168,1.92,1.92,0,0,0,1.951,1.048,6.338,6.338,0,0,0,3.83-1.192,2.735,2.735,0,0,0,1.192-3.108,1.417,1.417,0,0,0-.614-.831,11.437,11.437,0,0,0-1.807-.795,1.549,1.549,0,0,1-.831-1.951c.036-.108.253-.181.361-.181,1.012.036,2.024.108,3.035.108a8.108,8.108,0,0,0,5.42-2.06,2.152,2.152,0,0,0,.506-.759c.253-.578.47-1.156.723-1.735a.852.852,0,0,0-.4-1.265,2.713,2.713,0,0,0-2.674-.072c-.506.217-.94.65-1.445.723a15.709,15.709,0,0,1-2.6.145,3.093,3.093,0,0,1-.831-.181,1.207,1.207,0,0,1-.795-1.373,11.173,11.173,0,0,1,.253-1.879c.217-1.12.47-2.277.759-3.361.181-.723.47-1.445.723-2.168.289-.795.614-1.59.867-2.385.145-.506.145-1.084.289-1.626a8.9,8.9,0,0,0,.217-3.9,7.854,7.854,0,0,1,.072-1.3,2.79,2.79,0,0,0-.072-.542c-.253-1.084-.542-2.168-.759-3.324a6.4,6.4,0,0,1,.542,1.12,12.115,12.115,0,0,1,.687,4.083c-.036,1.3,0,2.6,0,3.867.072,0,.108.036.145,0a36.776,36.776,0,0,1,4.336-3.144c1.12-.831,2.313-1.482,3.469-2.277a19.7,19.7,0,0,0,1.662-1.373,3.935,3.935,0,0,1,.831-.506c.108-.072.253-.072.325-.145.47-.578,1.192-.65,1.843-.9a64.267,64.267,0,0,1,6.432-1.59,58.334,58.334,0,0,0,6.9-2.1l.325-.108c.145-.723.253-1.409.4-2.132.072-.289.217-.542.289-.831a7.4,7.4,0,0,0,.181-.867c.036-.831,0-1.626.072-2.457-.036,1.192.434,2.385-.108,3.577a6.71,6.71,0,0,0-.181,1.229,11.129,11.129,0,0,1-.289,1.915,6.072,6.072,0,0,0-.036,2.674.631.631,0,0,1-.47.831c-1.409.506-2.782,1.048-4.192,1.554a.607.607,0,0,1-.47-.145,3.532,3.532,0,0,0-3.144-1.409,2.72,2.72,0,0,1-1.084-.145,1.809,1.809,0,0,0-1.445.181.643.643,0,0,0-.289.4,3.024,3.024,0,0,0,.361,2.819c.217.253.361.542.542.795a3.253,3.253,0,0,0,2.6,1.373,10,10,0,0,1,1.807.361c.108.036.289.181.289.253a.551.551,0,0,1-.217.361,1.1,1.1,0,0,1-.578.108c-.434-.036-.867-.145-1.337-.181a2.546,2.546,0,0,0-2.385.723c-.181.181-.4.289-.542.47a1.957,1.957,0,0,0-.506.867,8.364,8.364,0,0,0,.145,2.132,1.925,1.925,0,0,0,.723.9,5.462,5.462,0,0,0,5.059.325,3.523,3.523,0,0,0,1.771-1.229,3.563,3.563,0,0,1,2.024-1.229c.253.614.072.976-.47,1.373a4.01,4.01,0,0,0-1.445,4.553,2.861,2.861,0,0,0,2.2,1.915,8.74,8.74,0,0,0,2.168.108c1.409-.036,1.518-.47,1.987-1.626a4.986,4.986,0,0,0,.108-1.807c0-1.012-.072-1.987-.036-3a1.078,1.078,0,0,1,.289-.614c.145-.181.4-.325.578-.506a1.509,1.509,0,0,1,1.409-.253,3.869,3.869,0,0,1,2.24,1.518,10.256,10.256,0,0,0,5.637,3.469,8.853,8.853,0,0,0,3.216.542,2.463,2.463,0,0,0,2.313-2.349,7.428,7.428,0,0,0-.072-1.265,2.5,2.5,0,0,0-2.385-2.132,7.639,7.639,0,0,1-2.927-1.012c-.506-.253-1.084-.325-1.445-.831-.036-.036-.072-.072-.072-.217h3.541c.108,0,.217.036.361.036,1.229,0,2.457.072,3.686.036a6.51,6.51,0,0,0,5.059-2.493,2.541,2.541,0,0,0,.253-2.385,5.227,5.227,0,0,0-.325-.795,1.877,1.877,0,0,0-2.024-1.265,5.575,5.575,0,0,0-1.879.506,13.376,13.376,0,0,1-2.891.65,25.283,25.283,0,0,1-3.324.181,5.885,5.885,0,0,1-1.554-.289,13.725,13.725,0,0,1-1.7-.65c-.145-.072-.361-.289-.361-.4a6.128,6.128,0,0,1,.217-1.12c.181-.578.4-1.156.614-1.734a11,11,0,0,0,.506-1.409,19.5,19.5,0,0,0,.361-2.1,18.585,18.585,0,0,0,0-2.457c-.036-.614-.108-1.192-.181-1.807-.036-.47.253-.614.614-.759s.723-.325,1.12-.47a1.148,1.148,0,0,1,.325-.108,12.008,12.008,0,0,0,3.433-1.3c.831-.4,1.735-.687,2.566-1.156a12.63,12.63,0,0,0,4.336-3.469c.217-.325.506-.614.723-.9a3.128,3.128,0,0,0,.361.253,9.836,9.836,0,0,0,3.469,1.156c1.192.217,2.421.47,3.614.759a15,15,0,0,0,3.108.217,2.182,2.182,0,0,1,.795.217c.723.289,1.445.614,2.2.867l7.155,2.385c0,.506.361.65.759.831,2.349.976,4.661,1.951,6.974,2.927a1.7,1.7,0,0,1,.325.217c1.987,1.807,3.939,3.65,5.926,5.493a2.166,2.166,0,0,1,.578.831c.4,1.192.759,2.421,1.12,3.65.036.145.072.325.145.614.289-.506.542-.867.759-1.3.253-.434.47-.9.687-1.337a5.446,5.446,0,0,0,.506-2.385c.036-.831.036-1.662.072-2.529,0-.108.036-.217.036-.325a.448.448,0,0,1,.108.072c.036,1.12.108,2.24.072,3.361-.036,1.409-.867,2.493-1.445,3.722a4.075,4.075,0,0,0-.289.867c-.036.181-.072.361-.108.506a13.168,13.168,0,0,1-.976,2.168c-.723.976-1.156,2.1-1.915,3.035-.759.9-1.482,1.807-2.277,2.674a1.984,1.984,0,0,1-.759.434,1.144,1.144,0,0,0-.795.723,2.44,2.44,0,0,1-1.518,1.626,5.508,5.508,0,0,1-1.3.434,1.669,1.669,0,0,0-1.084.94,4.722,4.722,0,0,1-1.445,1.807,17.929,17.929,0,0,0-4.806,5.1c-1.012,1.554-2.277,3-3.361,4.517-1.229,1.734-2.457,3.469-3.541,5.312a28.818,28.818,0,0,0-1.987,4.119,8.81,8.81,0,0,0-.4,1.987c-.181,1.12-.361,2.24-.506,3.4a.878.878,0,0,0,.831,1.048,2.2,2.2,0,0,0,.976-.072,6.078,6.078,0,0,0,2.927-1.987,9.422,9.422,0,0,1,.867-.831c.65-.687,1.3-1.409,1.951-2.132,1.662-1.807,3.288-3.65,4.951-5.456a.957.957,0,0,1,.217-.181,6.208,6.208,0,0,0,2.06-1.554c.65-.578,1.3-1.084,1.987-1.59s1.409-.976,2.168-1.445a2.277,2.277,0,0,1,1.048-.361,3.361,3.361,0,0,0,1.662-.542c.325-.181.614-.361.94-.542a1.89,1.89,0,0,1,1.265-.289,2.054,2.054,0,0,0,1.807-.867c.614-.759,1.229-1.518,1.879-2.277a1.869,1.869,0,0,1,.47-.217,3.676,3.676,0,0,0,.94-.4c.759-.723,1.482-1.518,2.24-2.277a1.125,1.125,0,0,0,1.771-.325,11.1,11.1,0,0,0,2.024-2.674,2.433,2.433,0,0,1,.4-.506,1.172,1.172,0,0,0,2.1-.108,4.722,4.722,0,0,0,.434-.976c.289-.9.578-1.807.831-2.566.542-.145.9-.289,1.265-.4.47-.145.614-.506.759-.9a8.3,8.3,0,0,0,.4-2.06,2.662,2.662,0,0,1,.145-.506.511.511,0,0,1,.614-.4.881.881,0,0,0,1.012-.795c.072-.4.072-.831.108-1.229a.9.9,0,0,1,.036-.325c.289-.759.578-1.518.867-2.313a2.815,2.815,0,0,0,.145-.759c.036-.94.072-1.843.108-2.782,0-.108.108-.217.181-.289a.909.909,0,0,0,.506-.867,10.469,10.469,0,0,0-.542-3,2.843,2.843,0,0,1-.145-.723,2.825,2.825,0,0,0-1.012-2.024,2.24,2.24,0,0,1-.506-1.554c1.012-.145,1.337-.831.723-1.626a12.067,12.067,0,0,0-2.638-2.782.426.426,0,0,1-.217-.542,2.086,2.086,0,0,0-1.12-2.566c-.217-.108-.4-.253-.578-.361-.361-.217-.723-.325-.614-.9.036-.253-.289-.578-.4-.867a1.02,1.02,0,0,1-.145-.542,1.009,1.009,0,0,0-.65-1.156l-2.06-.867c.289-.759.181-1.084-.578-1.409-.506-.217-1.012-.361-1.518-.542a7.273,7.273,0,0,1-.9-.506c.181-.867.181-.9-.65-1.409-.289-.181-.47-.47-.723-.65a12.947,12.947,0,0,0-1.735-.867c-.289-.145-.614-.145-.65-.614,0-.145-.181-.289-.325-.4-.434-.361-.9-.687-1.3-1.084a5.749,5.749,0,0,0-3.035-1.409.266.266,0,0,1-.217-.072,1.275,1.275,0,0,0-1.482-.253c-.072.036-.253-.072-.361-.145a2.8,2.8,0,0,1-.434-.361,2.029,2.029,0,0,0-2.2-1.192,3.831,3.831,0,0,1-1.915-.181,2.7,2.7,0,0,0-.94-.145.749.749,0,0,1-.759-.65.884.884,0,0,0-.976-.759c-.759,0-1.518.036-2.24.036a1.449,1.449,0,0,0-.687.108,2.123,2.123,0,0,1-1.337.036c-.108,0-.253-.253-.289-.4-.072-.867-.325-1.156-1.192-1.048-.9.108-1.771.325-2.674.434-.4.036-.831,0-1.229,0q-.054-.325-.108-.542a1.02,1.02,0,0,0-1.337-.723,3.226,3.226,0,0,1-2.024-.036.45.45,0,0,1-.361-.506.949.949,0,0,0-.578-.94,4.259,4.259,0,0,0-3.324-.325,6.561,6.561,0,0,1-2.385.289,6.018,6.018,0,0,1-2.313-.65c-.578-.289-1.229-.434-1.807-.723-.47-.217-.831-.542-1.3-.759a2.355,2.355,0,0,0-1.048-.325c-.976.108-1.59-.506-2.313-.94a2.016,2.016,0,0,0-.976-.361c-.723-.036-1.445.145-2.168.036-.578-.072-1.084.181-1.626.036a16.812,16.812,0,0,1-1.879-.723c-.614-.253-1.192-.542-1.807-.759-.795-.253-1.59-.434-2.421-.614a7.787,7.787,0,0,0-3.867.072c-.145.036-.289-.036-.434-.036a5.485,5.485,0,0,1-.759-.108,1.526,1.526,0,0,1-.434-.108,3.35,3.35,0,0,0-2.566-.361c-.253.072-.361.036-.542-.217a.975.975,0,0,0-.795-.361,12.413,12.413,0,0,0-1.59.325c-.361.072-.723.036-1.084.108-.434.072-.65-.217-.831-.506-.361-.542-.9-.4-1.373-.325-.831.145-1.626.325-2.457.47-.325.072-.614.036-.723-.4a.916.916,0,0,0-.94-.65,5.368,5.368,0,0,0-2.385.542,4.71,4.71,0,0,1-3.072.036,2.758,2.758,0,0,0-3,.361.512.512,0,0,1-.723.036,1.6,1.6,0,0,0-1.7-.108,6.163,6.163,0,0,0-2.132,1.3c-.289.325-.687.289-1.156.253a10.249,10.249,0,0,0-2.782,0c-.434.072-.795.65-1.192,1.012-.145.145-.253.289-.506.181a2.054,2.054,0,0,0-2.168.217,6.4,6.4,0,0,0-2.24,2.024,9.068,9.068,0,0,0-1.518-.47,1.408,1.408,0,0,0-1.445.759,2.809,2.809,0,0,1-.94.9,5.523,5.523,0,0,0-1.084.976c-.145.181-.253.217-.506.108a1.176,1.176,0,0,0-1.482.434c-.47.614-.94,1.192-1.409,1.807-.217.289-.434.325-.795.145a1.526,1.526,0,0,0-1.843.145c-.759.614-1.445,1.3-2.168,1.915a6.926,6.926,0,0,1-.795.65,2.624,2.624,0,0,1-1.3.4,1.667,1.667,0,0,0-.94.47,6.711,6.711,0,0,0-.795.976c-.289.4-.65.361-.867-.072a.877.877,0,0,0-1.409,0c-.614.687-1.192,1.373-1.771,2.06-.181.217-.4.434-.614.65-.325.325-.578.614-1.156.47a1.2,1.2,0,0,0-.94.361,11.966,11.966,0,0,0-1.409,1.626,6.115,6.115,0,0,1-3.505,2.493.85.85,0,0,0-.65.867c-.036.361-.108.47-.506.47a8.169,8.169,0,0,1-3.324-.795,20.289,20.289,0,0,0-5.456-1.445c-1.626-.181-3.288-.361-4.914-.542a14.556,14.556,0,0,0-1.771-.108c-3.144-.072-6.288-.145-9.431-.145-1.843,0-3.65.072-5.493.108a2.739,2.739,0,0,0-.578.108c-1.084.325-2.168.65-3.288.976-.795.217-1.59.434-2.385.578a1.779,1.779,0,0,1-1.048-.217,5.6,5.6,0,0,0-2.168-.65,9.13,9.13,0,0,0-3.433.108,15.593,15.593,0,0,0-2.638,1.192,2.777,2.777,0,0,0-.795.795,17.2,17.2,0,0,0-1.554,2.421,14.6,14.6,0,0,0-.976,2.746,1.8,1.8,0,0,1-.65,1.048c-1.012.759-1.951,1.59-2.927,2.385-.578.434-1.156.867-1.734,1.265a19.8,19.8,0,0,0-3.65,3.108,22.57,22.57,0,0,1-2.6,2.277,9.286,9.286,0,0,0-2.024,2.1,3.067,3.067,0,0,0-.506,1.771c.072.831.145,1.626.217,2.457,0,.108.145.217.181.325a6.857,6.857,0,0,1,.9,1.445,2.733,2.733,0,0,0,2.6,1.987c1.735.072,3.469,0,5.2.036,1.554,0,3.108.036,4.661.072,1.156.036,2.349.108,3.505.145a9.613,9.613,0,0,0,1.012-.108c.072,0,.108-.036.181-.036.831.072,1.662.145,2.457.217.361.036.687.072,1.048.108.723.036,1.482.108,2.2.072.9-.036,1.807-.145,2.71-.181a43.03,43.03,0,0,0,4.3-.325,4.96,4.96,0,0,0,2.06-.831,11.845,11.845,0,0,1,3.035-1.3,3.906,3.906,0,0,1,1.3-.036,16.176,16.176,0,0,1,1.807.4.751.751,0,0,0,.072.217,13.356,13.356,0,0,1,1.734.253,5.6,5.6,0,0,1,2.782,1.445,3.451,3.451,0,0,0,.578.434,1.1,1.1,0,0,1,.289.289l-.072.072a14.489,14.489,0,0,1-1.482-1.12,7.109,7.109,0,0,0-2.638-1.12A11.558,11.558,0,0,0,43.64,202.7ZM38.4,190.308c.072.036.181.072.181.145a18.928,18.928,0,0,1,.831,1.735,3.28,3.28,0,0,1,.108.831c-.145-.434-.325-.9-.506-1.373a8.653,8.653,0,0,0-.614-1.337c-.361-.434-.723-.831-.9-1.084C37.714,189.477,38.075,189.911,38.4,190.308Zm-6.757-.65a5.613,5.613,0,0,1,5.854,3.758,3.959,3.959,0,0,1-.361,3.65,12.428,12.428,0,0,1-1.807,1.843,2.723,2.723,0,0,1-2.313.759c-.723-.072-1.445-.072-2.168-.145a3.983,3.983,0,0,1-2.819-1.554,6.151,6.151,0,0,1-1.373-4.228,4.275,4.275,0,0,1,3.4-3.939A12.981,12.981,0,0,1,31.643,189.658Zm97.024-3.722c.795.65.723,1.59.759,2.493a7.81,7.81,0,0,0-.217-3.035,16.788,16.788,0,0,1-.4-1.843c-.145-.614-.253-1.229-.4-1.879.361.108.4.434.47.723a28.21,28.21,0,0,0,.614,3.035,7.811,7.811,0,0,1,.253,2.746,6.866,6.866,0,0,1-.4,1.409c0,.036-.145.072-.289.108A7.271,7.271,0,0,0,128.667,185.936ZM62.395,199.27c.036,0,.036.036.072.036-.217.289-.434.542-.65.831-.4.47-.795.94-1.156,1.445-.4.542-.759,1.084-1.12,1.626-.108.181-.217.4-.325.578-.289.4-.614.831-.9,1.229a.133.133,0,0,1-.108.036,2.24,2.24,0,0,0-1.771.687c-.036.036-.072.036-.108.072a3.9,3.9,0,0,0-.723.578c-.65.795-.65.795-1.518.976a2.314,2.314,0,0,0,1.409-1.265c-.65.253-1.229.759-1.807.687a16.663,16.663,0,0,0,2.385-1.229,3.908,3.908,0,0,1,1.915-.723.375.375,0,0,0,.289-.145c.217-.47.795-.723.831-1.337,0-.108.145-.217.217-.289a5.172,5.172,0,0,0,.4-.542c.289-.434.578-.9.9-1.3C61.166,200.571,61.78,199.92,62.395,199.27ZM70.923,211.3v.145c-.145,0-.289.036-.434.036a8.558,8.558,0,0,1-3.541-.65,3.1,3.1,0,0,0-2.2-.145c-.036,0-.108-.036-.145-.036a.133.133,0,0,0-.036-.108,3.811,3.811,0,0,1,.867-.217,7.294,7.294,0,0,1,1.771.325,10.327,10.327,0,0,0,3.288.578A1.348,1.348,0,0,1,70.923,211.3Zm18.718-13.948c.181.036.325.036.4.108a1.4,1.4,0,0,0,1.192.289c.434,0,.867.036,1.3,0a3.029,3.029,0,0,1,1.915.687c.108.072.145.289.217.434-.036.036-.072.036-.108.072a3.119,3.119,0,0,0-2.385-.867c-.325.036-.65-.036-.94,0A1.555,1.555,0,0,1,89.641,197.355Zm-9.07-3.939a.326.326,0,0,1,.181.036c0,.072.072.217.036.253-.4.289-.217.723-.253,1.084-.036,1.445,0,2.927,0,4.372a3.235,3.235,0,0,1-.072-.831l-.108-4.011C80.39,194.03,80.535,193.705,80.571,193.416ZM8.336,198.981a.5.5,0,0,1,.145.759.537.537,0,0,1-.506.145,5.065,5.065,0,0,1-1.084-.831c-.289-.361.072-.687.289-.94.108-.145.4-.145.614-.181,0,.036.036.108.036.145H7.613c-.325.036-.687.65-.506.9a1.577,1.577,0,0,0,1.192.687C8.3,199.451,8.336,199.27,8.336,198.981Zm19.3.506c-1.192-.253-2.566-2.24-2.6-3.577A6.715,6.715,0,0,0,27.632,199.487Zm127.631-23.38c-.47.976-.94,1.915-1.409,2.891A6.969,6.969,0,0,1,155.263,176.107Zm-55.721,23.38c-1.012-.253-2.024-.542-3.072-.831A6.293,6.293,0,0,1,99.542,199.487Zm-20.38,2.819h0c0,.434.036.867,0,1.265a1.231,1.231,0,0,1-.687,1.156c-.145.072-.217.253-.325.434a2.491,2.491,0,0,0-.108.289l-.145.289c.072-.614.181-1.12.795-1.337a.677.677,0,0,0,.289-.542A11.377,11.377,0,0,0,79.161,202.305Zm110.5-12.069c.072-.036.108-.036.181-.072.108.361.253.723.361,1.084.036-.036.036-.072.072-.108a1.2,1.2,0,0,1,.217.108.778.778,0,0,1,.072.4c-.108-.036-.325-.036-.361-.108ZM97.3,199.053v.072H95.314v-.072Zm-30.824-5.42a1.669,1.669,0,0,1,.506-.361.592.592,0,0,0,.47-.614c0-.145.181-.289.289-.47A1.414,1.414,0,0,1,66.478,193.633Zm-43,2.927c.289.217.542.4.795.614l.108-.108c-.072-.108-.108-.181-.181-.289a.035.035,0,0,0,.036-.036c.145.145.289.325.47.506C24.091,197.283,23.621,197.174,23.476,196.56Zm164.309-7.625a.535.535,0,0,1-.759-.506C187.279,188.61,187.532,188.791,187.785,188.935Z" transform="translate(1394.14 2121.051)"/>
    <path id="Path_204" data-name="Path 204" class="cls-1" d="M494.778,261.014a2.123,2.123,0,0,0,.361-.578.91.91,0,0,0-.181-.578.523.523,0,0,0-.4.036,1.06,1.06,0,0,0-.217.614,2.4,2.4,0,0,1-.145,1.807c-.072.181.072.47.181.723.036.036.361.036.4-.036.072-.145.181-.47.108-.542-.361-.325-.253-.65-.145-1.012A1.76,1.76,0,0,0,494.778,261.014Z" transform="translate(930.788 2054.066)"/>
    <path id="Path_205" data-name="Path 205" class="cls-1" d="M495.539,271a1.523,1.523,0,0,0,0,1.915Z" transform="translate(930.027 2046.936)"/>
    <path id="Path_206" data-name="Path 206" class="cls-1" d="M493.2,254.34a2.215,2.215,0,0,0,.145.217c.072-.072.217-.108.253-.181a2.4,2.4,0,0,0,.217-.723c0-.072-.108-.253-.181-.253a.407.407,0,0,0-.289.181A2.571,2.571,0,0,0,493.2,254.34Z" transform="translate(932.474 2058.176)"/>
  </g>
</svg>
