<svg xmlns="http://www.w3.org/2000/svg" viewBox="3467 8325 130.011 214.104">
  <defs>
    <style>
      .cls-1 {
        fill: #303030;
      }
    </style>
  </defs>
  <path id="Path_230" data-name="Path 230" class="cls-1" d="M238.261,219.922c-.59-.074-1.18-.111-1.881-.184a2.4,2.4,0,0,0,1.18.369c.074.184-.037.221-.148.221-.369.037-.738.037-1.143.074a3.553,3.553,0,0,0-.443.074c.3.332.664.258.959.332s.59.074.922.184a14.512,14.512,0,0,1-2.619.332c.148.148.184.221.258.258a2.54,2.54,0,0,0,.3.111,1.918,1.918,0,0,1,1.106.738c.074.111.184.148.369.3-.443-.074-.811-.148-1.291-.221.258.369.553.369.811.516s.553.221.811.369c.258.111.516.258.922.479-1.033,0-1.844-.258-2.877-.184a2.173,2.173,0,0,0,.516.258c.516.074,1,.148,1.512.221a1.811,1.811,0,0,1,.443.111,5.3,5.3,0,0,0-.59.258c.037.037.037.111.074.184-.406.074-.775.074-1.18.111h-1.143a2.1,2.1,0,0,0,.811.406,12.45,12.45,0,0,0,1.254.369c.148.037.148.074.406.406-.332.221-.664.074-1,.074a3.111,3.111,0,0,0-1.033-.037,2.651,2.651,0,0,0,.885.332c.332.074.627.074.959.148.3.037.59.074.959.111a.932.932,0,0,1-.627.221c-.553,0-1.143,0-1.7-.037l-1.7-.111c-.074,0-.184.037-.406.074a3.176,3.176,0,0,0,1.143.443c.332.111.664.148,1.106.258a1.955,1.955,0,0,1-.369.221c.627.037,1.217.074,1.881.074a1.417,1.417,0,0,1-.885.3c-.258.037-.553.037-.811.074a3.189,3.189,0,0,0-.848.221h1.623c-.553.479-1.18.258-1.66.479.037.258.258.111.369.221,0,.037.037.037.037.074-.184.037-.332.111-.553.148.3.332.7.184,1.033.369-.516.553-1.217.406-1.807.443-.037.221.111.258.221.3a15.7,15.7,0,0,0,1.807.369c.406.074.848.074,1.291.111a2.557,2.557,0,0,1,.59.111c-.406.221-.775.111-1.07.3a1.732,1.732,0,0,0,1,.148,4.843,4.843,0,0,1,1.033-.037,11.127,11.127,0,0,1-3.91.738c-.037.074-.074.074-.074.111a2.33,2.33,0,0,0,.148.332c.664.184,1.438-.148,2.139.332a2.2,2.2,0,0,1-.406.221c-.664.148-1.328.258-1.992.369-.221.037-.479.074-.775.148.111.148.221.258.332.406a7.991,7.991,0,0,0-.922.148c.148.3.479.221.627.332.074.148.148.3.221.479-.184.037-.406.074-.59.111-.074.148.111.148.148.184a.811.811,0,0,1,.221.184c-.516.148-1,.332-1.475.479v.111q.387.055.664.111c.074.111.148.258.184.258.443,0,.848-.037,1.291-.037.074.148-.037.184-.148.221-.516.148-1.033.332-1.512.479.037.479.332.627.7.7a.67.67,0,0,1-.7.516,4.941,4.941,0,0,0-.738.037c-.111,0-.184.074-.3.111.184.332.59.258.738.479s.221.479.516.516a1.8,1.8,0,0,1-.111.258c.148.074.332.184.479.258a1.1,1.1,0,0,0-.3.148c.184.258.516.258.775.369a8.615,8.615,0,0,0,.922.258c.3.074.553.148.885.221a2.116,2.116,0,0,1-.258.148,1.87,1.87,0,0,0,.258.221,1.407,1.407,0,0,1-.479.148c-.664.074-1.328.148-1.992.184-.258.037-.516,0-.664.3-.074.111-.332.148-.516.221.221.3.221.7.664.848a3.429,3.429,0,0,0-.369.184,2.389,2.389,0,0,0,.332.3c-.406.184-.406.184-.443.479-.332.184-.775.221-1.07.553.148.221.3.037.406,0a4.455,4.455,0,0,0,.516-.111c-.148.406-.664.443-.738.885.3.111.553-.074.811-.148.258-.111.553-.221.848-.369-.074.369-.406.369-.553.627-.037.148.221.037.258.221-.148.111-.332.221-.553.406a2.962,2.962,0,0,0,.922.111,5.6,5.6,0,0,1,.775.111c-.59.258-1.254.184-1.918.479a2.737,2.737,0,0,0,.553.3c-.479.184-1.033.111-1.512.479.3.074.479.111.738.184-.111.258-.406.111-.59.332.148.037.258.074.406.111a.772.772,0,0,0-.148.221c.037.037.037.111.074.111a8.388,8.388,0,0,0,.959.074h1.07l-.221.221c.074.221.258.074.406.148a.129.129,0,0,1-.037.074c-.443.074-.848.148-1.291.184a4.149,4.149,0,0,0-1.328.258c.406.074.59.111.775.148-.184.111-.074.258-.074.443-.516.221-1.07.443-1.586.664,0,.369.3.184.443.406-.074.074-.148.184-.3.332a13.88,13.88,0,0,0,2.877.775,4.942,4.942,0,0,1-1.475,0c-.221-.037-.479-.148-.627.148a.634.634,0,0,1-.3.037c-.221,0-.479-.037-.811-.037.3.332.7.221.922.479-.258.037-.479.037-.7.074.037.111.074.184.111.3-.258.074-.516.111-.775.184.148.406.516.516.7.848,0,.111-.037.221-.037.369.184.111.369.258.664.443a4.742,4.742,0,0,1-.7.148,4.69,4.69,0,0,1,.443.369c-.369.037-.627.074-.922.111l-.221.443c.037.037.074.111.111.111.258.037.406.258.553.406.037.037-.037.148-.037.258.406-.037.775-.074,1.254-.111-.443.406-1,.369-1.365.7.332.221.59-.074.922,0-.111.258-.406.258-.553.369-.184.111-.479.148-.627.443.3-.037.516-.037.738-.074a7.046,7.046,0,0,0,.738-.074,1.124,1.124,0,0,1-.775.516l-.775.221a.357.357,0,0,0-.111.627,3.374,3.374,0,0,0,.627.332c-.406.111-.848-.074-1.291.111a1.638,1.638,0,0,0,.848.332,8.521,8.521,0,0,0,1,.221,1.3,1.3,0,0,1-.811.074h-.738c0,.074.037.148.037.258-.221.037-.479.037-.885.074a4.982,4.982,0,0,1,.406.332c-.184.111-.369.184-.553.3-.074.037-.074.148-.111.258l.258.258c.074.074.184.111.332.221-.221.074-.406.148-.59.221.037.111.037.221.111.3.184.184-.111.332-.074.516.074.258-.148.258-.258.3a.4.4,0,0,0-.3.443c.111.074.258.184.406.3a5.419,5.419,0,0,0-.479.369v.111a.542.542,0,0,1,.184.516,1.151,1.151,0,0,0,.074,1c-.148.148-.258.3-.443.479.074.148.184.3.3.479a5.121,5.121,0,0,1-.221.7c-.148.258.037.406.111.553a5.43,5.43,0,0,1-.369.811,2.057,2.057,0,0,1,.3.184c0,.037.037.111,0,.111a2.385,2.385,0,0,0-.221,1.254.876.876,0,0,1-.332.627c.074.516.184,1,.258,1.475.037.184.037.184-.184.3a2.614,2.614,0,0,1,.037.516,2.791,2.791,0,0,0-.037.553c.037.258-.3.406-.111.664a1.97,1.97,0,0,1,.184.664,3.172,3.172,0,0,1,.037.59l.111.553c.074.553.184,1.106.258,1.66,0,.111.037.221.037.332a5.331,5.331,0,0,0,0,1.328c.111.406.258.811.332,1.217a11.558,11.558,0,0,0,.738,2.508c.037.074.111.148.074.221-.184.664.369,1.217.3,1.844.148.037.3.111.406.148a2.424,2.424,0,0,1,.553.148,8.463,8.463,0,0,0,2.1.775,15.394,15.394,0,0,1,1.623.7,1.735,1.735,0,0,1,.332.221,10.449,10.449,0,0,1,.885.922,1.353,1.353,0,0,1,.406.664,1.136,1.136,0,0,0,.184.443c.258.332.516.627.332,1.07a13.12,13.12,0,0,1,.3,2.1c.037.111-.111.3-.111.443a1.877,1.877,0,0,1-.479,1.143c-.037,0-.037.037-.037.074.111.369-.148.664-.221.959-.074.332-.184.664-.258,1a2.548,2.548,0,0,1-1.365.59c-.148,0-.3.184-.479.3a.4.4,0,0,1-.553-.184,1.406,1.406,0,0,1-.111-.369q-.166-.332-.443-.111v1.106a.135.135,0,0,0-.111.037l-.111-.221a6.409,6.409,0,0,0-.369-.7c-.074-.111-.221-.148-.369,0a2.648,2.648,0,0,1,.406,1.844h-.406v.369a.57.57,0,0,1-.332.59c-.111.037-.184.184-.3.258a1.43,1.43,0,0,1-.406.221,4.451,4.451,0,0,0-1.4.443c-.443-.037-.627-.369-.922-.59a1.933,1.933,0,0,0-.406.369.877.877,0,0,1-.775.369c-.369-.074-.7.258-1.07,0a1.947,1.947,0,0,1-.922,0,1.989,1.989,0,0,0-.922.111c-.148.037-.184,0-.258-.111-.074-.074-.148-.184-.258-.111-.3.221-.406,0-.516-.221a1.3,1.3,0,0,0,.074-1.365c-.111-.369-.3-.738-.443-1.143.074-.037.148-.111.221-.148,0-.037.037-.111.037-.148a3.182,3.182,0,0,0-.848-1.438.192.192,0,0,1-.074-.148c.074-.738-.553-.922-.959-1.254a9.613,9.613,0,0,0-1.033-.627,2.228,2.228,0,0,0-.885-.184c.59.479,1.18.885,1.733,1.328.221.184.369.406.553.59.148.184.037.332-.074.516.111.148.258.332.406.516.406.516.406.59.258,1.4a.8.8,0,0,0,.037.406,10.179,10.179,0,0,0,.3,1,.8.8,0,0,1-.3.922c-.148-.037-.369-.037-.627-.074l-.3.3c-.184-.037-.3-.406-.516-.074-.3-.037-.7.258-.848-.3-.148.221-.258.369-.369.553a7.3,7.3,0,0,0-1.549-.111,14.107,14.107,0,0,1-2.139-.258c-.516-.074-1-.184-1.512-.258-.332-.074-.627-.111-.959-.184a1.185,1.185,0,0,1-1.07-1.106c0-.074-.037-.184-.111-.184-.3-.111-.148-.369-.221-.553-.369,0-.332.406-.553.479a.532.532,0,0,0-.111-.074.967.967,0,0,0-.443-1.106c-.184-.111-.258-.369-.369-.59a.771.771,0,0,0-.221.148c-.148-.184.037-.406,0-.479-.221-.406-.443-.184-.664-.148,0-.369.184-.7.184-1.106-.332.037-.332.369-.627.479-.037-.406.3-.738.332-1.106-.369-.111-.369.258-.553.332-.037-.037-.074-.074-.074-.111a4.137,4.137,0,0,0,.3-.885c-.553.258-.59.811-.959,1.143-.332-1.291-.332-1.291-.184-3.836-.184-.037-.184.148-.221.258-.074.258-.148.553-.3,1a13.327,13.327,0,0,1-.258-3.1c-.184-.148-.332.221-.516,0-.074.074-.184.111-.221.221a5.428,5.428,0,0,0-.369.811c-.221-.037-.184-.221-.184-.332,0-.369,0-.738.037-1.143a2.267,2.267,0,0,0-.037-.479,2.992,2.992,0,0,0-.406.111,4.336,4.336,0,0,0-.184-.406c-.074.037-.148.037-.148.074-.148.3-.258.59-.443.959-.111-.553.258-.959.111-1.512-.184.258-.3.443-.443.664-.111-.369.221-.7-.037-1-.3.037-.332.258-.443.443s-.221.369-.369.627c-.111-.258,0-.406.037-.59.037-.148.111-.3.148-.479.074-.184.111-.369.184-.59a2.588,2.588,0,0,0-.332-.221,4.014,4.014,0,0,1,.258-.885,3.15,3.15,0,0,0,.332-1c-.516.406-.775,1-1.438,1.07.074-.3.148-.59.221-.922-.148.074-.258.148-.406.221.074-.479.148-.922.221-1.365,0-.037.148-.111,0-.111,0,.037.037.074.037.148a.3.3,0,0,0-.332.148c-.221.369-.443.7-.7,1.143a1.032,1.032,0,0,1,.074-.7,2.8,2.8,0,0,1,.221-.59c-.148-.184-.258-.074-.332,0a2.618,2.618,0,0,0-.369.516,1.559,1.559,0,0,0-.258-.184c.258-.258.479-.479.7-.664a3.571,3.571,0,0,1-.111-.406,2.084,2.084,0,0,1,0-.479,3.817,3.817,0,0,0,.148-.369c.037-.111.258-.221.037-.406a4.694,4.694,0,0,1-1.549.811c.258-.3.406-.443.553-.627a7.383,7.383,0,0,0,.516-.59,1.168,1.168,0,0,0,.369-.664c-.258.184-.479.3-.664.443,0-.037-.037-.037-.037-.074.148-.221.3-.406.516-.7a3.411,3.411,0,0,1-.7.148,2.848,2.848,0,0,0-.553-.074,3.534,3.534,0,0,1-.627,0c.369-.111.664-.221,1.106-.369-.479-.037-.775-.074-1.254-.111.406-.184.7-.3.959-.443.074-.037.221-.148.221-.184-.037-.369.258-.406.479-.553.332-.221.7-.406,1.033-.627a.205.205,0,0,0,.111-.3,6.577,6.577,0,0,0-1.992.775h0a.812.812,0,0,1,.037-.3c.037-.111.037-.258.074-.369.037,0,.111.037.148.037-.037,0-.074-.037-.148-.037l-.037-.037c0-.037,0-.037.037-.074a7.324,7.324,0,0,1,1.106-1.291v-.111c-.406.037-.775.111-1.18.148a4.421,4.421,0,0,0,.443-.332c-.516.037-.848.074-1.217.111.148-.111.258-.148.3-.221.074-.148-.037-.258-.184-.3a3.726,3.726,0,0,0-.627-.111.869.869,0,0,0-.885.443,6.256,6.256,0,0,1-.369.516c-.148.184-.369.3-.406.59-.037.184-.221.332-.369.516.074,0,.148.037.184,0,.811-.332,1.623-.664,2.471-1,.221-.074.443-.148.7-.221-.885.516-1.733,1.033-2.582,1.586v.332q-.443.221-1,.443c.258.111.406.148.7.258-.258.111-.406.148-.553.221a1.331,1.331,0,0,0,.627.111c.111,0,.332,0,.369.074.111.221.221.148.406.074.111-.037.221-.184.406-.037-.111.184-.258.369-.406.627h.516a15.707,15.707,0,0,0-1.254,1.586,3.935,3.935,0,0,0,1.512-.775.285.285,0,0,1,.037.111c-.074.148-.148.258-.221.406a2.081,2.081,0,0,0-.148.443,2.067,2.067,0,0,1-.406,1.291v.074h-.148a.129.129,0,0,0,.037.074c.037-.037.037-.074.074-.111.221-.074.479-.148.775-.258-.148.479-.3.922-.406,1.328-.037.111,0,.221-.037.516.406-.7.7-1.217,1.033-1.733a.129.129,0,0,1,.074.037c-.074.443-.111.922-.184,1.365,0,.037-.037.074-.037.111V285.2a1.138,1.138,0,0,1,.332.037c-.074.3-.148.553-.221.848a2.18,2.18,0,0,0,1.143-.811,2.514,2.514,0,0,1,.443-.443c-.221.516-.443,1.033-.627,1.549-.037.111-.074.258-.111.369-.037.184.148.184.3.221a7.891,7.891,0,0,1-.479,1.4,5.938,5.938,0,0,0-2.065-1c-.074-.037-.148-.148-.221-.184-.369-.221-.738-.443-1.143-.074v-.037l.221-.332c.074-.074.221-.148.3-.221-.074-.184-.184-.148-.258-.148a1.7,1.7,0,0,1-.959,0,.512.512,0,0,0-.332,0,13.731,13.731,0,0,1-2.139-.037,4.931,4.931,0,0,0-2.176.479.162.162,0,0,0-.037.111c.369.258.775.074,1.143.074a6.72,6.72,0,0,1,1.217.037,3.714,3.714,0,0,0,1.106.037c.406,0,.811.037,1.18.074.037.148.037.221.074.369a2.016,2.016,0,0,1,1.07.479,1.253,1.253,0,0,0,.775.332,1.875,1.875,0,0,1,.922.406c.221.111.037.332.148.553a.551.551,0,0,0,.258.111,6.344,6.344,0,0,1,1.586.59.661.661,0,0,1,.258.184,5.313,5.313,0,0,0,1.77,1.365c.3.221.664.369.959.553.111.369.184.7.3,1.07.148,0,.258.037.369.037.037.59.074,1.143.111,1.7a.712.712,0,0,1-.111.369,1.444,1.444,0,0,1-.3.369c.074.922.074.922-.369,1.586-.221,0-.221-.184-.221-.332.074-.59.221-1.217.3-1.807a8.777,8.777,0,0,0-.111-1.328c-.3-.332-.738-.59-.7-1.18a8.755,8.755,0,0,1-1.955-.959.524.524,0,0,0-.221-.074c-.332-.037-.664,0-.848-.332-.443-.111-.775-.479-1.291-.332a.476.476,0,0,0-.443-.443,1.31,1.31,0,0,1-.369-.074c0-.148-.074-.258-.221-.184a.39.39,0,0,0-.074.184c.074.111.184.074.258,0,.037,0,.037-.037.037-.074l.221.332c.221.332.221.332.59.184a.327.327,0,0,0,.221.369,1.025,1.025,0,0,1,.7.59c.074,0,.148.037.221.037.3.037.59-.037.738.332l1.623.811a1.2,1.2,0,0,0,.258.738,1.991,1.991,0,0,1,.479,1.733,18.62,18.62,0,0,1-.443,1.955.741.741,0,0,1-.148.3,8.992,8.992,0,0,0-1.438,1.7,6.282,6.282,0,0,1-1.254.959.423.423,0,0,1-.369.037,1.478,1.478,0,0,0-1.291.258.618.618,0,0,1-.443.111c-.443-.037-.848-.074-1.291-.074-.3,0-.59.037-.885.037-.221,0-.443.074-.59-.111-.037-.148.074-.184.184-.184.221.037.221-.221.332-.3.258-.148.516-.258.516-.59,0-.037.184-.074.332-.111.037-.184.037-.406.074-.627a1.724,1.724,0,0,1,.369-.184c.037-.037.074-.111.037-.148-.037-.258-.037-.479-.074-.738,0-.111-.037-.258,0-.3.332-.258.184-.516.074-.775-.111-.221,0-.443,0-.627,0-.111.148-.184.221-.3.111-.738-.369-1.106-.959-1.4-.516-.258-1.033-.59-1.549-.885a1.667,1.667,0,0,0-.443,0,1.847,1.847,0,0,0,.7.553l.664.443a7.733,7.733,0,0,1,.627.516c-.074.332.074.7-.332.922a8.389,8.389,0,0,0-.074.959.84.84,0,0,1-.148.59,1.128,1.128,0,0,0-.111.627c-.037.332.037.664-.406.775-.037,0-.148.148-.111.184.074.369-.258.479-.443.7a3.2,3.2,0,0,1-1.143.885.244.244,0,0,1-.221-.037.306.306,0,0,0-.3-.074,1.946,1.946,0,0,1-.443.111,15.356,15.356,0,0,0-2.25.037c-.738,0-1.512-.037-2.25-.037a3.373,3.373,0,0,1-.627-.037c-1.733-.221-3.5-.221-5.237-.3-.664-.037-1.328,0-2.029-.037-.443,0-.922-.074-1.365-.074a8.333,8.333,0,0,0-.959.037c-.332.332-.7.184-1.07.184h-.885c-.664-.037-1.328-.111-1.992-.184-.516-.074-1.07-.184-1.586-.258a1,1,0,0,0-.332,0,2.435,2.435,0,0,1-1.033,0,.972.972,0,0,0-.775.111.9.9,0,0,1-.553.037c-.443-.037-.848-.148-1.291-.221-.406-.037-.775-.221-1.18,0-.037.037-.111,0-.148,0a1.629,1.629,0,0,0-1.106,0,2.246,2.246,0,0,1-1.106,0,2.29,2.29,0,0,0-1.106.074,2.353,2.353,0,0,1-.885.037,2.468,2.468,0,0,0-.738,0c-.406,0-.848.221-1.254-.074-.516.074-1.07.074-1.586.184-.406.074-.775.221-1.18.332-.111.037-.258.074-.3.037-.3-.332-.59-.111-.885-.037a.825.825,0,0,1-.775-.037.222.222,0,0,0-.148-.037,13.036,13.036,0,0,0-1.7.037,8.759,8.759,0,0,0-2.729.7,1.972,1.972,0,0,1-1.217.074c-.148-.037-.3-.111-.443,0a.771.771,0,0,1-.7.111,4.466,4.466,0,0,0-.7-.037c-.184,0-.406.148-.59-.037-.037-.037-.111,0-.148.037-.332.332-.811.184-1.18.369a1.211,1.211,0,0,1-.627.037,2.152,2.152,0,0,0-1.18.074.922.922,0,0,1-.7,0c-.184-.037-.406-.184-.627-.074-.406.221-.811-.074-1.217,0-.221-.221-.443-.074-.7-.037-.406.074-.775.148-1.18.221-.221-.3-.406-.553-.59-.848-.3.111-.516.184-.775.3s-.406-.369-.775-.074l.184-.553c-.258.074-.443.148-.664.221a.857.857,0,0,1-.885-.074c-.258-.184-.553-.037-.811.148l-.443-.664a3.327,3.327,0,0,1-.332.369,2.387,2.387,0,0,1-.332.3c-.037.443.258.59.59.811q-.332.055-.553.111c-.037.221.221.3.221.516a3.1,3.1,0,0,0-.443.148c.111.3.443.221.7.406-.221.037-.406.074-.627.111-.111.221-.221.406-.3.59.037.479.406.664.59.959-.148.111-.258.184-.443.332a3.65,3.65,0,0,0,1.512.369,1.55,1.55,0,0,1-.885.074,6.069,6.069,0,0,1-.775-.074,1.654,1.654,0,0,0,.037.406,3.591,3.591,0,0,0-.406.184v.148c.258.3.664.479.811.885-.184.111-.369.221-.516.332.406.627.811,1.18,1.254,1.807-.369-.037-.443-.406-.738-.369a1.4,1.4,0,0,0,.664.848c.332.184.7.332,1.033.479a3.105,3.105,0,0,1,.775.406c.148.111.111.369.369.443a1.362,1.362,0,0,1,.516.258c.184.111.3.3.479.406a3.841,3.841,0,0,0,.59.221,1.545,1.545,0,0,1,.553.148c.148.074.258.258.406.332s.221.3.332.479a1.255,1.255,0,0,0-.369.037c.037.074.074.184.148.184a13.062,13.062,0,0,0,1.254.59,2.915,2.915,0,0,1,1.18,1.143c-.516.148-.848-.3-1.254-.221-.111.148,0,.184.074.258.369.3.738.553,1.106.848.221.148.406.332.59.479-.037.148-.037.221-.074.332a4.422,4.422,0,0,1,.443.406c-.111.074-.184.148-.258.184.111.148.332.332.332.479,0,.3.221.258.369.369s-.037.184,0,.258c.037.369-.037.738.332,1a.656.656,0,0,1,.258.3,4.383,4.383,0,0,0,1.033,1.438c-.332-.148-.516-.221-.811-.332.148.59.553.885.811,1.328a2.583,2.583,0,0,0-.369.3c-.111.406.148.885-.221,1.291.111.184.221.406.332.627a.715.715,0,0,1,.111.664c-.074.148.037.332.074.553-.332,0-.7-.184-.738.369-.221-.074-.406-.184-.59-.258-.3.037-.3.332-.443.516-.111-.037-.184-.111-.3-.148l-.553.516c-.074.111-.184.184-.258.3-.369-.074-.738-.184-1.106-.258-.111.184.074.479-.221.59-.258.074-.516.184-.738-.037-.037-.037-.148-.074-.258-.148a.912.912,0,0,1-.148.332.663.663,0,0,1-.332.148,9.56,9.56,0,0,0-1.77-.148,1.022,1.022,0,0,1-.332-.037,15.8,15.8,0,0,1-2.139-.959,1.733,1.733,0,0,0-.332-.221,4.243,4.243,0,0,1-1.475-.959c-.258-.184-.443-.443-.811-.479-.148,0-.258-.221-.406-.369-.258-.258-.443-.627-.922-.553-.111,0-.221-.148-.3-.221-.332-.3-.627-.59-.922-.885-.111-.111-.258-.184-.369-.3-.221.074-.148.221-.148.332.037.221.074.479.148.848a3.364,3.364,0,0,0-.369-.369c-.111-.111-.258-.258-.406-.258-.627,0-.885-.443-1.143-.885-.074-.111-.111-.258-.184-.369a1.228,1.228,0,0,0-.516-.627.952.952,0,0,1-.332-.332c-.184-.258-.3-.479-.7-.406a.664.664,0,0,1-.553-.258c-.443-.516-1.143-.664-1.549-1.217a2.706,2.706,0,0,0-.479-.369,3.907,3.907,0,0,0-.369.443,4.486,4.486,0,0,1-.627-.553c-.148-.184-.258-.443-.406-.664-.221,0-.148.221-.258.3-.111-.037-.221-.074-.406-.148.037.184.037.332.074.479l-.037.037-.775-.221c-.111-.332-.258-.664-.332-1-.037-.3.111-.627-.074-1a3.184,3.184,0,0,0-.553.037,1.326,1.326,0,0,0-1.106-.775c-.074-.3-.148-.627-.221-.959h-.479v-1a1.852,1.852,0,0,0-.443-.074,2.122,2.122,0,0,1-.479-1.143,4.421,4.421,0,0,0-1.07-1.844c-.184-.258-.369-.627-.775-.627-.3-.332-.59-.627-.848-.959a.4.4,0,0,1-.074-.3,11.455,11.455,0,0,0-.148-1.18c0-.074-.111-.148-.184-.221a1.291,1.291,0,0,1-.184-1.254,2.256,2.256,0,0,0,.184-.443.448.448,0,0,0-.184-.59.743.743,0,0,1-.3-.848.868.868,0,0,0-.184-.59.732.732,0,0,1-.111-.811c-.479-.148-.848-.3-1.328-.443a2.1,2.1,0,0,0,.406-.406c.111-.111.184-.258.3-.369a.406.406,0,0,0,.111-.516,1.415,1.415,0,0,0-.738-.959c-.111-.443.037-.848-.258-1.217-.074-.111,0-.369,0-.59-.184-.074-.406-.184-.627-.3a1.755,1.755,0,0,0,.258-1.217,4.512,4.512,0,0,1,.111-.627c.037-.148.074-.332.037-.369-.3-.258-.221-.516-.037-.775-.074-.479.258-.775.516-1.07a.647.647,0,0,0,.184-.59c-.037-.148.111-.332.221-.479a8.1,8.1,0,0,1,.627-.922,3.223,3.223,0,0,1,.3-.369,4.62,4.62,0,0,0,.848-.848c.111-.184.332-.258.516-.369.3-.148.627-.3.922-.443-.074-.332-.074-.332.221-.664-.184-.111-.369-.184-.553-.3.037-.148.3-.258.184-.479a1.088,1.088,0,0,0,.479-.516,1.189,1.189,0,0,1,.516-.3c.148-.369.3-.7.479-1.106a2.438,2.438,0,0,0,1.7-.074,1.341,1.341,0,0,0,.811-.738c0-.037.037-.037.037-.074,0-.553.553-.775.738-1.18a2.022,2.022,0,0,1,1.033-.959c.037,0,.037-.037.074-.111,0-.111-.074-.3-.037-.406.037-.148.184-.258.3-.369a1.852,1.852,0,0,0,.848-1.291c.037-.184.221-.332.369-.516.184-.221.443-.406.406-.775h-.479a8.293,8.293,0,0,0,.443-.775,6.826,6.826,0,0,0,.406-.885,3.079,3.079,0,0,0-.443-.3c.074-.406-.037-.848.479-1.033-.221-.184-.3-.148-.369,0h0a.911.911,0,0,1,.148-.332,4.025,4.025,0,0,1,.627-.479,2.513,2.513,0,0,0,.627-.627,3.559,3.559,0,0,1-.443.074c-.074.037-.148.037-.221.074,0-.074-.037-.111,0-.148.258-.3.516-.627.775-.922,0-.184-.221-.3-.037-.479.111-.148.184-.332.3-.479-.111-.111-.3-.148-.258-.406.037-.148-.111-.332-.184-.553.406-.406.258-1.07.406-1.623.037-.111-.037-.258-.074-.369a.781.781,0,0,1,0-.7c.074-.184.148-.406-.074-.553a1.374,1.374,0,0,0-.332-1.18c.111-.369-.111-.738.111-1.07.184-.258.332-.553.516-.848-.148-.037-.3-.074-.406-.111v.037c.074-.148.111-.3.184-.443-.184-.037-.369-.111-.553-.148a1.85,1.85,0,0,0-.111-.848,1.018,1.018,0,0,1,.037-.922,1.172,1.172,0,0,0,.148-1,3.57,3.57,0,0,1,.074-1.07.566.566,0,0,1-.148-1,2.926,2.926,0,0,1-.3-.59,1.529,1.529,0,0,1-.074-.59c.221-.258.406-.516.627-.811a.833.833,0,0,0-.3-.406c-.111-.148-.406-.148-.59-.184-.258-.074-.553,0-.775-.221a3.591,3.591,0,0,1,.553-.885s-.074-.111-.111-.184v.037a1.1,1.1,0,0,0-.148-.3h0c-.037-.332.332-.406.443-.627a2.7,2.7,0,0,1,.59-1.844,4.8,4.8,0,0,1-.553-.111v-.148c.037-.074.111-.111.184-.184.3-.184.258-.479.258-.738v-.627c-.074,0-.184-.037-.332-.037a.757.757,0,0,0,.184-.627c-.037-.148.111-.406.184-.59a1.562,1.562,0,0,1,.148-.443.716.716,0,0,0,.184-.59c-.074-.3.111-.443.258-.627-.111-.148-.184-.258-.3-.406a3.768,3.768,0,0,1,.775-1.4c.148-.111.184-.369.221-.59a1.1,1.1,0,0,1,.369-.775.263.263,0,0,0,.111-.221,4.806,4.806,0,0,1,.664-1.549,1.166,1.166,0,0,0,.074-.922.758.758,0,0,1-.037-.738,3.185,3.185,0,0,1,.516-1.07,1.915,1.915,0,0,0,.406-.922,9.188,9.188,0,0,1,.516-1.623,4.756,4.756,0,0,0-.221-.443,8.985,8.985,0,0,1,.7-1.623,3.457,3.457,0,0,0,.332-2.176.843.843,0,0,1,.148-1.107c.258-.3.074-.664.3-.959a.112.112,0,0,0,0-.148c-.3-.3-.111-.59.037-.885-.369-.516-.221-1.106-.3-1.66a.768.768,0,0,1,.111-.479,8.829,8.829,0,0,0,.7-2.176c.148-.074.258-.148.406-.221.221-.111.406-.221.443-.516,0-.148.148-.258.258-.406l.369-.369c-.148-.111-.332-.184-.369-.3-.037-.184-.184-.184-.332-.221a2.188,2.188,0,0,1,.922-1.07,1.506,1.506,0,0,1,.516-1.475c.258-.258.516-.553.3-1,.111-.369.221-.7.332-1.07-.074-.148-.184-.3-.3-.479.148-.111.258-.221.406-.332-.332-.3.258-.406.111-.664l.516-.516c-.037-.3-.369-.148-.516-.406.074-.221-.074-.553.148-.848.184-.221-.037-.59.258-.811.111-.074.074-.221.037-.369a.951.951,0,0,1,.258-.811c.406-.332.332-.885.553-1.291.037-.074-.111-.258-.221-.479.074-.148.443-.332.221-.664,0-.037.074-.111.111-.184s.148-.184.148-.258a2.739,2.739,0,0,1,.738-1.807,1.808,1.808,0,0,0,.332-1.033c0-.221-.074-.406.111-.59.074-.074,0-.258,0-.443a1.393,1.393,0,0,1,.443-.332c.258-.111.3-.258.3-.516,0-.111-.037-.221.037-.3.443-.479.664-1.143,1.291-1.512.184-.111.258-.369.406-.553a2.188,2.188,0,0,0-.148-.3,4.2,4.2,0,0,0,.553-.221c-.332-.111-.516-.184-.738-.258a4.005,4.005,0,0,1,.959-.811.817.817,0,0,0,.369-.738.651.651,0,0,1,.516-.775,1.494,1.494,0,0,0,.332-.184c0-.258-.221-.148-.3-.258a.222.222,0,0,1,.037-.148c.037-.074.148-.074.184-.148a2.351,2.351,0,0,1,.3-.516,2.721,2.721,0,0,1,.479-.3,3.227,3.227,0,0,1-.369-.3,2.14,2.14,0,0,1,.553-.59c.406-.148.406-.627.775-.738.111-.221.184-.479.3-.7-.111-.074-.221-.184-.443-.332.369-.074.664-.111.922-.184.184-.037.258-.184.148-.406-.3-.074-.59-.184-1.033-.332.516-.074.959,0,1-.553a2,2,0,0,0,1.365-.406,6.3,6.3,0,0,0-.406-.516c.037-.148.406-.184.184-.516.406-.221.848-.369,1-.885l-.221-.221c.184-.184.369-.332.59-.516a1.6,1.6,0,0,0-.221-.258c.037-.037.037-.074.074-.111l.553-.332a.389.389,0,0,0,.074-.184c.037,0,.074-.037.148-.037-.037.037-.074.037-.111.074-.184.037-.369.037-.553.074-.037-.148.074-.148.148-.184a3.719,3.719,0,0,1,.664-.332c.3-.074.221-.406.443-.516.184-.148.332-.332.516-.479a6.308,6.308,0,0,1,.516-.406c-.111-.111-.184-.221-.3-.332.221-.184.406-.332.627-.516,0-.184-.037-.406-.037-.59.369-.184.7-.369,1.07-.516v-.074c0-.037-.037-.037-.074-.037h0c.111-.148.258-.3.406-.479-.148-.037-.3-.074-.406-.111.037-.074.037-.148.074-.184l-.221-.111c.516-.258,1.07-.479,1.586-.738a1.285,1.285,0,0,0,.479-.516.936.936,0,0,1,.516-.479c.479-.258.959-.479,1.4-.738a.674.674,0,0,0,.221-.3c-.221-.037-.406-.111-.627-.148l.738-.369c0-.148-.037-.258-.037-.443.111-.037.221-.148.332-.148a3.192,3.192,0,0,0,1.254-.553,1.3,1.3,0,0,1,.479-.3,1.419,1.419,0,0,0,.885-.627,4.38,4.38,0,0,1,1.328-1.143c.443-.332.443-.332.3-.959.184-.037.369-.037.553-.074a.537.537,0,0,0,.479-.258c.074-.111.221-.111.332-.184s.332.037.332-.221c0-.074.111-.148.184-.258l-.221-.111V179.2c.037-.037.111-.037.148-.074a1.642,1.642,0,0,1,1.254-.221,1.561,1.561,0,0,0-.148-.443c-.074-.148-.3-.148-.332-.332q.443-.055.775-.111c.221-.443.406-.848.627-1.254-.258-.258-.553-.111-.848-.184.037-.221.221-.332.369-.479-.037.148-.037.258.148.332a.625.625,0,0,0,.664-.148c-.037.221-.074.406-.111.627a2.494,2.494,0,0,1,1.328.959c-.111.553-.221,1.143-.369,1.7v.443h.037c0-.148-.037-.3-.037-.443a.9.9,0,0,1,.184.738c-.074.516-.184,1.07-.221,1.586a22,22,0,0,0-.184,2.324c.443-1.955.553-3.873,1-5.717a2.189,2.189,0,0,1,0,.848c-.074.664-.184,1.328-.221,1.992-.111,1.918-.221,3.8-.332,5.717a1.568,1.568,0,0,1-.074.406v.406h.074c-.037-.148-.037-.258-.074-.406.074-.111.184-.221.184-.332.148-1.4.3-2.84.406-4.242.111-1.328.221-2.619.332-3.946a.826.826,0,0,1,.221-.627q.5,3.209,1,6.307a45.108,45.108,0,0,0,1.291,6.2,1.786,1.786,0,0,0,0-.627l-.664-4.315-.775-5.09c0-.111-.148-.3.111-.406.074.184.148.369.221.516.221.479.443,1,.664,1.475.074.184.148.406.406.479,0,.184.037.332.037.516.037,0,.037.037.074.037-.037,0-.037-.037-.074-.037.037-.184.074-.332-.037-.479a7.39,7.39,0,0,0-.369-.959,26.972,26.972,0,0,1-1.328-3.393,1.655,1.655,0,0,1-.037-.406c.332-.332.664-.221,1-.221a1.064,1.064,0,0,1,1.106.627,1.413,1.413,0,0,0,.775.627,4.382,4.382,0,0,1,1.07.664.649.649,0,0,0,.479.221,1.459,1.459,0,0,1,1.254.627,1.554,1.554,0,0,1,1.549-.074c.111.074.258,0,.406,0a2.084,2.084,0,0,1,.479,0,1.6,1.6,0,0,0,.922-.184c.738.3.738.3,1.143,1,.369.664.775,1.291,1.143,1.955.037.074.074.221.258.148a1.543,1.543,0,0,0-.148-.369c-.332-.627-.664-1.291-1.033-1.918-.074-.184-.184-.332-.258-.516a.384.384,0,0,1,.221-.479c.111-.037.258-.074.369-.111a3.533,3.533,0,0,0,1.18-.443c.3.074.406-.332.627-.258.443.148.664-.369,1.106-.3.111.037.221-.221.369-.258a.936.936,0,0,1,.443.074c.037-.258-.3-.332-.258-.553h.258c.037-.148.111-.3.148-.406a2.646,2.646,0,0,1,2.656.811c.59.59,1.254,1.18,1.881,1.733.074.074.111.258.332.111-.516-.516-1.033-1.07-1.549-1.549-.443-.406-.885-.775-1.328-1.18a1.444,1.444,0,0,1-.3-.369c-.037-.037,0-.148.037-.221a.491.491,0,0,1,.184-.111,3.109,3.109,0,0,1,.516.221,1.949,1.949,0,0,0,.037-.443,6,6,0,0,1,1.438.479,45.092,45.092,0,0,1,6.233,3.873c1.844,1.438,3.688,2.877,5.5,4.352.184.148.332.369.627.332.148.443.553.59.885.811-.443-.59-.443-.59-.885-.811,0-.258-.221-.369-.369-.516-.738-.664-1.475-1.328-2.25-1.955a38.561,38.561,0,0,0-5.311-3.91c-1.328-.775-2.692-1.586-4.057-2.36a1.606,1.606,0,0,1-.664-.479,1.4,1.4,0,0,1,.811.221c1.881.811,3.762,1.623,5.606,2.471a22.943,22.943,0,0,1,2.545,1.217c2.213,1.217,4.352,2.582,6.454,3.983a45.483,45.483,0,0,1,4.2,3.246c.184.148.3.406.59.369a1.021,1.021,0,0,0,.627.664.388.388,0,0,0,.369.3c-.111-.148-.148-.369-.406-.258a.68.68,0,0,0-.627-.664c.037-.221-.148-.332-.3-.443a41.032,41.032,0,0,0-4.315-3.651l-.553-.443a8.872,8.872,0,0,1,2.656,1.291,3.808,3.808,0,0,0,1.217.775.687.687,0,0,0,.443.332.862.862,0,0,0-.258-.258.468.468,0,0,0-.221-.037c0-.111-.037-.221-.037-.406l1.992.885c.148.037.3.037.443.074-.074.111-.037.221.111.258H204c0-.037.037-.111,0-.111a.368.368,0,0,0-.184-.148c-.148-.037-.3-.037-.443-.074-.037-.111,0-.221-.074-.3a2.09,2.09,0,0,0-.479-.3,16.291,16.291,0,0,1-4.131-2.324,55.966,55.966,0,0,0-5.864-4.168,43.917,43.917,0,0,0-7.229-3.578,3.857,3.857,0,0,1-1.7-1.143,3.858,3.858,0,0,0,.627.148,10.479,10.479,0,0,0,1.512.037,2.164,2.164,0,0,1,.848.148c.848.369,1.733.738,2.582,1.18a58.04,58.04,0,0,1,8.409,5.532c1.143.885,2.25,1.844,3.393,2.766.148.111.258.3.479.258a32.687,32.687,0,0,0-4.426-4.094,52.12,52.12,0,0,0-4.979-3.467c-1.733-1.033-3.541-1.918-5.348-2.8.074-.184.148-.3.221-.516a4.459,4.459,0,0,1-2.508-.369c-.3-.111-.627-.184-.922-.3a64.5,64.5,0,0,0-6.528-1.512,1.787,1.787,0,0,0-.627,0c-.074,0-.111.074-.221.111.3.3.775.148,1.033.479-1.254-.111-2.471-.184-3.725-.3a3.278,3.278,0,0,0,1.143.3c1.807.221,3.614.479,5.422.885a21.744,21.744,0,0,0,3.8.811c.148,0,.332.037.369.221-.184.148-.221.443-.553.406a1.494,1.494,0,0,1-.332.184,1.522,1.522,0,0,1-1-.184l-3.762-1.217c-.111-.037-.258-.037-.443-.074a1.215,1.215,0,0,0,.738.443,36.551,36.551,0,0,1,4.315,1.77.525.525,0,0,0,.221.074,12.8,12.8,0,0,1,2.8,1.033,53.33,53.33,0,0,1,7.266,3.983c.885.553,1.733,1.18,2.619,1.733a.578.578,0,0,1,.332.516v.037c-.148-.3-.479-.332-.7-.479-.811-.443-1.7-.848-2.471-1.328A77.285,77.285,0,0,0,185,176.585a11.4,11.4,0,0,1-1.18-.516,7.733,7.733,0,0,1-1.106-.811,2.271,2.271,0,0,1-1.4-.221c-.258-.111-.479-.221-.738-.332h0c.074.074.111.184.184.258a10.918,10.918,0,0,0,1.844.959c.738.258,1.4.664,2.1.959.184.074.369.148.406.332h0a7.431,7.431,0,0,1-.848-.258c-1.66-.664-3.319-1.365-5.053-1.918-.59-.184-1.18-.3-1.807-.443-.037,0-.074.037-.184.074.184.111.369.184.516.258.664.332,1.365.627,2.029.959a3.5,3.5,0,0,1,.627.369c.074.037.074.184.074.3-.037.074-.184.221-.184.184-.221-.111-.332.111-.479.111a3.108,3.108,0,0,1-.516-.221,6.067,6.067,0,0,1-.811-.516c-1.918-1.217-3.946-2.324-5.975-3.356a4.923,4.923,0,0,0-.664-.258c-.074-.037-.184.037-.406.111,1.4.7,2.729,1.365,3.983,2.029a15.341,15.341,0,0,1,3.762,2.324c-.221.074-.443.111-.553.369-.037.148-.221.221-.332.332a.508.508,0,0,1-.664.074l-.332-.221c-.516-.369-1.07-.738-1.586-1.106a18.834,18.834,0,0,0-3.614-1.918c-.074-.037-.184-.111-.332.074.369.221.738.406,1.106.627,1.254.664,2.434,1.365,3.614,2.139a7.481,7.481,0,0,1,.848.664,1.764,1.764,0,0,0-.443.184.456.456,0,0,1-.516.148c-.037,0-.184.037-.184.074-.074.3-.3.369-.516.443a12.48,12.48,0,0,1-1.254.3c-.3-.258-.443.148-.664.184a20.193,20.193,0,0,0-1.807-2.176c.332.738.885,1.328,1.254,2.1-.184.074-.3.184-.406.148-.479-.111-1.033.074-1.475-.221a.732.732,0,0,0-.775,0,1.307,1.307,0,0,1-.406.111,1.433,1.433,0,0,0-1.18-.59.655.655,0,0,1-.369-.148,3.794,3.794,0,0,0-1.143-.738,1.12,1.12,0,0,1-.258-.184c-.258-.258-.59-.406-.775-.738a.954.954,0,0,0-.627-.332,3.715,3.715,0,0,0-1.106-.037,2.35,2.35,0,0,1-1.844-.406c-.3-.221-.627-.406-.922-.627-.3-.406-.3-.406-.664-.148a2.045,2.045,0,0,0-.3.221c.111-.184.221-.332.332-.516A5.938,5.938,0,0,0,160,173.192a8.871,8.871,0,0,0-.885-.775c-.037-.037-.184.037-.3.037h0a.661.661,0,0,0-.148-.516,7.2,7.2,0,0,1-.627-.848,2.42,2.42,0,0,1-.443-1.106l.443-.221c-.037-.258-.3-.184-.443-.3a1.377,1.377,0,0,1,.037-1.143c.221-.59.479-1.18.7-1.807a11.994,11.994,0,0,0,.406-1.549,17.587,17.587,0,0,1,.479-1.881,1.065,1.065,0,0,0-.111-1,1.362,1.362,0,0,1-.369-1.106c.037-.111-.074-.258-.111-.369-.148-.479-.074-.775.369-1,.037-.037.111,0,.148-.037a.509.509,0,0,1,.148-.111,2.133,2.133,0,0,1-.184-.516c-.037-.111-.111-.3-.037-.369.258-.3.074-.553-.037-.811-.037-.111-.111-.258-.148-.406a1.447,1.447,0,0,0,.3-.516c.037-.184-.074-.406-.074-.627-.074-.516-.074-1.033-.148-1.512-.037-.258.184-.369.258-.553a2.162,2.162,0,0,0-.959-1.438.422.422,0,0,1-.221-.479,3.374,3.374,0,0,0-.59-.037c-.3-.037-.664.111-.811-.3-.221-.037-.406-.074-.664-.111.221-.037.406-.074.59-.111.111-.184.258-.332.406-.553a10.528,10.528,0,0,0-2.987-.479c.811-.148,1.66.074,2.508-.111-.148-.332-.258-.59-.369-.848-.074-.221-.111-.406.148-.553.184-.148.148-.148.184-.59a3.011,3.011,0,0,0-.959-.516,4.1,4.1,0,0,1-.59-.258.422.422,0,0,1-.221-.479h0a.8.8,0,0,0,.148.184c.59.3,1.18.553,1.807.885a.437.437,0,0,0-.074-.516c-.111-.111-.3-.184-.258-.369h0c.258.111.479.184.738.3.332.148.553.074.811-.258-.148-.516-.627-.775-.959-1.106a4.263,4.263,0,0,1-.959-1.033c.184.148.369.258.553.406.369.3.7.553,1.07.848a.452.452,0,0,0,.59.074c-.184-.516-.369-.738-1.7-2.1-.627-.627-1.217-1.254-1.844-1.881.148-.074.184.037.258.111.811.811,1.623,1.623,2.471,2.434a8.209,8.209,0,0,0,.885.7c.074.074.184.074.332.111.037-.553.332-1,0-1.512.3-.074.332.148.479.258a5.393,5.393,0,0,0,.479.332c.184-.3-.184-.443-.074-.664.111-.037.184-.074.3-.111a16.85,16.85,0,0,0-.885-2.4c-.221-.553-.479-1.07-.738-1.623a2.079,2.079,0,0,1-.148-.443h0c.258.074.3.3.369.479l1,2.1a3.052,3.052,0,0,0,.775,1.07c.221-.332-.148-.59-.037-1a1.009,1.009,0,0,0,.369-1.033c.184.074.258.074.332.111a.648.648,0,0,1,.184.148c.037-.037.111-.074.111-.111-.074-.406-.111-.775-.221-1.254.221.074.406.111.59.184.037-.479.074-.922.111-1.365-.184-.148-.332-.258-.516-.406.184-.258.332-.479.516-.7-.111-.332-.221-.664-.332-1.033.3-.074.553-.148.848-.221a4.473,4.473,0,0,1-.184-.516h.811a2,2,0,0,1,.148-.553,1.838,1.838,0,0,1,.369-.406h0c.3-.111.627.148.922-.111-.148-.406-.664-.332-.922-.7a2.025,2.025,0,0,1,.479-.922,1.222,1.222,0,0,0,.332-1.033h.59c.184-.3-.111-.406-.111-.664.037-.037.184-.074.221-.148.074-.221.148-.479-.074-.664-.148-.148-.332-.3-.479-.443-.221-.221-.406-.443-.59-.627-.221-.221-.479-.443-.738-.664a4.791,4.791,0,0,1-.111-.553l.443-.332a2.681,2.681,0,0,1-.332-.3c.184-.184.443-.369.443-.7-.184-.332-.7-.3-.811-.775.111-.111.221-.184.369-.332-.148-.111-.258-.258-.406-.369.037-.111.074-.221.111-.369-.037-.037-.037-.111-.074-.148a1.732,1.732,0,0,1-.332-.221.929.929,0,0,1-.332-1.106l-.775-.443a5.5,5.5,0,0,1-.074-.775c-.221-.148-.479-.258-.738-.406-.037-.148-.037-.332-.074-.553-.258,0-.479-.037-.738-.037a4.585,4.585,0,0,0,.148-.59c-.074-.074-.111-.111-.148-.111-.3,0-.59.037-.885.037-.184,0-.369.074-.664.111.369-.406.811-.479,1.07-.7.037-.258-.184-.332-.332-.406a.961.961,0,0,1-.627-.848c0-.148-.148-.258-.258-.369-.148-.184-.406-.258-.258-.59V118.5c-.443-.332-.369-.922-.59-1.365a10.14,10.14,0,0,1-.553-1.328,4.953,4.953,0,0,1-.258-1,2.27,2.27,0,0,1,.074-.7c.074-.369.148-.738.184-1.106q.664.111,1.217.221c.111.037.221.148.332.184a1.154,1.154,0,0,0,.369.184,14.058,14.058,0,0,1,2.914.922,10.59,10.59,0,0,1,1.623.627c.553-.111.885.406,1.4.479a7.811,7.811,0,0,1,1.512.443,2.046,2.046,0,0,0,.221-.3c.7.553.7.553,1.365.3a2.891,2.891,0,0,0,1.881.848,1.955,1.955,0,0,0,1.217.775,1.114,1.114,0,0,1,.811.479.656.656,0,0,0,.3.258,5.179,5.179,0,0,0,1.512.479,1.283,1.283,0,0,1,1,.406,1.114,1.114,0,0,0,.885.332,2.482,2.482,0,0,0,.738.037c.479-.111.738.221,1.033.479a.419.419,0,0,1,.111.3c.037.148-.037.3,0,.406.111.332-.111.627-.037.959.074.3.221.59.3.922.037.258.3.443.148.775-.111.258.111.479.148.738a4.829,4.829,0,0,0,.221,1,3.909,3.909,0,0,0,.406.775c.184-.3.221-.369.148-.553-.332-.553-.221-1.18-.443-1.77-.037-.111.111-.3.111-.443a2.079,2.079,0,0,0-.148-.443,2.114,2.114,0,0,0-.148-.516,1.344,1.344,0,0,1-.074-.553c.074-.59.184-1.217.221-1.807a2.184,2.184,0,0,1,1.328-2.176,2.027,2.027,0,0,0,.664-.479,1.515,1.515,0,0,1,1.07-.479,11.263,11.263,0,0,1,2.729,0,3.124,3.124,0,0,1,.627.148c.959.369,1.955.7,2.951,1a9.324,9.324,0,0,1,1.365.664c.516.258,1.07.479,1.586.7a.741.741,0,0,1,.3.148,4.736,4.736,0,0,0,1.475,1.07.8.8,0,0,1,.184.148c.148.516.627.775.885,1.217a9.457,9.457,0,0,0,.811,1.291,1.954,1.954,0,0,1,.553,1.217.455.455,0,0,0,.148.3c.369.406.332,1,.59,1.438.037.074.074.258.037.3-.184.221-.111.369,0,.59a1.121,1.121,0,0,1-.148,1.4c-.111.148-.221.258-.148.479.037.074-.074.184-.111.258a2.256,2.256,0,0,1-.221.148c-.037.406.258.553.443.775.221.037.258.148.221.332-.037.148-.3.221-.074.443a2.672,2.672,0,0,0,.332-.184.549.549,0,0,0,.148-.332c0-.184-.148-.258-.332-.3-.111,0-.221.037-.3.037.184-.184,0-.406.037-.627a1.5,1.5,0,0,0,.332-.184.3.3,0,0,0,.148-.332.444.444,0,0,1,.074-.3c.332-.258.369-.7.553-1.106a.9.9,0,0,1-.221-.848c.148-.3.037-.479-.074-.738a6.576,6.576,0,0,0-.516-1.328c-.111-.148-.074-.406-.074-.627a.9.9,0,0,0-.221-.59,7.123,7.123,0,0,1-.811-1.328c.184-.258.406-.148.627-.148a1.6,1.6,0,0,0,.148.258h1a4.462,4.462,0,0,1,.7.037c.332.037.369.258.332.553.184,0,.369.037.553.037a1,1,0,0,1,.332,0,1.532,1.532,0,0,0,1.586-.074l.885.221c-.074.3-.516.258-.479.59-.074,0-.111,0-.148.037l.037.037c.037-.037.074-.037.111-.074a2.244,2.244,0,0,1,.848-.111,1.331,1.331,0,0,0,.627-.111.525.525,0,0,1,.59.184h0c-.074.037-.111.074-.184.111.074.037.111.074.184.074h0c-.037.074-.111.111-.148.184a.941.941,0,0,0,.553,0c.148.074.111.332.332.332a3.073,3.073,0,0,1,.553.148c.184,0,.369-.037.553-.037.184-.037.332-.074.553-.111a1.8,1.8,0,0,1-.111.258c.3.221.627-.111.885.074,0,.258-.369.184-.406.479a2.015,2.015,0,0,0,.664.037h0a3.6,3.6,0,0,0-.221.516c.332,0,.627-.037.922-.037a1.542,1.542,0,0,0,.148.369h.959c-.443.184-.7.3-1.033.443.258.074.369.148.516.184.479.148.959.3,1.438.479a1.655,1.655,0,0,1,.479.406,3.826,3.826,0,0,0-.148.369c.406.221.922.074,1.328.479-.184.111-.332.184-.479.258.074.332.221.516.516.553a4.911,4.911,0,0,1,.7.184c.184.074.406.111.479.258a1.561,1.561,0,0,0,1.106.59c-.221.184-.369.258-.516.406a5.516,5.516,0,0,0,.479.406,3.324,3.324,0,0,1-.369.332.359.359,0,0,0,.406.369c.332.037.7.037,1.033.074.221,0,.406.074.59.074.148.332-.074.516-.148.738l.221.111c.074.037.184.111.184.111-.111.3.221.221.3.406-.037.148-.111.3-.148.406.332.479.885.332,1.4.369a1.205,1.205,0,0,1-.59.332c-.148.074-.332.148-.59.3a1.678,1.678,0,0,0,.406.111,10.633,10.633,0,0,0,2.176.111c.184-.037.332.037.258.332-.553.369-1.254.184-1.918.553a5.793,5.793,0,0,1,.59.111c-.037.221-.479.184-.221.553.664.148,1.475.148,2.25.258-.074.221-.332.184-.479.369.148.037.258.111.406.148-.148.111-.258.184-.406.3.074.037.074.111.111.111.627.037,1.217.037,1.881.037-.516.332-1.217.258-1.733.738.406.258.811.074,1.18.221-.037.111-.037.258-.111.332a1.413,1.413,0,0,1-.406.184c.221.184.406.332.664.516-.258.074-.479.184-.775.3.148.037.258.074.369.111.148.479-.369.479-.553.7.074.074.074.111.111.148.258,0,.59-.074.775.037a2.845,2.845,0,0,0,.7.3c.111.037.148.184.258.3-.184.111-.332.184-.553.332.479.184.959.037,1.254.443a4.326,4.326,0,0,0-.184.406h.516c-.111.221-.332.184-.479.258a6.039,6.039,0,0,0-.553.258c.3.074.479.074.811.148a6.524,6.524,0,0,0-.811.3,14.408,14.408,0,0,0,1.77.184c0,.111-.074.221-.037.3.111.148-.074.148-.074.3l.443.111v.258a1.084,1.084,0,0,0,.885-.221h0c.111.184-.111.258-.184.479.406-.148.7-.258,1-.369.406.406-.148.7-.148,1.106.332.074.443-.258.7-.3.148.111.037.221,0,.332a2.122,2.122,0,0,1-.074.369,2.718,2.718,0,0,0,.516-.148c-.074.184-.148.369-.221.516.184.148.258-.074.443-.037a2.357,2.357,0,0,1,.074.258,2.991,2.991,0,0,1,.406-.111c-.148.332-.3.627-.479.959.516-.074.738-.443,1.18-.516.221.221-.221.443,0,.664.479-.369.959-.775,1.438-1.143.148.221-.037.258-.074.332-.3.332-.59.627-.885.922a.713.713,0,0,0-.184.332,2.332,2.332,0,0,1,.959-.258c.111,0,.221-.111.332-.184.3-.184.59-.369.885-.59.037.221-.148.3-.221.406a4.211,4.211,0,0,1-.406.406c-.111.111-.258.221-.369.332s-.258.184-.443.332a1.528,1.528,0,0,0,.369.037c0,.3-.406.332-.406.664.332.111.553-.258.848-.3.037.332-.332.406-.369.664.074.148.148.074.258.037.148-.074.332-.148.59-.3-.148.258-.258.406-.443.7.369-.184.59-.332.848-.443l.037.037-.332.443a1.406,1.406,0,0,0,.369.111c0,.148-.037.3-.037.516.221-.074.406-.148.627-.221,0,.037.037.111,0,.148-.111.184-.406.221-.369.516.184-.037.332-.074.59-.111-.184.184-.3.332-.516.553a3.285,3.285,0,0,1,.406-.074h0a1.9,1.9,0,0,1,.074.406,1.732,1.732,0,0,1-.221.332c-.037,0-.111.037-.148.037.037,0,.074-.037.148-.037a8.254,8.254,0,0,1,1.918.148.562.562,0,0,1,.406.221,1.321,1.321,0,0,0,.406.148c-.516.148-1.033.258-1.549.406a.286.286,0,0,1-.037.111c.3.037.553.037.811.074a6.01,6.01,0,0,1,.406.627c-.184.111-.369.184-.59.332.332.184.59.074.848.111h.848c-.369.332-.664.553-.922.811.148.184.258.074.332.037a1.569,1.569,0,0,1,.627-.148c-.184.184-.332.369-.516.553.148.184.258.332.369.479l-.037-.037a3.828,3.828,0,0,0-.111.443c.406-.074.811-.332,1.217,0-.074.037-.148.111-.369.221.406.037.627.074.922.111-.627.369-1.291.258-1.955.7h.59a1.569,1.569,0,0,0,.406-.074c.148.148-.037.221-.037.332v.332c.258.111.516.221.848.369-.184.148-.332.221-.443.332.037.184.148.148.258.184.037.037.111.074.148.148q.055.221.111.553c.258.074.553.111.811.184a1.623,1.623,0,0,0,.074.369c-.221.074-.516.148-.811.258.738.074,1.4.369,2.1.479-.148.184-.516.148-.443.479a3.723,3.723,0,0,0-.553.258c-.037.184.074.184.184.221a1.116,1.116,0,0,1,.775.479c-.258.148-.516.332-.848.516a.83.83,0,0,0,.258.037h0a1.816,1.816,0,0,1,.074.885h-.148c.037.037.037.074.074.111.037-.037.037-.074.074-.111.074.037.148.037.3.111a4.6,4.6,0,0,1-.443.3c.221.148.406.221.59.332-.148.111-.258.184-.406.3.111.074.184.148.3.221-.037.3-.479.148-.443.479a8.007,8.007,0,0,0,.885.258c0,.3-.221.258-.332.332l-.332.221c.184.258.369-.074.516.111.111.148-.074.184-.111.332.148.258.479.184.738.3-.369.258-.885.221-1.291.516.3.258.7.369,1,.664a4.926,4.926,0,0,1-.664.258c0,.037.037.074.074.111a3.678,3.678,0,0,0,.59.074c.111.332-.184.443-.332.627.553.3.664.885,1.07,1.4a16.093,16.093,0,0,0,2.029.074c-.369.111-.59.148-.775.221-.258.074-.516.111-.775.184-.221.074-.443.184-.738.3.3.037.553.111.811.148-.037.258-.332.221-.443.332a.509.509,0,0,1,.111.148c-.221.074-.406.184-.59.258,0,.037,0,.037.037.074.221,0,.479-.037.7-.037.074,0,.184.074.184.111,0,.111,0,.258-.074.3-.184.111-.369.184-.59.3.258.258.553.184.848.258s.59.111.811.148c.111.258-.111.221-.184.369,0,.221.369.221.369.516s.406.184.59.369c-.074.148-.221.074-.332.074-.221.037-.516-.074-.59.258-.184.037-.369.074-.59.111.111.111.184.148.3.258-.148.037-.3.037-.406.074a.129.129,0,0,0,.037.074c.111.037.332.074.369.148.258.516.811.479,1.254.553a1.367,1.367,0,0,1,.848.443c-.406.037-.775.037-1.143.037a.547.547,0,0,1-.037.258c-.258.037-.516.037-.775.074-.074.184-.148.332-.221.516.221.111.479.258.738.369-.111.111-.258.184-.369.3a3.074,3.074,0,0,0,.443.3.114.114,0,0,0,.037.074c-.111.332-.479.111-.664.332v.074c0,.037.037.037.037.074.627.148,1.106.59,1.807.811-.443-.037-.738-.074-1.107-.111-.148-.037-.037.479-.332.184h-.332c.148.148.221.037.332,0a.6.6,0,0,0,.221.627,2.618,2.618,0,0,0,.516.369c-.037,0-.074.037-.111.037.037-.037.074-.037.111-.074-.037.184-.037.406-.074.664-.258.074-.516.184-.775.258-.074.221.074.258.184.332.479.221,1,.406,1.475.627.184.074.332.148.664.258-.7.111-1.18-.148-1.77-.037.221.406.738.3,1,.664h-.922c.148.332.406.369.664.479-.3.221-.664.111-1,.074s-.7-.111-1.143-.148c.332.369.775.332,1.07.553.037.184-.332,0-.258.258.037.074-.111.184-.184.332.406.369,1.106.479,1.217,1.217-.258.037-.516.074-.848.148.148.184.258.258.369.406-.221.074-.406.148-.627.221a3.239,3.239,0,0,0,.221.369h0a1.255,1.255,0,0,1-.369-.037.129.129,0,0,1-.037.074c.184.111.406.184.59.3a.259.259,0,0,0,.148.369c.369.184.738.332,1.07.516.111.074.221.111.479.258-.553-.037-.922-.258-1.328-.3-.037,0-.037,0-.074-.037a.036.036,0,0,0-.037.037h.148c-.074.111-.111.184-.184.3h0c-.111-.037-.258-.037-.443-.074a1.8,1.8,0,0,1,.148.406c.074.148.111.3.184.443-.111.074-.221.148-.369.258a.977.977,0,0,0,.221.184c.332.111.664.221.959.332.258.111.516.148.664.369h0c-.59-.148-1.18-.3-1.807-.406a1,1,0,0,0-.332,0c-.037.148-.074.258-.111.443-.184.037-.406.111-.664.184.258.111.479.184.738.3-.148.037-.3.074-.406.111,0,.184.184.111.3.184a1.326,1.326,0,0,0,.332.184,2.541,2.541,0,0,1-.369.148c.111.479.184.959.3,1.475a21.944,21.944,0,0,1,2.213,1.217,2.236,2.236,0,0,0-1.106-.037c-.221.074-.516-.074-.775-.111-.037.258.148.3.3.369.184.111.074.258.074.443.184.074.369.148.664.258-.443.037-.738.074-1.033.111.074.369.406.184.553.369a2.8,2.8,0,0,0-.406.148,2.542,2.542,0,0,1,.111.3v.037c-.074.111-.3.074-.3.3,0,.148.111.3-.037.443-.074.074,0,.3,0,.479-.111.074-.258.148-.406.258.111.3.479.221.627.443-.074.332-.443.184-.627.369-.074.184.111.221.184.3a5.076,5.076,0,0,0,.627.3c-.184.074-.3.111-.406.148.184.221.3.443.479.627a4.627,4.627,0,0,0,.627.406,1.158,1.158,0,0,1-.738-.148h0v.406c-.221.074.111.184-.074.332a2.681,2.681,0,0,0-1.217.258c.074.3.406.406.553.664a.979.979,0,0,1-.184.221c.037.184.443.148.3.479-.037.037.111.148.184.221s.184.148.369.3a9.209,9.209,0,0,0-.922.3c0,.184.221.111.3.221-.074.074-.184.111-.258.184.037.074.111.111.184.221a5.4,5.4,0,0,0-.479.332c.037.037.037.111.074.148.406.111.848.184,1.254.3v.037c0,.037-.037.037-.074.037-.184.111.037.148,0,.258-.406.037-.811.074-1.328.111a1.291,1.291,0,0,0,.553.332c.184.074.369.148.59.221-.111.443-.553.3-.811.516a1.34,1.34,0,0,0,.111.258c-.184.037-.369.074-.59.111.037.074.037.148.074.184.3.148.553.3.848.443a3.9,3.9,0,0,1,1.07.775,3.165,3.165,0,0,1-.479-.111c-.738-.221-1.512-.443-2.25-.627a.957.957,0,0,0-.627.074c.184.074.369.148.59.221.443.148.922.3,1.365.443.111.037.258.074.3.221h0c-.738-.074-1.475-.148-2.434-.258a2.381,2.381,0,0,0,.885.369,5.544,5.544,0,0,1,.811.221c-.3.037-.443.074-.664.111.037.184.221.111.332.148.148.037.3.074.479.111.148.037.258.037.406.074a1.9,1.9,0,0,1,.406.074c-.516.406-.516.406-1.438.479-.111.148.148.332-.037.516-.148.111-.258.221-.479.406.627.221,1.18.443,1.77.664v.111c-.369.037-.775.037-1.18.074.074.111.148.148.221.258h-.885c.184.332.479.3.7.406-.332.59-.959.406-1.586.479.184.111.258.221.369.258.516.148,1.033.258,1.549.406a1.364,1.364,0,0,1,.406.184c.111.074.184.184.3.258.074.037.184.037.443.111a4.1,4.1,0,0,1-1.07.148h-.885a3.079,3.079,0,0,0-1,.037c.3.258.553.479.811.7.074.074.184.074.3.111.221.037.479.074.738.111a2.226,2.226,0,0,0-.3.3c.221.221.516.074.848.221a4.455,4.455,0,0,1-.516.111,3.792,3.792,0,0,1-.627.037,5.987,5.987,0,0,0-.664.074c.258.148.406.221.553.3a3.719,3.719,0,0,0,.553.258,1.972,1.972,0,0,1,.516.221H236.97c.111.184.443.184.3.443.221.221.369.553.738.553.148,0,.258.111.443.221-.406.406-1,.221-1.4.59a4.945,4.945,0,0,0,1.328.406c-.775.074-1.549-.111-2.508-.111.479.443,1,.3,1.328.664h-1c-.074.221.074.258.184.3.479.184.959.332,1.438.479.258-.811.332-.738.443-.664Zm-48.095-47.874c-.074-.037-.111-.074-.184-.074v.111h.148a.036.036,0,0,0,.037-.037c.037.037.074.111.111.148.037-.037.074-.037.074-.074C190.276,172.123,190.239,172.086,190.166,172.049Zm6.786,117.471-.111-.111-.037.037c.074.037.111.037.148.074s.037.148.074.184.111,0,.184,0c0-.037,0-.111-.037-.111C197.1,289.557,197.026,289.557,196.952,289.52Zm13.278-60.6a.333.333,0,0,0,.037.184l.037-.037c-.037-.074-.074-.111-.074-.148a1.476,1.476,0,0,0-.553-.7C209.787,228.479,209.787,228.885,210.23,228.922ZM189.871,240.8c-.111.074-.258.184-.369.258l-.553.221a.641.641,0,0,0,.922-.479.222.222,0,0,0,.148.037h-.037A.136.136,0,0,1,189.871,240.8Zm25.892,24.269h.369c-.184-.184-.3-.037-.369,0a.946.946,0,0,0,.332-.664.517.517,0,0,1-.664.074c-.074-.037-.148.037-.3.037A2.812,2.812,0,0,0,215.762,265.067Zm-27.514-26.26a7.259,7.259,0,0,0,.885-.111c.074,0,.148-.111.258-.221a1.223,1.223,0,0,0-.959.037.376.376,0,0,0-.184.3.773.773,0,0,0-.7.221C187.99,239.065,187.99,239.065,188.248,238.806Zm21.871,3.467c.074-.332-.111-.516-.443-.664.037.369.406.406.443.664.443.738.553.811,1.18.811A2.363,2.363,0,0,0,210.119,242.273Zm-.443-8.889a7.383,7.383,0,0,0-.59-.516.818.818,0,0,0-.332-.037,1.768,1.768,0,0,0,.738.738.2.2,0,0,0,.184-.184,1.727,1.727,0,0,0,1.07.627,5.268,5.268,0,0,0-.553-.664.777.777,0,0,0-.479-.184C209.566,233.163,209.566,233.274,209.677,233.385Zm-19.216,30.981c-.184,0-.332-.037-.627-.037.369.406.811.406,1.143.627-.479-.074-.959-.148-1.4-.221-.111,0-.221-.037-.258.148.148.111.332.221.479.332-.148.369.184.369.332.479a1.732,1.732,0,0,1,.332.221c.037.037.037.148.074.221h0c-.074.184.074.3.184.369.148.111.369.148.332.406h0c-.148,0-.332-.221-.516,0,.184.184.369.332.553.516a2.8,2.8,0,0,1-.406.148c-.111.221.443.443-.074.664.332.443.664.885,1,1.291.074.111.221.184.111.332-.3,0-.479-.3-.848-.221a2.658,2.658,0,0,0,.738.7c.3.221.664.369.811.738-.332-.074-.553-.369-1.07-.406a9.079,9.079,0,0,0,2.1,1.4c.037,0,.074-.037.184-.111l-.332-.332-.553-.443c.332.111.664.184,1,.3a4.6,4.6,0,0,0,3.061.369c.148-.037.332-.074.443.074l-.443.3h.59a2.059,2.059,0,0,0-.184-.3,2.253,2.253,0,0,0,1.217-.332c-.258-.037-.406-.037-.553-.074a5.724,5.724,0,0,0-2.619-.111c-.221.037-.443.037-.627.074a.627.627,0,0,1-.664-.406,4.6,4.6,0,0,1,.775.074,5.066,5.066,0,0,0,1.291.074c.037,0,.111-.074.221-.184-.406-.037-.738-.111-1.217-.148.516-.221,1,0,1.4-.406a2.122,2.122,0,0,0-.369-.074,2.68,2.68,0,0,0-1.328.258,1.031,1.031,0,0,1-1.07-.148c-.258-.184-.516-.369-.811-.553-.074-.074-.184-.111-.111-.221.3.037.59.037.885.074a7.389,7.389,0,0,1,.885.148,4.221,4.221,0,0,0,2.139.111c.111-.037.258,0,.3-.184a2.182,2.182,0,0,1-.516-.221,1.192,1.192,0,0,0-.627-.111.542.542,0,0,1-.443-.148c.221-.221.627.037.775-.258.184-.332.553-.184.811-.443-.184-.037-.332-.111-.479-.148,0-.111.037-.184.037-.258-.406-.037-.775-.074-1.217-.111a3.694,3.694,0,0,0,.369-.332c-.221-.111-.443-.184-.738-.332.406-.184.7-.3.959-.443.111-.037.258-.074.221-.3-.258-.184-.7-.148-.811-.516.037-.111.3-.037.221-.332-.59-.148-1.217-.332-1.844-.516a.777.777,0,0,0-.627.111.733.733,0,0,1-.775,0,4.8,4.8,0,0,1-.664-.553c.148-.037.3-.111.148-.258a13.181,13.181,0,0,0-1.291-.369,5.452,5.452,0,0,1,.479-.3,6,6,0,0,0-.627-.406,11.994,11.994,0,0,1,3.209.7c-.406.074-.627.111-.885.148.443.111.7.59,1.143.59.037,0,.111.074.111.074.037.332.332.332.516.369.479.074.959.074,1.438.148,0-.148.037-.221.037-.332,0-.074.221-.074.111-.258-.369-.037-.738-.037-1.143-.074.148-.184,0-.3-.111-.369.406-.221.885-.111,1.254-.443-.111-.221-.406,0-.516-.184.111-.184.443-.111.406-.443-.553-.074-1.106-.148-1.66-.184a1.983,1.983,0,0,0-.775.184,1.3,1.3,0,0,1-.627.148c-.406-.074-.848-.148-1.254-.258-.148-.037-.258-.111-.258-.258h0c.037,0,.037-.037.074-.037v-.074c-.184-.111-.406-.258-.59-.369a1.386,1.386,0,0,1-.664-.553c.184,0,.369.221.59.074a1.322,1.322,0,0,0-.959-.369,3.326,3.326,0,0,1,.369.332,1.089,1.089,0,0,0-.479-.074,2.893,2.893,0,0,1-1.475-.221c-.074-.037-.184,0-.332,0,.406.443.922.516,1.328.811-.148.074-.258.111-.406.184.3.221.553.369.848.553l-.3.148A2.869,2.869,0,0,0,190.461,264.366Zm-.516-8.483c-.516-.443-1.07-.258-1.66-.221,0,.184-.037.3-.037.406.184.074.369.184.516.258a2.457,2.457,0,0,1-.443.221.708.708,0,0,1,.59.443h0a1.451,1.451,0,0,0-1.475-.148,13.333,13.333,0,0,1,1.291.479c.037,0,.037.074.037.148-.111.037-.258.037-.369.074a3.079,3.079,0,0,0,.148.443c.221.111.406.184.7.332-.258.074-.443.111-.627.148.3.332.775.221,1.07.59-.3-.037-.516-.037-.7-.074-.074,0-.221-.037-.221.184a6.517,6.517,0,0,1,.811.59,3.919,3.919,0,0,0,1.881.811l.111-.332h0c.7-.111,1.4-.221,2.287-.369-.369-.074-.59-.111-.775-.148.074-.221-.074-.3-.258-.3h-.553c-.258,0-.516.074-.811.074a.661.661,0,0,1-.516-.148c-.037-.037,0-.074,0-.148a.468.468,0,0,0,.221-.037.648.648,0,0,0,.184-.148c-.221-.258-.443-.479-.627-.738.369.074.738.184,1.07.258.037.221-.074.479.184.7.148-.221.3-.443.406-.627-.3-.516-.848-.516-1.254-.738-.148-.074-.3.037-.369.221-.037.074,0,.148-.037.221a7.81,7.81,0,0,0-.775-.406c-.074-.037-.221-.074-.148-.184h1.217c.037,0,.037-.074.074-.111-.148-.148-.516.037-.553-.332.037-.037.037-.111.074-.148.148-.221.111-.369-.111-.406h-.627c-.111-.184-.221-.332-.332-.516-.258.037-.479.074-.7.111a1.413,1.413,0,0,1,.7-.184c.184,0,.369.148.553-.037-.148-.111-.148-.184-.148-.221a4.716,4.716,0,0,0,1.254.332C190.719,255.846,190.387,255.625,189.944,255.883Zm.443-10.4c.332-.037.7-.037,1.033-.074.037-.148.074-.258.111-.406a5.168,5.168,0,0,0-2.619.037,1.21,1.21,0,0,0,.7.148,1.89,1.89,0,0,1,.775.3c-.221,0-.479-.037-.738-.037C189.908,245.63,190.166,245.519,190.387,245.482Zm3.578,15.38a7.122,7.122,0,0,0-1.733.479.45.45,0,0,0,.627.369c.479-.111.922-.221,1.4-.332.037,0,.037-.074.111-.148-.148-.037-.258-.037-.369-.074a.812.812,0,0,1-.037-.3.409.409,0,0,0,.479-.074A3.877,3.877,0,0,1,193.965,260.862Zm-2.582-25.08a5.627,5.627,0,0,1-2.545.959,8.581,8.581,0,0,0-1.328.3c-.037,0-.037.074-.111.148.258.037.516.037.848.074-.369.332-.885.148-1.217.516.7.037.664.037,1.07-.148a9,9,0,0,1,.885-.369,16.729,16.729,0,0,0,2.176-1.033c.148-.111.3-.221.221-.443.037.037.074.074.111.074a.079.079,0,0,0,.074-.074h-.184Zm.221,8.188a25.173,25.173,0,0,0-2.877.221.394.394,0,0,0,.111.184c-.074.074-.148.111-.258.221.664.074,1.217.184,1.77.221a3.471,3.471,0,0,0,1.807-.369c.037,0,0-.074.037-.148a5.386,5.386,0,0,1-1.733.074c.406-.111.7-.184,1-.3.037,0,.074-.074.148-.111.037-.037.074-.074.111-.074C191.678,243.9,191.641,243.933,191.6,243.97Zm22.535,14.458h-.074a.036.036,0,0,0-.037.037.136.136,0,0,0,.111-.037,1.4,1.4,0,0,1,0,.553.7.7,0,0,1-.221.59c.148.111.3.184.406.258-.111.184-.221.332-.369.553a5.544,5.544,0,0,1,.664.332c.074.037.111.148.184.221h-.775a2.14,2.14,0,0,0,.775.369c0,.074.037.148.037.221a9.935,9.935,0,0,0,2.1.258,2.2,2.2,0,0,0-.406-.221,2.477,2.477,0,0,1-.443-.221c-.037,0,.037-.148.037-.221a3.192,3.192,0,0,1-.627-.258c-.221-.111-.443-.184-.664-.3a.347.347,0,0,1-.074-.553,6.528,6.528,0,0,0,.59-.516c-.3-.258-.516-.479-.775-.664-.148-.111-.037-.221-.037-.332A.568.568,0,0,1,214.139,258.428Zm2.766,10.954c-.3-.074-.59-.148-.848-.184a.777.777,0,0,0-.811.258,2.681,2.681,0,0,0,.3.332l.775.553a.2.2,0,0,1,.111.148c-.037.258-.074.443-.111.7a5.672,5.672,0,0,0,1.733.59,5.544,5.544,0,0,0-.332-.664,4.48,4.48,0,0,1-.369-.516c-.074-.221.037-.479-.111-.7-.037-.074,0-.184,0-.258a3.571,3.571,0,0,1-.332-.258,3.227,3.227,0,0,1,.369-.3,3.653,3.653,0,0,0-1.77-.664A10.54,10.54,0,0,0,216.906,269.382Zm-33.453-29.359h0a3.372,3.372,0,0,1-.258.516c.406-.037.738-.074,1.07-.111.037,0,.037.037.074.074-.148.111-.369-.037-.479.221a1.346,1.346,0,0,0,1.475-.59l-.332-.111c.406-.553,1.07-.664,1.623-.922a3.084,3.084,0,0,0,.848-.443,3.032,3.032,0,0,1,1.438-.664,5.128,5.128,0,0,0,.7-.221,2.149,2.149,0,0,0,.406-.258,6.094,6.094,0,0,0-3.024.922,3.258,3.258,0,0,1-1.623.443c-.074-.148-.148-.258-.184-.258a2.159,2.159,0,0,0-.479.074c-.738.3-1.475.59-2.25.922a1.293,1.293,0,0,0-.3.184c.221.184.443-.037.627.074-.037.074-.111.184-.148.258a.456.456,0,0,1,.074.111C183.01,240.171,183.232,240.1,183.453,240.023Zm-3.356-8.188c-.148.074-.332.184-.479.258a3.366,3.366,0,0,1-.479.3,1.067,1.067,0,0,0-.406.406h.627c-.258.221-.443.406-.664.59a1.164,1.164,0,0,0,.627.406c.074,0,.184,0,.221.037.258.369.59.258.922.221.184-.037.369-.037.553-.074a2.062,2.062,0,0,0,1.4-.7c.074-.037.037-.184.074-.332h-1.475a4.2,4.2,0,0,1,1.033-.479c.332-.148.738-.111,1.143-.479-.885.074-1.586.148-2.324.221,0-.111.037-.221.037-.369-.148,0-.3.037-.406.037-.111.037-.258-.037-.406-.037.037,0,.074.037.111.037s.037-.074.037-.111c-.037,0-.037-.037-.074,0Zm3.541-63.4h-.369v.074c.111-.037.258-.037.369-.074.074.221.3.221.479.258,1.033.184,2.065.369,3.1.59a45.542,45.542,0,0,1,7.229,2.25c1.475.553,2.951,1.18,4.426,1.733h.074l.037-.037c-.037,0-.111.037-.148.037-.037-.332-.332-.406-.59-.479-1.807-.811-3.578-1.623-5.385-2.36a22.868,22.868,0,0,0-7.192-1.77C184.965,168.582,184.3,168.508,183.637,168.434ZM176.519,230.8h0c.074.148-.037.3-.148.406-.074.111-.148.221-.3.479.516-.074.922-.148,1.328-.221,0,.037,0,.037.037.074-.148.074-.332.148-.516.258.148.037.332.074.369.148a.651.651,0,0,0,.332.3c.074,0,.074.184.148.332.406-.111.811-.221,1.18-.332a.983.983,0,0,0,.516-.258c.369-.3.7-.664,1.07-1-.148-.074-.3-.111-.443-.184.221-.184.406-.332.59-.479a1.366,1.366,0,0,0,.516-.59,5.917,5.917,0,0,1-2.1.811c-.184-.258-.369-.479-.553-.7.074-.148.3-.148.221-.369-.479.111-.922.221-1.4.369a1.731,1.731,0,0,0-.332.221,1.858,1.858,0,0,1,.553-.738c.184-.184.406-.332.479-.59a1.6,1.6,0,0,1-.184-.037v.037c-.074-.258.148-.369.258-.553.037-.074.148-.148,0-.258-.443.148-.664.627-1.254.811.258-.3.443-.443.7-.738a6.889,6.889,0,0,1-.7.184c-.111.037-.258.074-.3.037-.184-.184-.332-.074-.516-.074-.184.037-.3-.074-.332-.258.074-.148.184-.3.3-.516-.258.037-.406.037-.59.074a4.034,4.034,0,0,1-.3-.553c-.184.037-.332.037-.553.074.037-.332.074-.59.111-.848a2.481,2.481,0,0,0-.406.258c-.074-.369-.111-.664-.184-1-.3.111-.553.184-.811.3-.111-.258-.184-.479-.3-.738a2.348,2.348,0,0,0-.332.111c-.369.221-.3.59-.627.738a1.242,1.242,0,0,0-.627-1.033,4.141,4.141,0,0,1-.479.184c-.111-.148-.184-.221-.258-.332-.184.074-.3.111-.406.148a1.569,1.569,0,0,1-.074-.406,2.351,2.351,0,0,0-.885.148c-.221-.148.074-.443-.184-.553-.148.037-.3.111-.443.148a4.208,4.208,0,0,1-.406-.406c-.184.184.074.443-.184.627-.3-.332-.479-.738-.959-.959a6.252,6.252,0,0,1,.037.811,1.407,1.407,0,0,0-.479-.148,1.308,1.308,0,0,0-.406.111c-.111-.111-.148-.258-.332-.184-.037.111-.074.184-.111.3-.074-.074-.184-.111-.258-.184-.184.111-.369.184-.553.3a4.052,4.052,0,0,1-.332-.516c-.3,0-.59.184-.885.148,0,.148-.037.258-.037.406-.221,0-.406.111-.59-.037a.531.531,0,0,0-.111.074c.037.221.184.406.111.7a6.309,6.309,0,0,0-1.217-.627,1.659,1.659,0,0,1,.074.3c.074.221,0,.332-.184.332a1.076,1.076,0,0,1-.332-.074,1.887,1.887,0,0,0-.811-.111l.111.443c-.258-.037-.443-.074-.664-.111-.148.221-.258.406-.369.59.221.664.811.738,1.365.848.037,0,.111-.148.148-.221s0-.148,0-.258c.369.037.59.3.885.443.037,0,.111-.037.148-.037,0-.148.037-.258.037-.406.3,0,.59,0,.664-.369.258.037.443-.369.775-.148.074.148.184.3.258.479.221-.111.406-.221.59-.3.184.184.3,0,.443-.074s.369.111.59,0c.148-.074.406.074.59.111.221-.221-.148-.516.111-.775.3.332.553.664.885,1.033.074-.221.111-.369.148-.516a.614.614,0,0,0,.59.184c.037,0,.074.037.148.074.037.148.037.3.074.516a2.256,2.256,0,0,1,.443-.184,2.409,2.409,0,0,1,.516,0c.074.111-.074.258.074.369.111-.037.332-.111.369-.037.221.3.443.184.7.074v.369c.184-.074.3-.111.479-.184a3.41,3.41,0,0,1,.184.369c.074.148.111.258.184.443a1.565,1.565,0,0,1,.959-.738c.037.221.111.479.184.775.3-.148.59-.037.775-.258.037.037.037.074.074.074.148.3-.111.775.406.922a2.8,2.8,0,0,0,.037.516c.221-.074.332-.111.479-.148.074.221.148.406.221.627.184-.037.369-.037.59-.074a1.845,1.845,0,0,0-.184.258c-.148.3-.074.516.258.479a.848.848,0,0,1,.516.074c.148.111.369-.148.59,0-.184.221-.3.369-.479.59.258.111.332-.074.479-.148a2.832,2.832,0,0,1,.922-.516c-.184.221-.406.406-.59.627C176.409,230.692,176.372,230.8,176.519,230.8Zm-30.945.885c.332,0,.664.184.922-.258.074-.148.369-.148.59-.221.111-.037.3-.037.369-.111.148-.184.369-.184.59-.221a2.939,2.939,0,0,0,.553-.111,5.527,5.527,0,0,1,.811-.074c.7.037,1.365.074,2.065.148.037,0,.074-.037.148-.074.037-.111.037-.258.074-.369h.627c-.111-.332-.221-.59-.332-.885a10.348,10.348,0,0,1-1.512,0,7.284,7.284,0,0,0-2.029.258c-.406.406-1.07.3-1.475.738a.278.278,0,0,1-.3.037,2.54,2.54,0,0,1-.479-.074,3.479,3.479,0,0,1-.111.332,2.253,2.253,0,0,0-1.586,1,1.562,1.562,0,0,1,.184.258c-.664-.184-1.106.221-1.586.553-.074.037-.074.221-.074.3a.31.31,0,0,0,.258.148,1,1,0,0,0,.738-.406c.184-.221.443-.369.627-.59.3-.037.553-.074.848-.111a.533.533,0,0,1,.074-.258Zm8.7-3.393c-.258,0-.516-.037-.811-.037a3.294,3.294,0,0,1,.184.479c-.148-.074-.258-.111-.332-.148-.148-.074-.3-.184-.443-.074-.184.148-.037.3,0,.443v.111c-.111,0-.221-.037-.3,0a.868.868,0,0,0-.3.074c.148.738.258.885.775.922l-.111-.221a.468.468,0,0,1-.037-.221c.258.037.516.184.664.111.184-.111.406-.148.59-.258-.037-.148-.037-.221-.074-.369.258.074.479.148.738.221a.771.771,0,0,0,.148-.221,1.561,1.561,0,0,0,.184-.258,2.186,2.186,0,0,1,.221.148,2.26,2.26,0,0,0,.221.148c.221,0,.074-.369.369-.258.074.037.3-.221.369-.184.258.111.332,0,.516-.184a5.078,5.078,0,0,1,.885-.516c.074-.037.111-.184.148-.332.184-.037.406-.037.627-.074a2.983,2.983,0,0,1,.59.037c.148-.332.258-.59.369-.848.258-.074.479.221.775.074-.3-.811-.922-.775-1.512-.627a1.84,1.84,0,0,1-.516.443,1.46,1.46,0,0,0-.811.664c-.184,0-.3-.184-.479,0-.3.3-.627.221-1,.111a3.371,3.371,0,0,0-.258.516c-.3-.074-.516-.148-.811-.221,0,.148.037.258.037.369-.3.037-.479.037-.627.184ZM189.5,250.609a4.2,4.2,0,0,0-1.365-.148c-.148.037-.369-.111-.516-.184-.037,0-.037-.074-.037-.111.111-.074.258-.148.479-.3a2.458,2.458,0,0,0-.7-.221,3.313,3.313,0,0,0-1.365.516,4.477,4.477,0,0,0,.664.037.079.079,0,0,1,.074.074c-.111.221-.479.074-.553.369.148.074.258.184.406.258-.074.111-.148.184-.184.258.148.111.3.184.479.332-.221.037-.406.074-.59.111.037.074.074.148.111.148a3.715,3.715,0,0,0,2.176.479.79.79,0,0,1,.7.111,4.321,4.321,0,0,0,1.881.7c.037,0,.074-.037.111-.037-.111-.111-.184-.221-.332-.369h1.18c-.406-.516-1.033-.516-1.586-.885.369-.037.59-.037.885-.074-.184-.332-.479-.332-.7-.406a2.067,2.067,0,0,1-1.217-.664c.037,0,.148,0,.184-.037.037,0,.074-.111.074-.148-.074,0-.148-.037-.184,0C189.539,250.424,189.539,250.535,189.5,250.609Zm-8.557-14.716h0a1.31,1.31,0,0,0-.148.332.494.494,0,0,0,.037.184c.184-.037.406-.074.664-.148a1.608,1.608,0,0,0-.332.406,2.113,2.113,0,0,0,.258.148,1.8,1.8,0,0,1-.111.258c.184,0,.332.037.479.037-.074.148-.148.258-.221.406.221.037.406.037.627.074-.074.111-.148.148-.184.221-.074.074-.184.111-.074.3a6.927,6.927,0,0,0,3.1-.7,1.208,1.208,0,0,0,.738-.553,11.72,11.72,0,0,1-1.918.369c.148-.3.59-.184.738-.553a7.269,7.269,0,0,1-1.586.074,7.564,7.564,0,0,1,.738-.3,1.162,1.162,0,0,0,.627-.332c-.443,0-.811.258-1.291.074.184-.184.369-.332.664-.59-.406.074-.627.111-.848.148-.037,0-.074-.037-.111-.074a1.561,1.561,0,0,1,.184-.258c-.037-.184-.406-.037-.3-.369-.184-.184-.037-.332.074-.479,0-.037-.037-.074-.037-.148-.184.037-.406.074-.59.111a2.349,2.349,0,0,0-.074-.332c-1.217.184-1.623.332-2.029.738.443.074.922-.148,1.328.111.037.516-.59.443-.664.848C180.687,235.856,180.8,235.856,180.945,235.893Zm8.262,16.818c-.074-.074-.148-.184-.258-.3-.037.258.074.3.258.3,0,.074-.037.148-.037.221a8.579,8.579,0,0,0-1.143-.406c-.885-.148-1.07-.111-1.143.037,0,.037,0,.074.037.074a.806.806,0,0,1,.184.111.468.468,0,0,0-.148.258.549.549,0,0,0,.148.332c.037.074.148.074.184.148a.135.135,0,0,1,.037.111c-.111.074-.332,0-.406.221.221.3.664.406.811.848-.258.074-.516-.184-.738.074a1.651,1.651,0,0,0,1.106.59,19.943,19.943,0,0,1,2.139.258c.111,0,.3,0,.3-.037.074-.258.221-.258.406-.184a2.922,2.922,0,0,0,.885-.184,5.4,5.4,0,0,1-.479-.332c-.406-.258-.775-.553-1.18-.811-.037,0,0-.074,0-.148.111,0,.184-.037.332-.037a3.567,3.567,0,0,0-.258-.332c.221-.148.406.221.664,0A3.814,3.814,0,0,0,189.207,252.711Zm-20.544-97.149h0c-.037.148,0,.3-.037.443a11.158,11.158,0,0,1-.443,1.18.466.466,0,0,0,.037.443.473.473,0,0,0,.516.148,3.5,3.5,0,0,1,2.213-.074,1.262,1.262,0,0,0,1.438-.406,3.672,3.672,0,0,1,.406-.369,9.457,9.457,0,0,0,2.065-2.471,4,4,0,0,0,.553-1.328,9.672,9.672,0,0,0-.627.775l.037.037c.148-.443.332-.922.479-1.365a1.75,1.75,0,0,0,0-.443,11.772,11.772,0,0,0-1.365.479,1.444,1.444,0,0,0-.369.3.955.955,0,0,0-.258.406,4.336,4.336,0,0,0-.111.775c-.332-.369-.258-.922-.664-1.217H171.1c-.037.7.443,1.217.59,1.844a.978.978,0,0,1-.221.184,5.066,5.066,0,0,0,1.18,1.365.949.949,0,0,1-.664-.184,3.911,3.911,0,0,1-1.217-1.475,3.768,3.768,0,0,1-.3-2.84c-.553.3-1,.516-1.438.775-.111.074-.148.184-.258.3a1.118,1.118,0,0,0-.221.885.984.984,0,0,1-.111.848.4.4,0,0,0,0,.3.471.471,0,0,1-.074.443c-.111.148-.332.184-.258.443C168.294,155.673,168.479,155.636,168.663,155.562ZM230.626,293.54c.111.037.258.074.369.111-.037.184-.074.332-.111.516.738.148,1.365.369,1.438,1.217.221.258.3.627.738.7a2.077,2.077,0,0,0-.111-1.254c-.111-.3-.258-.59-.369-.885-.074-.221-.3-.369-.443-.553a1.327,1.327,0,0,0-.811-.332c-.184-.037-.184-.221-.074-.369.074-.074.3-.037.184-.3-.148,0-.332-.037-.516-.037a1.777,1.777,0,0,0,0-.627,1.09,1.09,0,0,0-.406-.553,2.051,2.051,0,0,1-.811-1.033c-.258-.074-.148-.406-.3-.516a1.608,1.608,0,0,1-.479-.516c-.369.037-.258-.221-.258-.443a.524.524,0,0,0-.221-.074c-.221-.037-.516.074-.59-.258,0-.037-.148-.074-.221-.074l-.775.111c-.111,0-.3,0-.369-.074a.446.446,0,0,0-.369-.111,1.255,1.255,0,0,1-.369-.037c0-.148-.037-.258-.037-.406a2.6,2.6,0,0,1-1.733-.848c0-.037-.037-.037-.074-.037a1.331,1.331,0,0,1-.738-.811c.074-.111.221-.258.221-.332a4.177,4.177,0,0,0-.479-1.18,9.848,9.848,0,0,0-1.733-1.77c-.037-.037-.111,0-.184,0a.794.794,0,0,0,0,.3c.111.443.258.885.332,1.328a1.086,1.086,0,0,0,.369.664,3.9,3.9,0,0,1,.443.369,4.345,4.345,0,0,1,1.07,1.475.573.573,0,0,1-.148.775c.148.221.184.443.369.553.553.406,1.033,1,1.77,1.033.332.037.406.3.479.516a3.459,3.459,0,0,0,1.623.074c.406-.074.7.3,1.106.369.369.553.959.922,1.217,1.549a1.534,1.534,0,0,0,.516.59C230.589,292.692,230.589,292.876,230.626,293.54ZM208.017,182.671c.037-.037.037-.074.074-.074a5.51,5.51,0,0,0-.516-.443,60.446,60.446,0,0,0-6.233-4.315,45.7,45.7,0,0,0-9.442-4.094c-1.844-.59-3.688-1.143-5.569-1.549a53.2,53.2,0,0,0-5.385-1,3.793,3.793,0,0,0-.627-.037,1.234,1.234,0,0,0-.775.111c.627.111,1.18.221,1.7.3a66.732,66.732,0,0,1,7.118,1.733c.369.111.775.184,1.18.3,1,.3,1.992.627,2.987.959a48.616,48.616,0,0,1,8,3.578c2.25,1.291,4.426,2.656,6.6,4.057C207.39,182.3,207.685,182.487,208.017,182.671Zm-19.548,64.508c-.443,0-.885.3-1.365-.037a4.025,4.025,0,0,0,.406-.221c-.148-.258-.516-.184-.7-.443h.848c-.148-.443-.664-.369-.885-.7.221-.111.406-.184.664-.3a.932.932,0,0,0-.848-.148,4.094,4.094,0,0,1-1.07.258c-.074,0-.148.111-.258.184.3.221.885.074.811.664-.258.074-.516.184-.959.332.258.074.406.111.516.148.148.037.3.074.553.148-.221.148-.369.221-.516.332.221.3.664.221.848.59h-1.143v.074c.3.111.59.184.959.332a4.755,4.755,0,0,0-.59.332,2.562,2.562,0,0,0,1.807.074,1.564,1.564,0,0,1,1.4.037c.184.074.369.111.516.184a2.636,2.636,0,0,0,2.176-.037c-.3-.037-.59-.074-.922-.111.406-.221.885,0,1.217-.332-.332-.037-.59-.074-.848-.111v-.074c.3-.037.553-.074.848-.111v-.074a4.517,4.517,0,0,0-.7-.074c.074-.184.479-.037.406-.406-.332-.037-.664-.037-1.07-.074.332-.221.775,0,1.07-.406-.258-.037-.443-.037-.627-.074-.111-.037-.3-.037-.369-.111a1.538,1.538,0,0,0-1.106-.3,2.611,2.611,0,0,0-1.18.148A.49.49,0,0,1,188.469,247.179Zm10.4,27.736a4.1,4.1,0,0,0,.59-.258c.111-.037.258-.074.184-.3-.3-.074-.59-.148-1-.221a3.84,3.84,0,0,0,.811-.922h-.3a2.588,2.588,0,0,1-1.586,0,.754.754,0,0,0-.406,0c-.369.111-.738.258-1.143.406-.074.59.553.516.848.811a6.971,6.971,0,0,0-.664.221c-.037,0-.037.074-.074.111.184.074.369.184.59.258-.074.221-.148.369-.221.553.3.037.59.037.848.074,0,.111,0,.148-.037.184a2.05,2.05,0,0,0,1.586-.479A1.8,1.8,0,0,0,198.87,274.914ZM185.592,241.13a1.765,1.765,0,0,0-1.844.627c.221.148-.037.553.3.627-.037.037-.037.111-.074.111a2.409,2.409,0,0,1-.3.258c.332.037.553.074.738.111a2.678,2.678,0,0,0,.184.443,1.763,1.763,0,0,0,1.18-.258,1.767,1.767,0,0,1,.775-.332,3.149,3.149,0,0,0,1-.332c-.3-.111-.479-.148-.664-.221-.037-.184.3-.258.148-.479a3.918,3.918,0,0,0,.332-.406c-.553.037-1.033.332-1.549.258A4.025,4.025,0,0,0,185.592,241.13Zm-1.365,40.423a1.919,1.919,0,0,0,.221,1.07,2.448,2.448,0,0,0,1.844,1.733c.59.148,1.217.3,1.807.406a12.286,12.286,0,0,0,3.283.184,1.14,1.14,0,0,0,.3-.074c-.037-.074-.037-.111-.074-.111-.59-.074-1.217-.111-1.807-.184.111-.221.406-.037.553-.221-.3-.074-.553-.111-.811-.184l-1.992-.332A4.3,4.3,0,0,1,184.633,282C184.523,281.885,184.412,281.738,184.228,281.553Zm36.919,1.033c.037-.111.074-.148.074-.221-.111-.553-.258-1.143-.406-1.7a1.562,1.562,0,0,0-.148-.443l-.885-1.328a1.4,1.4,0,0,1-.221-.479,1.873,1.873,0,0,1-.111-.627.9.9,0,0,0-.811-.811,1.1,1.1,0,0,0-.037.479,3.074,3.074,0,0,1,.148.553,1.069,1.069,0,0,0,.184.664c.111.184.074.406.184.59s.3.3.406.479a1.829,1.829,0,0,1,.111.479,2.18,2.18,0,0,0,.258.738,12.457,12.457,0,0,0,1,1.328C220.889,282.4,221.036,282.475,221.147,282.586Zm-8.557-37.325c-.184-.148-.479-.221-.553-.406-.111-.3-.369-.369-.553-.516s-.406-.258-.59-.406c.111-.184.406.037.443-.221-.369-.3-.738-.553-1.106-.811a4.03,4.03,0,0,0-.553-.3c-.037,0-.074.037-.148.037.037.111.037.184.074.3h-.479a.114.114,0,0,1-.037.074c0,.037,0,.037.037.074.369.443,1.033.7,1.143,1.365,0,.037.037.037.037.074A2.757,2.757,0,0,0,212.59,245.261Zm16.3,50.382c-.221-.184-.406-.332-.59-.479-.074-.074-.184-.111-.3.074.184.221.332.443.553.7a1.753,1.753,0,0,0,.3,1.733,1.14,1.14,0,0,1,.148.922,4.459,4.459,0,0,1-.3.922.756.756,0,0,0-.148.7c.148.037.3.074.516.148a14.47,14.47,0,0,0,.59-1.328,1.6,1.6,0,0,0-.221-1.66A1.866,1.866,0,0,1,228.892,295.642ZM162.614,170.131a.816.816,0,0,1-.775.553,6.127,6.127,0,0,0-.811.111.656.656,0,0,0-.3.258.368.368,0,0,0,.148.443,1.555,1.555,0,0,0,.922.332,1.115,1.115,0,0,1,.775-.959l.443-.221a.946.946,0,0,0,.443-.664.264.264,0,0,0-.184-.332,2.159,2.159,0,0,0-.479-.074,2.178,2.178,0,0,1-1.254-.3c-.111-.037-.184-.074-.3-.111a1.458,1.458,0,0,0-1.18-.037c-.111.037-.184.111-.111.221C162.172,169.725,162.172,169.725,162.614,170.131Zm25.707,115.406c-.037.037-.037.111-.074.148a1.292,1.292,0,0,0,.3.184c.664.148,1.365.258,2.029.406a2.688,2.688,0,0,0,2.213-.516A22.778,22.778,0,0,0,188.322,285.537Zm1.918-12.651c-.037.037-.037.074-.074.148l.221.221a8.343,8.343,0,0,0,.738.479c.037,0,.074-.037.111-.037,0-.111-.037-.184-.037-.3.516.148.959.332,1.438.443,1.07.332,1.07.332,1.475.184a8.319,8.319,0,0,0-3.467-1.512c-.037.332.406.221.369.553A5.892,5.892,0,0,0,190.239,272.886Zm3.393-10.4c-.406.258-.848.148-1.18.443.111.111.184.221.258.3l.221.111a4.175,4.175,0,0,0,2.619-.479c-.479-.258-.959,0-1.438-.184.221-.148.369-.258.553-.406-.811-.3-1.143-.258-1.549.037A4.012,4.012,0,0,0,193.633,262.485Zm-1.7-16.081c-.3-.111-.479-.148-.775-.258.258-.074.369-.111.479-.148a4.763,4.763,0,0,0,.443-.221,1.339,1.339,0,0,0-.406-.111c-.738.037-1.438.074-2.139.148-.111,0-.3,0-.3.258a2.988,2.988,0,0,0,.406.111c-.258.074-.553,0-.775.221a.824.824,0,0,0,.369.111c.59.074,1.18.111,1.77.148A1.675,1.675,0,0,0,191.936,246.4Zm18.4-1.254c.184.406.516.516.775.775.037.037,0,.074,0,.148-.111.111-.3-.148-.406.148.369.258.738.479,1.106.738.184.111.332,0,.406-.3,0-.037.037-.111.037-.148.184-.037.369-.111.59-.148-.184-.258-.3-.443-.406-.59A13.784,13.784,0,0,0,210.341,245.15Zm3.356,4.094c-.479-.221-.922-.627-1.549-.332.184.3.221.3.148.443-.184.406.074.627.332.811a1.547,1.547,0,0,0,.811.3A1.581,1.581,0,0,0,213.7,249.244Zm-21.613,29.285a1.33,1.33,0,0,0-.885-.516,1.989,1.989,0,0,1-.811-.332c-.479-.3-1-.553-1.475-.811a.114.114,0,0,0-.074.037,1.987,1.987,0,0,0,.479.775,9.538,9.538,0,0,0,2.25,1.254v-.406C191.715,278.455,191.825,278.492,192.084,278.529Zm-6.676-34.965c.369.037.184.258.3.406a6.747,6.747,0,0,0,1.918-.074c-.111-.148-.148-.258-.221-.369.221-.037.443-.074.7-.111A2.341,2.341,0,0,0,185.408,243.564Zm-.664-5.2c-.258-.148-.59.074-.7-.3,0-.037-.148-.074-.221-.074a5.518,5.518,0,0,0-1.733.3c-.111.037-.184.074-.111.258a3.276,3.276,0,0,0,1.033-.037.079.079,0,0,1,.074.074c-.111.111-.258.184-.443.332A2.816,2.816,0,0,0,184.744,238.364Zm28.178,14.716c-.111.627-.111.664.3.811a3.627,3.627,0,0,0,.59.184,1.172,1.172,0,0,0,.479-.074,7.176,7.176,0,0,1-.184-.738c.184-.148.553.074.775-.369C214.213,252.969,213.586,253.006,212.922,253.08ZM188.69,275.21c.148.221.184.332.221.369a11.37,11.37,0,0,0,2.176,1.217,5.752,5.752,0,0,0,1.7.59c-.406-.479-.516-.59-.922-.7a14.863,14.863,0,0,1-2.692-1.254A1.436,1.436,0,0,0,188.69,275.21Zm-4.057-30.723c1.586.479,2.176.553,2.914.332-.111-.148-.184-.332-.258-.443A6.553,6.553,0,0,0,184.633,244.486Zm6.123-5.5a3.534,3.534,0,0,0-2.914.738c.221,0,.332.037.479.037.664-.111,1.291-.258,1.955-.406a1.906,1.906,0,0,0,.479-.221C190.756,239.1,190.719,239.065,190.756,238.991Zm-3.946,40.2c.3.369.443.553.627.775a1.286,1.286,0,0,0,.627.516,4.672,4.672,0,0,0-1.66-2.176c.111.516-.037,1.07.443,1.549A4.483,4.483,0,0,0,186.809,279.193Zm24.306-39.833c.332-.148.627.258,1-.074a2.7,2.7,0,0,0-.848-.332,8.546,8.546,0,0,0-1.7-.221c.037.111.074.184.111.184.406.221.848.443,1.291.664A.567.567,0,0,1,211.115,239.36Zm-20.876,34.928a3.246,3.246,0,0,0,2.213,1.438A3.331,3.331,0,0,0,190.239,274.287Zm18.7-39.464a2.32,2.32,0,0,0,2.139,1.328,8.3,8.3,0,0,0-1.438-1.106A3.148,3.148,0,0,0,208.939,234.823Zm8.483,37.547c.037.443,0,.848.369,1.18.111.074,0,.332.184.369a1.851,1.851,0,0,0,.443-.074c.074,0,.111-.037.221-.037a2.061,2.061,0,0,0-.184-.3c-.258-.332-.627-.553-.738-1.033C217.717,272.406,217.533,272.406,217.422,272.37ZM209.345,237.4c.111.184.184.332.258.443.184.406.3.516.7.516a3.635,3.635,0,0,0,.627-.074c.111,0,.221-.037.184-.221C210.525,237.884,209.972,237.663,209.345,237.4Zm-17.556,23.568c.775-.074,1.365-.111,1.992-.221.111,0,.332-.037.3-.258C192.563,260.346,192.452,260.383,191.789,260.973Zm-7.266,18.995c0,.184-.037.3,0,.332a4.523,4.523,0,0,0,1.438,1.881.529.529,0,0,0,.111-.074c-.148-.406-.553-.664-.811-1A3.724,3.724,0,0,0,184.523,279.967Zm13.352-7.155c-1.217-.332-1.66-.3-1.992.148C196.546,272.886,197.21,273.181,197.874,272.812Zm-5.9,7.93c-.7-.922-1.291-1.291-1.918-1.217A18.417,18.417,0,0,0,191.973,280.742Zm-2.582-44.96c-.516.037-.922.074-1.328.111-.074,0-.148.037-.221.037a.28.28,0,0,0-.148.074c-.037,0-.037.037-.074.037,0,.037-.037.037-.074.111A1.559,1.559,0,0,0,189.391,235.782Zm3.614-104.157a2.6,2.6,0,0,1,.369-1.549.67.67,0,0,0-.627.59A.924.924,0,0,0,193.006,131.625Zm-1.7,129.458c0-.074.037-.111,0-.148a2.006,2.006,0,0,0-1.623-.479A2.727,2.727,0,0,0,191.309,261.083Zm23.9,1.66c-.332.406-.3.443.074.553.258.074.479.148.811.258A2.384,2.384,0,0,0,215.209,262.743Zm-53.664-89.7c.406.369.811.738,1.254,1.106h.074c.037,0,.037-.037.074-.074A1.6,1.6,0,0,0,161.545,173.045ZM212,241.646a7.894,7.894,0,0,0,1.033,1.18.447.447,0,0,1,.184-.037c-.332-.443-.553-.959-1.07-1.217C212.111,241.573,212.074,241.609,212,241.646Zm5.9,32.715a1.393,1.393,0,0,0,.258,1c.074.111.148.221.369.037C218.2,275.136,218.455,274.582,217.9,274.361Zm-30.022-24.933a.946.946,0,0,0-.7-.332c-.221,0-.332.074-.664.406A5.655,5.655,0,0,0,187.879,249.429Zm1.586-9.516c-.369.037-.738.037-1.106.074-.111,0-.184.111-.406.221A1.769,1.769,0,0,0,189.465,239.913Zm.406-67.274c-.3-.3-.3-.3-1.438-.332C188.654,172.6,188.654,172.6,189.871,172.639Zm-1.07,76.716a1.829,1.829,0,0,0,.738.3.808.808,0,0,0,.7-.111.129.129,0,0,0-.037-.074c-.406-.074-.848-.148-1.254-.221C188.912,249.281,188.875,249.281,188.8,249.355Zm.406-7.635a.129.129,0,0,1-.037.074l.037.037a4.447,4.447,0,0,0,.7,0,.627.627,0,0,0,.479-.443A7.638,7.638,0,0,0,189.207,241.72Zm22.5-4.758a1.5,1.5,0,0,0-1.07-.221C210.894,237.073,210.894,237.073,211.705,236.962Zm1.4,14.347c.369.148.627.59,1.106.443C213.881,251.6,213.586,251.236,213.107,251.31Zm-2.361-11.028c.369.59.443.627,1.143.7C211.41,240.687,211.3,240.208,210.746,240.282Zm-20.47,35.112c.037-.037.074-.111.111-.148-.221-.221-.479-.406-.7-.627-.074-.074-.148-.148-.258.037A5.8,5.8,0,0,0,190.276,275.394Zm25.3-9.258a.784.784,0,0,0,.516.553c.111.037.221.074.258-.074C216.02,266.21,216.02,266.21,215.578,266.136ZM193.854,132.068c-.074.59.037.811.443,1.07C194.186,132.806,194.038,132.511,193.854,132.068Zm16.339,104.747a2.653,2.653,0,0,0-.959-.664C209.492,236.741,209.566,236.778,210.193,236.815Zm-19.179,6.75a1.376,1.376,0,0,0-.885.184C190.424,243.786,190.719,243.933,191.014,243.564Zm-1.881-.516c.369.074.59.111.775-.111A.762.762,0,0,0,189.133,243.048Zm1.475-7.34a1.39,1.39,0,0,0-.922.553A1.37,1.37,0,0,0,190.608,235.708Zm-1.328-.664a4.8,4.8,0,0,0-.553.369c-.074.074-.184.148-.037.258A.917.917,0,0,0,189.281,235.044ZM214.73,252.49c-.111-.074-.111-.111-.148-.111a5.5,5.5,0,0,0-.775-.074c-.037,0-.074.037-.184.074A1.181,1.181,0,0,0,214.73,252.49Zm-5.422-22.277c.148.479.148.479.516.664C209.714,230.582,209.677,230.286,209.308,230.213Zm.59-.775c-.037-.516-.037-.516-.479-.627C209.566,229.069,209.64,229.291,209.9,229.438Zm1.623,18.368.443.111h.443A.649.649,0,0,0,211.521,247.806Zm-70.815-12.061c.406.184.553.221.664.037a3.918,3.918,0,0,0-.406-.332A2.107,2.107,0,0,1,140.706,235.745Zm90.473,60.414a.482.482,0,0,0,.516.443.129.129,0,0,0,.074-.037c-.037-.221-.221-.332-.406-.443A.276.276,0,0,1,231.179,296.159Zm-48.8-72.991c-.406.037-.406.037-.664.553C182.052,223.648,182.162,223.389,182.383,223.168Zm33.231,44.812c.148,0,.3.037.443.037.111,0,.258.184.406-.037C216.168,267.8,215.91,268.017,215.615,267.981Zm-29.986-35.407c-.148.074-.3.184-.443.258v.111C185.555,232.905,185.555,232.905,185.629,232.573Zm-3.356-8.225c.443-.037.479-.037.59-.479A.723.723,0,0,0,182.273,224.348Zm16.818,51.488c.221-.037.443-.037.664-.074C199.5,275.578,199.276,275.541,199.091,275.837Zm14.347-21.318a.724.724,0,0,0,.7.184A.7.7,0,0,0,213.439,254.518Zm-28.916,26.7c.184.443.184.443.443.627C185,281.553,184.855,281.369,184.523,281.221Zm-6.307-155.534c-.111.074-.148.074-.184.111-.037.111.074.258.258.258.037,0,.074-.037.148-.074C178.363,125.872,178.29,125.8,178.216,125.687Zm.074.664a.192.192,0,0,0-.074.148.222.222,0,0,0,.037.148.978.978,0,0,0,.221.184c.074.037.111-.184,0-.332C178.437,126.425,178.326,126.388,178.29,126.351Zm.184,1.586a.641.641,0,0,0-.406-.221c-.037,0-.074.037-.111.037.037.037.037.111.074.148C178.142,127.974,178.29,128.085,178.474,127.937Zm7.856,105.042a1.535,1.535,0,0,0-.443.221.807.807,0,0,0-.111.184C186.035,233.458,186.182,233.385,186.33,232.979Zm.922,2.692c.369-.148.369-.148.443-.369C187.51,235.376,187.289,235.339,187.252,235.671Zm-1.18-3.024c.479-.074.479-.074.59-.443A4.038,4.038,0,0,0,186.072,232.647Zm3.946,5.864c.184.148.258.037.443-.111C190.239,238.364,190.055,238.29,190.018,238.511Zm29.137,55.213-.148-.148c-.037,0-.111.074-.148.111.074.037.111.111.184.111C219.045,293.835,219.119,293.761,219.155,293.725Zm-28.363-32.051a.806.806,0,0,1-.184-.111c-.074-.037-.184-.148-.258,0Q190.461,261.84,190.793,261.674Zm19.917-26.187c-.074-.369-.184-.443-.479-.443A2.62,2.62,0,0,1,210.709,235.487Zm5.053,30.059a.284.284,0,0,0,.074.111c.111.111.221.148.332.037v-.074c-.074-.148-.184-.148-.332-.148Zm-3.319-14.569c.037.037.074.074.111.074s.074-.037.111-.074c-.037-.037-.111-.074-.148-.111A.532.532,0,0,1,212.443,250.978Zm-72.032-14.9c.148.074.332.3.443,0Zm70.778,3.983.332.221s.074,0,.074-.037.037-.111,0-.111C211.484,240.023,211.373,239.913,211.189,240.06Zm6.565,32.125c-.111-.074-.148-.148-.221-.148s-.111.037-.184.037c.037.037.074.148.148.148C217.533,272.259,217.606,272.222,217.754,272.185ZM188.285,285.02v.148h.369l.037-.037-.037-.074A1.383,1.383,0,0,0,188.285,285.02Zm-49.46-46.657c-.037-.074-.037-.148-.074-.148-.074,0-.148.037-.221.037.037.037.037.111.074.148A.468.468,0,0,1,138.825,238.364Zm92.1,56.873c.037.111.037.184.074.221s.111.037.184.074c-.037-.074-.037-.148-.074-.184C231.069,295.274,230.995,295.274,230.921,295.237ZM178.437,179.61l-.111-.111-.037.037.111.111Zm11.323,55.84a.28.28,0,0,0,.148.074c.037,0,.074-.037.111-.074l-.037-.074A.524.524,0,0,0,189.76,235.45Zm1.217,7.708c.037-.037.074-.037.111-.074-.037-.037-.074-.074-.111-.074s-.074.074-.148.111C190.9,243.122,190.94,243.159,190.977,243.159Zm22.646,9.626c.037,0,.074.037.148.037a.129.129,0,0,0,.037-.074h-.074C213.7,252.748,213.66,252.785,213.623,252.785Zm.258,4.315a.241.241,0,0,0,.406,0ZM188.1,278.16c-.037-.037-.074-.074-.111-.074l-.037.037c.037.037.074.074.111.074A.036.036,0,0,0,188.1,278.16Zm-9.848-150.85c-.074-.037-.148-.037-.184-.074v.111c.037.037.074.037.111.074C178.216,127.421,178.253,127.347,178.253,127.31Zm13.942,165.2a3.008,3.008,0,0,0,.332.074c.037,0,.037-.037.074-.074-.037,0-.037-.037-.074-.037A1.427,1.427,0,0,0,192.194,292.507Zm33.858.553c.074-.037.111-.074.184-.111.037,0,.037-.037.037-.074-.037-.037-.074-.074-.111-.037a.647.647,0,0,0-.184.148C225.979,292.95,226.016,293.024,226.053,293.061ZM179.8,178.688c-.074-.037-.111-.074-.184-.074,0,.037-.037.037,0,.074.074.037.111.074.184.111Zm5.164,51.451c.037-.037.074-.037.111-.074v-.074h-.111Zm-43.005,3.688c0-.037-.037-.037-.037-.074-.037.037-.074.037-.074.074.037,0,.074.037.111.037Zm73.876,28.732h-.074l.037.037Zm-27.662-21.613H188.1v.037h.074Zm26.26,17.224c.037-.037.074-.037.111-.074l-.037-.037c-.037,0-.074.037-.111.074A.036.036,0,0,1,214.434,258.17Zm-28.289,23.162c-.037-.037-.037-.074-.074-.148-.037.037-.074.037-.074.074l.111.111Zm-8.667-151.477H177.4a.135.135,0,0,0,.037.111h.074A.135.135,0,0,1,177.478,129.855ZM190.313,242.31l.074-.037-.074-.037Zm-52.742-2.287c-.037,0-.074-.037-.111-.037v.037Zm81.142,36.366a.129.129,0,0,0-.037-.074c-.037,0-.074.037-.111.037a.036.036,0,0,0,.037.037C218.639,276.427,218.676,276.39,218.713,276.39ZM176.7,131.589l.037.037v-.037Zm9.516,148.489c0-.037,0-.037.037-.074-.037,0-.037.037-.074.037A.036.036,0,0,0,186.219,280.078Zm17.187,12.245c-.037,0-.037.037-.074.037l.037.037a.129.129,0,0,0,.074-.037A.036.036,0,0,0,203.407,292.323Zm8.151-64.1v.111c0-.037.037-.037.037-.074C211.595,228.295,211.595,228.258,211.558,228.221Zm-.443-.516-.037-.074-.037.074Zm1.254-8.188-.037.074h.037Zm14.089,73.8v.074l.074-.037Z" transform="translate(3355.8 8212)"/>
</svg>
