<svg xmlns="http://www.w3.org/2000/svg" viewBox="4370.216 8322 414.271 343">
  <defs>
    <style>
      .cls-1 {
        fill: #303030;
      }
    </style>
  </defs>
  <path id="PAS" class="cls-1" d="M417.622,544.342h2.415c.416.167-.167.833.5.833.333,0,.5.083.416.416a1.678,1.678,0,0,0,.5.167,17.438,17.438,0,0,0,1.749-.416c-.25.333-.416.5-.666.833a4.062,4.062,0,0,1,.583.25,8.11,8.11,0,0,0,2,.167c.416-.083.583.75,1,.25h0a2.359,2.359,0,0,0,1.416.916c.25.083.5.083.749.167a20.273,20.273,0,0,1,2.165.5,21.055,21.055,0,0,1,1.915,1c.167.083.333.167.333.25a.9.9,0,0,0,1,.583c1.332.167,2.665.25,4.08.333.083.75.666,1.083,1.332,1.332a7.811,7.811,0,0,0,1.332.333c.25.083.583.083.75.25.749.833,1.832.666,2.748.75a10.107,10.107,0,0,1,1.5.083c-.333.583-.833.333-1.083.583a.306.306,0,0,0,.083.25c.666.333,1.416.25,2,.749.167.167.416.25.416.583,0,.167.333.416.583.416.833.167,1.665.25,2.415.416.333.083.583.083.916.167v1.249c.833.916,2,1.082,3,1.749a4.052,4.052,0,0,0-.25.583,3.472,3.472,0,0,0,1.5.666c.416.167.749.25.916.749a1.393,1.393,0,0,0,.916.749c1.166.333,2.248.666,3.5,1.083-.416.083-.749.25-1.083.333.083.167.083.333.167.416a16.584,16.584,0,0,0,2.748,2c.416.25.916.416,1,1.083.749.5,1.166,1.332,1.915,1.749.416.25.916.5,1.5.916h-1c.167.666.916.666,1.249,1.166a3.022,3.022,0,0,1-.25.583c.416.5.916.833,1,1.582.083.416.583.833.916,1.249.583.75.666.75.5,1.832a2.565,2.565,0,0,0,.25,1.582,21.231,21.231,0,0,1,1.083,2.415c.083.25.167.583.25.916a7.866,7.866,0,0,0-.749.25c.083.833.749,1.5.666,2.415-.25-.083-.5-.25-.749-.333a4.527,4.527,0,0,0,0,1.5,1.144,1.144,0,0,1-.333,1c-.333.25-.333.583-.416,1l-.25,1.5c0,.5-.749.333-.833.916a4.113,4.113,0,0,1-.416,1.332c-.167.416-.333.75-.5,1.166s-.416.833-.583,1.166a13.316,13.316,0,0,0-1.915.25,1.481,1.481,0,0,0-.666.583c-.5.749-1,1.416-1.5,2.165-.333-.083-.583-.083-.833-.167a5.694,5.694,0,0,1-1.915,2.082,2.493,2.493,0,0,0-.333-.666c-.167.083-.416.167-.5.333a2.138,2.138,0,0,1-1.665.666,5.12,5.12,0,0,0-.916.25c-1.083.333-2.248.583-3.331.916a5.536,5.536,0,0,1-3.081,0c-.083,0-.25-.083-.25-.167-.167-.583-.666-.333-1-.333l-3.248.25a4.65,4.65,0,0,1-1.832-.25,6.831,6.831,0,0,0-1.832-.167,8.6,8.6,0,0,1-3.248-.25,3.273,3.273,0,0,0-1.582-.083,16.473,16.473,0,0,1-4.5-.416,28.466,28.466,0,0,0-3.747-.333H426.2a3.175,3.175,0,0,1-1.249-.083,11.354,11.354,0,0,0-3.747-.167,7.182,7.182,0,0,1-2.665-.083,3.432,3.432,0,0,0-1.832.083,23.835,23.835,0,0,1-7.661-.25,5.752,5.752,0,0,0,.833-.333,14.634,14.634,0,0,0-2.248-.416l-2-.25a19.454,19.454,0,0,1-2.165-.333,8.742,8.742,0,0,1-1.915-.666c.666,0,1.249-.083,2.165-.167-1-.75-2.082-.5-3-.833a14.628,14.628,0,0,0-2.748-.583c.416-.583,1.332-.25,1.749-1h-1.832c.416-.5,1.083-.333,1.332-.833a1.146,1.146,0,0,0-.916.083c-.333.083-.583.083-1.166.25,1-.75,1.915-.916,2.665-1.5-.167-.833-.167-.833.5-1.083a2.205,2.205,0,0,1,.5-.416h0a3.621,3.621,0,0,1-.583.5,2.692,2.692,0,0,1,1-1.166,18.251,18.251,0,0,1,4-2.082c.416-.167.833-.416,1.249-.583v-.083h-.25c.083-.167.167-.416.333-.416a20.429,20.429,0,0,1,2.415-.666c.916-.167,1.832-.167,2.831-.333.916-.083,1.749-.25,2.581-.333a1.987,1.987,0,0,0,1.5-.833,5.148,5.148,0,0,0-2.082-1.665c-.083.167-.083.25-.167.333v.333h-.25c-.416-.333-.833-.749-1.249-1.083-.5-.167-.833.583-1.332.167a6.411,6.411,0,0,0-1.582-.583c.416.5.666.749,1.083,1.249-1.915-.749-3.414-1.665-5.08-2.165-.25.416,0,.583.167.749a2.2,2.2,0,0,1,.666,1.749c-.666-.083-1-.583-1.416-.916-.5-.333-1-.749-1.5-1.082a3.9,3.9,0,0,0-1.665-.833c.333.666.583,1.249.916,1.832-1-.583-1.832-1.083-2.665-1.582a5.164,5.164,0,0,0-1.166-.333,19.226,19.226,0,0,1,1.166,1.582c-1.915-.5-3.414-1.249-5.163-1.249.167.5.25.833.416,1.249-.083,0-.167.083-.25.083a3.618,3.618,0,0,0-2.082-.416c-.333.083-.666-.167-1.083-.25s-.833-.167-1.166-.25c-.167.333.083.416.25.5.5.25.916.416,1.416.666a1.5,1.5,0,0,1,.666.749c-1.332,0-2.415-.5-3.664-.583v.583c-1.5-.25-3-.5-4.5-.666a25.886,25.886,0,0,0-3.581-.25c-.333,0-.749,0-.833.167-.416.583-1.083.5-1.665.666-2.248.416-4.5.916-6.745,1.416-.416.083-.833.083-.916.666,0,.083-.333.167-.583.167-.583.083-1.249.167-1.832.25-.333.083-.333.333-.416.666a13.454,13.454,0,0,0-1.832,0c-1.083.083-2.165.25-3.248.416-.416.083-.333.416-.083.749-.25.083-.5.083-.749.167-.666.167-1.5,0-2,.666-1.166.083-2.165.666-3.331.666-1,0-2.082.083-3.081.167a2.336,2.336,0,0,0-1.582.583,2.581,2.581,0,0,1-1.083.5,7.641,7.641,0,0,0-2.332.749,2.042,2.042,0,0,1-1.582.083c0-.25.083-.416.083-.583v-.5h-.666a4.244,4.244,0,0,1,.5-3.664c-.083-.416-.583-.666-.416-1.249a4.171,4.171,0,0,0-.25-3.164,5.529,5.529,0,0,1-.25-1.249,4.665,4.665,0,0,0-.833-2,3.78,3.78,0,0,1-.5-1.166c-.167-.5-.167-1.166-.833-1.332-.167-.083-.167-.333-.25-.5-.25-.416-.5-.833-.749-1.166-.083-.083-.25-.25-.333-.25-1,.083-1.665-.916-2.665-.833a3.123,3.123,0,0,1,.083-.833c-.5-.416-1.332-.75-1.5-1.665,0-.167-.25-.25-.416-.333-.333-.167-.749-.333-1.166-.5-.167-.416-.25-.916-.416-1.332-.083-.083-.167-.25-.333-.333-.5-.333-1.166-.5-1.416-1.166-.083-.167-.333-.25-.5-.333a3.765,3.765,0,0,1-1.582-1.832,2.518,2.518,0,0,0-1.416-1.5c-.167,0-.333-.25-.416-.416-.333-.333-.333-.333-1.082.083.083.083.167.25.25.333a2.764,2.764,0,0,1,1.332,1.416c.25.416.416.833.666,1.166.416.5,1.083.833,1.416,1.416s1,.666,1.5,1.166c.167.416.25.916.416,1.5l1,.5a1.806,1.806,0,0,1,.583.5,3.282,3.282,0,0,0,1.416,1.582c-.083.167-.083.416-.167.666a12.2,12.2,0,0,0,2.332,1.166,2.02,2.02,0,0,1,1.416,1.416c.083.167.083.5.167.583.833.5.833,1.416,1.083,2.165.083.25.25.416.333.666a7.817,7.817,0,0,1,.5,1.249,7.243,7.243,0,0,0,.583,2.581,17.16,17.16,0,0,1-.25,2.165c-.167.5.083.749.333,1.166-.916,1-.666,2.248-.666,3.5.25.083.416.083.749.167a3.322,3.322,0,0,1-.583,1.082,11.418,11.418,0,0,1-1.332,1.5,1.966,1.966,0,0,0-.916,2,.63.63,0,0,1-.25.666c-.083.167-.25.416-.167.5a.436.436,0,0,1-.167.666,14.9,14.9,0,0,0-1.083,1.166,4.771,4.771,0,0,0,.583.333,5.8,5.8,0,0,1-2.415,2.082,24.2,24.2,0,0,0-2.915,1.5c.25.167.416.333.583.416,0,.083-.083.167-.083.25-.083.083-.167.083-.25.167a4.747,4.747,0,0,1-4.58.749h-.333a1.149,1.149,0,0,0-.25.333c-.083.083-.083.167-.25.333-.833-.416-1.665-.916-2.5-1.332a2.641,2.641,0,0,1-.416.5c-1.749-.583-3.5-1.083-5.163-1.582-.25.25-.5.333-.666.5a1.7,1.7,0,0,0-1.665-.749,1.369,1.369,0,0,1-.833-.167,4.146,4.146,0,0,0-4.663-.083,9.678,9.678,0,0,1-1.5-.333c-.5-.083-.583.25-.833.5h-.333a10.558,10.558,0,0,0-1.915-1c-.666-.167-1.416,0-2.165-.167-.167,0-.333-.083-.5,0-1.083.666-2.082.167-3.164.083-.666-.083-1.249-.583-1.915-.083-.167.083-.5-.083-.749-.167a4.4,4.4,0,0,1-1-.083,4.18,4.18,0,0,1,.167,1c-.416-.167-.749-.25-1.083-.416a2.683,2.683,0,0,0-2.5-.167,3.761,3.761,0,0,1-1.665.083c-1.083-.25-2.248-.5-3.331-.666-.583-.083-1.166-.333-1.582.25-.666,0-1.416.333-2.082,0a2.813,2.813,0,0,0-1.665-.083,9.849,9.849,0,0,1-3.831.083,26.72,26.72,0,0,0-5.746-.416c-1,.083-2.082.167-3.081.333a1.733,1.733,0,0,1-2-.916,10.063,10.063,0,0,1-1.5.416c-.5.083-1,.083-1.249-.25a.832.832,0,0,0-.916-.333c-1.249.167-2.5.333-3.747.416-.333-.25-.583-.75-1.249-.416a8.408,8.408,0,0,1-1.249.583,1.893,1.893,0,0,1-1.5.25,2.46,2.46,0,0,0-1.083.167c-.583.167-1.166.333-1.832.583,0-.25-.083-.5-.083-.833h-.583a16.008,16.008,0,0,0-4.83,1.332.967.967,0,0,1-.833,0,1.18,1.18,0,0,0-.916.083,4.238,4.238,0,0,1-2.165.75,40.534,40.534,0,0,1-4.58.916h-.333a11.021,11.021,0,0,0-6.079.749c-1.416-.833-3.164-1-4.747-1.5a25.877,25.877,0,0,0-3.664-.5c-.167,0-.5,0-.583-.083-.167-.583-1,0-1.083-.666-.083-.416-.583-.25-.666-.5s.083-.749-.083-.916c-.666-.5-.416-1.083-.5-1.665v-.5a7.015,7.015,0,0,0,.333-2.248,3.049,3.049,0,0,1,.666-2,.621.621,0,0,0,0-.749c-.25.333-.416.583-.666.916s-.666.583-.833.916a12.877,12.877,0,0,0-.583,1.915c-.25,1.083-.5,2.082-.833,3.164a1.067,1.067,0,0,1-.916.833,11.146,11.146,0,0,1-.5-1,.291.291,0,0,0-.167-.083c-1.083-.333-1.416-.75-1.166-1.749a12.3,12.3,0,0,0,0-3.5,3.916,3.916,0,0,1,.333-3,2.089,2.089,0,0,0-.749.333,2.594,2.594,0,0,0-.749,2.248c.167,1-.333,1.915-.333,2.914,0,.083-.167.25-.333.416a11.139,11.139,0,0,0-1-.5c-.167-.5,0-1.166-.5-1.665-.083-.083-.167-.333-.083-.416a6.665,6.665,0,0,0-.167-2.581,4.14,4.14,0,0,1,.333-2.248,2.951,2.951,0,0,0,.25-.916c.083-.25.083-.5.25-.666a2.062,2.062,0,0,0,.666-1.166c0-.25.333-.5.583-.666a5.461,5.461,0,0,0,1.5-1.582c.25-.5.833-.749,1.249-1.166a.7.7,0,0,0,0-.583c0-.083-.25-.167-.416-.083a1.741,1.741,0,0,0-1.083.583c-.583.916-1.582,1.332-2,2.332-.083.25-.416.333-.583.5-.583.5-1.249.916-1.416,1.832,0,.167-.167.25-.25.333a1.04,1.04,0,0,0-.333,1.082c.083.5-.25.75-.749.833-.583.167-1.083.25-1.665.416a.732.732,0,0,1-.583.083,3.7,3.7,0,0,0-2.665.5,2.367,2.367,0,0,1-1,.333,10.249,10.249,0,0,0-3.831,1.166,7.016,7.016,0,0,1-1.166.5c-.5.167-1,.5-1.582.167-.167-.083-.416,0-.583,0a2.406,2.406,0,0,1-2.248-.167c-.167-.083-.5,0-.749,0a1.007,1.007,0,0,1-.833-.25.766.766,0,0,0-.833-.083,1.148,1.148,0,0,1-.749,0,2.89,2.89,0,0,0-2.332-.25,5.665,5.665,0,0,1-1.665-.167,10.813,10.813,0,0,0-5.413-.583c-.167,0-.333.083-.416,0-.5-.333-1,0-1.5.25-.416-1-1.332-.416-2-.75-.25-.5-.583-1.083-.916-1.749a.905.905,0,0,1-.083-.416v-.333c.25-.666-.5-1.166-.416-1.749a14.7,14.7,0,0,0,.333-1.665,3.392,3.392,0,0,1-.083-1.832c-.333-.749.083-1.416.333-2.082a5.726,5.726,0,0,1,.25-.666c-.333-.333-.583-.167-.666.083a3.52,3.52,0,0,0-.916,2.581c.083.666-.083,1.249,0,2a3.5,3.5,0,0,1-.5,1.749c-.083.25-.083.25-.749.833a10.255,10.255,0,0,0-.167-1.665,4.642,4.642,0,0,1,.167-3c.167-.416,0-.666-.25-1h0a1.121,1.121,0,0,0-.416-1h.083c.333-.666.666-1.416,1-2.082.083-.083.083-.167.167-.25l-.083-.083v.333c-.5,0-.5.416-.749.666-.167.167-.25.333-.416.5-.083.083-.333.167-.416.083s-.25-.25-.25-.333a4.873,4.873,0,0,1,.167-1.083,6.57,6.57,0,0,0,.5-2.831,2.948,2.948,0,0,1,1-2.5,5.812,5.812,0,0,0,1.166-2.248c1.332-.5,2.581-1,3.914-1.5a3.236,3.236,0,0,1,1.249-.167c.333-.083.749,0,.916-.167.583-.583,1.166-.416,1.915-.25a16.844,16.844,0,0,0,2.165.333c.416-.5.916-.083,1.416-.083a1.243,1.243,0,0,1,.833.25,4.262,4.262,0,0,0,1.749.833c.5.083,1,.583,1.582.167.083-.083.167,0,.333,0a2.95,2.95,0,0,0,1.915.333c.583-.167,1.332.167,2-.083a6.263,6.263,0,0,1,1.249,0c.916-.083,1.749-.083,2.665-.25a11.725,11.725,0,0,1,2.915-.416,6.575,6.575,0,0,0,1.083-.25c.833-.083,1.665-.167,2.5-.167a17.992,17.992,0,0,0,5.579-.666,3,3,0,0,0,2.165-3.664,1.885,1.885,0,0,1,.083-1.5c.167-.416.25-.916-.167-1.166-.5-.416-.083-.75,0-1.249-.167-.25-.333-.583-.583-1a2.379,2.379,0,0,0,.083-1.332,6.749,6.749,0,0,1,0-1.832,18.819,18.819,0,0,1,.083-2.165c.083-1,.25-1.915.416-2.915a2.14,2.14,0,0,0-.416-2.082h-1.249c.333-.5.666-.916,1-1.332-.666,0-.666,0-1.582.5.167-.583.167-.583.833-1.332a6.9,6.9,0,0,0,.916-1.249c.25-.5.749-.833.666-1.5-.25-.25-.416-.083-.583.083-.5.5-1,.916-1.416,1.416a1.737,1.737,0,0,1-1.5.583l1-2a2.629,2.629,0,0,0-1.582.583,6.289,6.289,0,0,0-1.166.916c-.083-.083-.167-.083-.167-.167v-.167c.749-1,1.416-2,2.165-3a3.253,3.253,0,0,0-1.582.833c-.416.416-.833.749-1.332,1.249-.167-.25-.333-.416-.5-.666.25-.416.5-.916.833-1.5-.749.083-1,.833-1.5.916-.167-.416.333-.749.25-1.166-.666-.083-.916.666-1.5.749a3.927,3.927,0,0,0-.25-.749,16.648,16.648,0,0,0-1.749.833c-.25-.167.333-.666-.167-.833-.083,0,.083-.5.083-.833-.416-.25-.5.416-.916.333-.416-.416.25-.749.083-1.249-.749.5-1.416.916-2.165,1.332-.25-.5.25-.666.167-1.083-.167-.25-.333-.083-.5,0-.666.416-1.249.833-2.082,1.416.083-.583.583-.833.333-1.249-.333-.583,0-1,.333-1.416a6.522,6.522,0,0,0,1.332-1.665c-.333-.167-.5.083-.749.25a2.919,2.919,0,0,1-.666.416,2.1,2.1,0,0,1-1.416.5.946.946,0,0,0-.666.25c-.583.333-.916,1-1.665,1-.167,0-.25.25-.416.416a4.514,4.514,0,0,0-.5.916c0-1.582,0-1.665,2.165-5.829-.167-.25-.333-.083-.5.083-.583.666-1.249,1.249-1.832,1.915-.25.333-.333.25-1.249.167-.083-.916.583-1.749.416-2.748-.833.167-.916,1.166-1.665,1.5.167-.833.25-1.5.333-2.248a15.64,15.64,0,0,0,.333-2.332c-.25.333-.416.416-.5.583l-1.249,2a.875.875,0,0,1-.749.416h0c.167-.25.25-.5.5-.833a4.78,4.78,0,0,1-.583-.333,2.015,2.015,0,0,0-.167-2.248c-.666,1-1.332,2.082-2,3.081a1.819,1.819,0,0,1-.416.25c-.083-.5.25-.666.416-1s.416-.75.583-1.083a5.1,5.1,0,0,0,.416-1c.083-.333.167-.666.25-1.166-.749,0-.749,1-1.416.833h0c.583-.416.583-1,.749-1.666-.5-.083-.5.333-.666.5a4.655,4.655,0,0,0-.416.666,4.581,4.581,0,0,1-.583.749l-.749.749c.416-1.416,1-2.415.916-3.664-.833.5-.749,1.332-1.249,1.832a6.258,6.258,0,0,0-1.083,1.832,2.32,2.32,0,0,1,.083-1.332c.167-.5-.167-.749-.5-1,.083-.333.167-.666.333-1.166-.333.25-.583.416-.833.583-.333,0-.167-.333-.25-.5s-.25-.416-.167-.583c.333-.583-.167-.833-.416-1.166a6.32,6.32,0,0,1,.333-.916c-.749-.25-1.5-.416-2.248-.666-.5-.167-.916-.416-1.416-.583.083,0,.167.083.333.083.666,0,1.416-.083,2.082-.083l.083-.083a3,3,0,0,0-2.165-.749c0,.333.167.749-.333.916-1,.333-1,.333-1.332.916.5.416,1.416.25,1.582,1.166-.416.167-.833.25-1.249.416-.083,0-.167.167-.25.25a3.535,3.535,0,0,0,1.582.5c.5.083,1,.083,1.582.167,0,.167.083.5,0,.5a1.59,1.59,0,0,0-.5,1.332c-.5,0-.916.083-1.332.083-.167,0-.5,0-.583.167-.416.583-1.166.666-1.915,1,.583.333,1,.75,1.416,1a13.6,13.6,0,0,0,1.915.583,4.947,4.947,0,0,1-.916.083,3.759,3.759,0,0,0-2.082.583,23.3,23.3,0,0,1-2.5,1.249c-.25.167-.583.25-.5.75.749.167,1.416.416,2.165.583-.749.5-1.582,1-2.332,1.416.083.416.167.666.25,1,.749.083,1.416.167,2.415.25-.666.416-1.166.749-1.582,1a2.779,2.779,0,0,0-1.249,1c.583.333,1.166.083,1.665.083a4.654,4.654,0,0,1,1.832.083c-.666.5-1.416.5-1.915.833a19.937,19.937,0,0,0-1.749,1.083,2.119,2.119,0,0,0,.167.583c-.333.25-.749.5-1.166.75.25.666,1,.333,1.416.833,0,.167-.083.416-.083.666.25.167.583.333,1,.583a9.538,9.538,0,0,1-1.582.583c-.666.167-.833.666-.916,1.332.833.25,1.582.583,2.415.833-.333.416-.583.167-.916.25s-.749.083-1.083.167c-.25.083-.416.416-.749.666l1,1.249c0,.416-.749,0-.666.583-.333.167-.583.25-.916.416.083.583.749.333,1,.75-.25.416-.833.167-1.166.666a5.97,5.97,0,0,1-.083,1.083,3.456,3.456,0,0,0,.916.583c-.666.167-1.166.333-1.665.416-.083.416.25.666.083,1.083-.083.167.25.5.5.833-.666,0-1.166-.083-1.749-.083-.333.583.333.833.333,1.332-.083.583-.666.5-1.083.749a20.167,20.167,0,0,1,1,1.915c-.416,0-.666.083-1.083.083.167.416.416.75.583,1.083a2.646,2.646,0,0,1-.833.833c-.25.167-.666,0-1.083,0-.167.666.583.666.666,1.166.083.333.5.583.749,1-.666.083-1.332.083-1.915.167-.167.583.5.5.5.833-.083.083-.083.167-.167.167h-1.416c-.083.666,1.083.75.416,1.582a7.193,7.193,0,0,1-1.249-.083,3.6,3.6,0,0,0-.083.416,10.839,10.839,0,0,0,.666,1.416,7.441,7.441,0,0,0,.749,1.332c-.416.083-.666.083-1.083.167a12.843,12.843,0,0,1-.416,1.416c.25.5.5,1,.833,1.582-.666.25-1.083-.416-1.665-.416-.333.083-.25.5-.25.75a12.815,12.815,0,0,0,1.416,5.829,12.263,12.263,0,0,1,.833,1.832c-.666.25-.749-.5-1.249-.583l-.167.167a12.049,12.049,0,0,0,1.416,4.747c.333.749.833,1.416,1.249,2.165a10.827,10.827,0,0,1,.5,1c-.583-.167-.916-.25-1.416-.416.25.916.916,1.332,1.249,2.082-.083.167-.25.25-.416.5.333.333.749.666,1.083,1-.167.416-.5.167-.666.167a14.485,14.485,0,0,0-1.832-.416,6.347,6.347,0,0,0-2.5-.167c-.083.666.666.666.749,1.166-.333.083-.666.167-1.166.25.416.416.749.666,1.083,1-.333.416-.833.083-1.166.333-1.083,1-.916,2.415-1.166,3.664a2.4,2.4,0,0,0-1.5.25,2.636,2.636,0,0,1-2.082.5c-1.749-.167-3.414-.333-5.08-.5-1-.083-1.915-.333-2.915-.416a13.034,13.034,0,0,0-5.08.416c-.416.083-.833.25-1.166.333a5.374,5.374,0,0,0-2.332-1c-.083-.333-.083-.749-.167-1.249.5-.416,1.083-.916,1.665-1.416a1.408,1.408,0,0,0-.416-.167,11.246,11.246,0,0,0-2.415,1.332c-1.166,1.083-2.665,1.332-4.08,1.915-.167-.25-.333-.5-.583-.833-.25,0-.416.083-.666.083-1,.083-1.915-1.083-1.5-1.915.333-.749.083-1.582.583-2.165a.491.491,0,0,0-.749-.167c-.083.083-.167.167-.167.25-.25,1.166-1.249,1.749-2,2.332-.749-.25-1.5-.416-2.248-.666a3.229,3.229,0,0,0-.5-.916,1.348,1.348,0,0,1-.583-1.582c0-.167-.333-.416-.5-.749l.5-.5c.25-.25-.25-.5-.083-.666.25-.583.583-1.166.916-1.832-.666-.833-.25-1.832-.333-2.831,0-.333.083-.75.083-1.083,0-.167,0-.333.167-.416.749-.666.916-1.665,1.416-2.5a1.879,1.879,0,0,1,1.416-1.083c.916-.083,1.749-.666,2.665-.583a3.418,3.418,0,0,1,2.165-.583c.333-.916.333-1,1.166-1a15.62,15.62,0,0,0,3.914-.833c.583-.25,1.083-.583,1.083-1.332,0-.5.167-1.582.167-2.248a1.417,1.417,0,0,1,.083-.583c.167-.833.333-1.749.5-2.581-.416-1.083.25-2.082.25-3.164.083-1,0-2.082,0-3.081,0-.5.083-1,.083-1.582.083-1,.083-2,.167-2.915.083-.583.167-1.249.25-1.832,0-.083.083-.083,0-.167-.25-1.416.416-2.748.25-4.164.333-1.749.167-3.664,1-5.329a5.031,5.031,0,0,0,.416-2,38.9,38.9,0,0,1,.666-4.33,20.609,20.609,0,0,1,.5-2.415,1.2,1.2,0,0,0-.666-1.5,2.638,2.638,0,0,0-1.083,1.749c-.167.833-.333,1.749-.5,2.581a12.543,12.543,0,0,0-.5,3.081,4.113,4.113,0,0,1-.416,1.332,6.792,6.792,0,0,0-.749,3.581c-.583,1.416,0,3-.666,4.413.333,1-.25,1.915-.25,2.914a43.882,43.882,0,0,1-.333,4.663,10.124,10.124,0,0,0,0,2.748,6.531,6.531,0,0,1-.167,1.832,11.262,11.262,0,0,0-.333,2.415,7.106,7.106,0,0,1-.5,2.581c-.083.416-.25.749.083,1.166.083.083.083.25,0,.25-.5.5,0,1.332-.5,1.832.167.583-.25.749-.666.916a12.194,12.194,0,0,1-4.247,1,6.465,6.465,0,0,0-1.332.167c-.083.333-.167.583-.25.833-.583.167-1.416,0-1.832.583-1.083-.167-2,.5-3,.666a3.755,3.755,0,0,0-.916.25,1.724,1.724,0,0,0-.916,1.083,4.427,4.427,0,0,1-1,1.832c-.416.583-.916,1-.583,1.749-.416.833,0,1.749-.167,2.581a2.647,2.647,0,0,0,.25.75c-.25.416-.5.833-.749,1.332-.333.5-.666.666-1.166.416-.833-.333-1.832-.167-2.581-1a4.22,4.22,0,0,1-.167-1.083,9.05,9.05,0,0,1,.083-1.5.624.624,0,0,1,.083-.416c.583-.583.416-1.249.416-2a20.828,20.828,0,0,1,.5-3.164c-.25-.167-.416,0-.583.25a4.394,4.394,0,0,0-.666,2.082v1.332a9.972,9.972,0,0,0-1,.916c.5,1-.25,1.832-.083,2.915a4.5,4.5,0,0,0-1.5,0,1.457,1.457,0,0,1-1.416-.167,19.731,19.731,0,0,1,.749-7.911,12.355,12.355,0,0,0-1.083.666,8.408,8.408,0,0,1-.916,2.915,5.457,5.457,0,0,1,.416-4.164,1.634,1.634,0,0,1,.749-.75,4.879,4.879,0,0,0,.749-.916,22.382,22.382,0,0,0,4.33-1.166,19.379,19.379,0,0,1,3.164-.666,9.508,9.508,0,0,0,2.165-.75c.833-.5,1.832-.749,2.665-1.166a7.033,7.033,0,0,0,3-2.831,3.986,3.986,0,0,0,.5-3.081,2.311,2.311,0,0,1,0-1.5c.083-.416.167-.916.25-1.332a1.978,1.978,0,0,0-.25-1.915,5.465,5.465,0,0,0,.333-1.915,18.82,18.82,0,0,1-.083-2.165v-.5a14.835,14.835,0,0,0,.083-5.08v-.167c.333-1.582-.083-3.164.5-4.747a16.423,16.423,0,0,0,.583-2.914,1.731,1.731,0,0,0-.083-.916,2.586,2.586,0,0,1,0-2.082c.333-1,.833-2,.333-3.164v-.167c.416-1.249-.25-2.415-.083-3.664a15.567,15.567,0,0,0-.666-4.747,11.954,11.954,0,0,1-.333-1.832,3.54,3.54,0,0,1,.167-.916,1.416,1.416,0,0,0-.167-1.5c-.083-.083-.167-.333-.083-.416.416-.833.083-1.749.416-2.581.083-.25-.083-.666-.083-1.083l-.749-4c-.083-.333.083-.583.083-.916a5.666,5.666,0,0,0,.167-1.666,2.434,2.434,0,0,0-.749-.167h0c.25-.666-.167-1.083-.583-1.5.167-.5.416-.916.583-1.332-.167-.416-.416-.833-.583-1.166a.731.731,0,0,1-.083-.583c.25-1.166-.167-2.248-.083-3.414a3.371,3.371,0,0,1,.083-1.332c.5-.833,0-1.582.167-2.332-.333-.5-.666-1-1-1.582.083-.167.333-.5.25-.75a3.088,3.088,0,0,1,.25-2.415c.083-.167-.083-.583-.167-.916-.5.167-.833.333-1.249.5,0-.167-.083-.25-.083-.333a2.591,2.591,0,0,0,.583-2.332,4.593,4.593,0,0,1,.25-2.332c-.333-.167-.666-.333-1.083-.5.083-.333.083-.749.333-1a2.016,2.016,0,0,0-.167-2.581c-.583-.083-1.083.749-1.665,0,.333-.583.749-1.166,1.083-1.665-.333-.5-.583-.833-.833-1.166a9.424,9.424,0,0,0-1.083-.833c.416-.833.833-1.665,1.166-2.5-.333-.416-.749,0-1.083-.167-.167-.167-.25-.416-.5-.666-.583,0-1.332.583-1.749-.333,0-.749.749-1.416.583-2.415-.416.167-.749.25-1.416.5.5-.666.749-1,1.166-1.582-.333,0-.5-.083-.666,0a2,2,0,0,1-2.332-.25c-.416-.333-.666-.083-1-.167-.167-.333.25-.833-.333-1.083a.457.457,0,0,1-.25-.749,9.708,9.708,0,0,1,.666-1.083c-.5,0-.916.083-1.332.083-.25-.25.167-.5.083-.666s-.416-.25-.416-.333c.083-.5-.167-.749-.416-1.083-.416-.5-.083-1,.25-1.416-.333-.333-.5,0-.749,0-.416.083-.416.083-.916-.416.25-.416.416-.833.749-1.416-.333-.25-.749-.333-1.083-.583a2.647,2.647,0,0,1-.833-.833c-.749.25-1.416.5-2.082.749-.333-.416.083-.583.167-.833a1.813,1.813,0,0,1,.416-.666c.333-.416,0-.833.083-1.166.083-.416-.333-.416-.583-.666a5.725,5.725,0,0,1,.25-.666c-.083-.083-.083-.167-.167-.25-.25-.167-.666-.083-.666-.5s-.5-.25-.5-.416c-.083-.167.167-.5.167-.666s-.25-.333-.333-.416c.167-.25.333-.5.583-.833h-.666v-1.083c0-.333.416-.666.749-1.166a21.71,21.71,0,0,0-2.581.333c0-.583.333-1.083-.167-1.5.416-.5.916-1,1.416-1.665-.583,0-1,.083-1.332.083h0v-1.166h-1.332a4.936,4.936,0,0,1,.333-.5c-.083-.083-.167-.167-.25-.167-.749.083-1.416.25-2.248.333a2.721,2.721,0,0,1,1.332-.749,4.312,4.312,0,0,0,1.832-1.166,5.6,5.6,0,0,0-.916-.583c.083-.333.167-.666.25-1.083-.333,0-.5-.083-.916-.083a6.222,6.222,0,0,0,1-1.166c-.167-.416-.333-.749-.749-.333h0c.167-.333.25-.749.416-1.166h-1.083c.833-.5,1.416-1,2.082-1.416a.542.542,0,0,0-.833.167h0c-.333-.583.333-.833.416-1.249a7.728,7.728,0,0,1-.416-.833c-.5.167-1.083.333-1.582.5-.167-.333.167-.416.333-.583l.583-.583a10.763,10.763,0,0,1-1.749-.583c.5-.916,1.582-1.5,1.582-2.665a22.205,22.205,0,0,1-4.164.333c.5-.583,1.332-.416,1.749-1-.25-.333-.5-.666-.833-1.082-.25,0-.583.083-.916.083h0c.416-.25.833-.5,1.332-.833-.583-.666-1.332-.083-1.915-.25.083-.333.416-.333.666-.5s.583-.25.916-.5c-.167-.333-.25-.666-.416-1.083-.916.25-1.832.5-2.665.749-.25-.333,0-.416.167-.5.333-.25.666-.5.916-.666.083-.916-.833-.666-1.249-1.249a5.386,5.386,0,0,1,.749-.666,1.5,1.5,0,0,0,.583-1.249c0-.083-.25-.167-.333-.25h0c0-.333.5-.666.083-1.166a3.47,3.47,0,0,0-1.5.666h0a1.417,1.417,0,0,1,.083-.583,6.273,6.273,0,0,1,.749-.749h-1.166c0-.083-.083-.25,0-.25.416-.416.833-.916,1.249-1.332.25-.583-.749-.666-.416-1.249-.416-.25-.749-.5-1.166-.749h0v-.333c.167-.416.749-.749.25-1.332-.25-.333-.167-.916-.666-1.083v-.167l1.249-1.249c-.5-.666-1.083-.583-2-.416a6.517,6.517,0,0,1,.833-.666c.25-.25.5-.5.416-.916-.083-.333.333-.833.167-1a1.5,1.5,0,0,1-.25-1c0-.25-.083-.583-.083-.916a3.394,3.394,0,0,1-.583-.167c.167-.333.416-.666.666-1.166-.333.083-.583.167-.916.25.167-1.083-.666-1.749-.916-3.164.167-.5.5-1.5.916-2.581-.25-.083-.416-.083-.666-.167a4.059,4.059,0,0,0,.25-.583c-.583.083-1.166.25-1.832.333-.083-.416-.167-.666-.25-1-.25,0-.5.083-.749.083h0c-.167-.666.666-.749.666-1.332-.167-.416-.583,0-.833-.167a3.007,3.007,0,0,1,1-2.915,2.118,2.118,0,0,0-1.249.25c-.333-.25-.749-.5-1.166-.749.083-.333.083-.5.167-.749a4.06,4.06,0,0,0-.583-.25c.083-.25.167-.416.25-.666-.583-.5-1.249-.333-2-.083a4.058,4.058,0,0,1,.333-.916c-.416.083-.833.167-1.582.25.583-.416.916-.666,1.166-.833-.25-.666-.583-.25-.916-.416l-.25-.5c-.083-.167,0-.416,0-.583-.25.083-.5.167-.833.25.083-.333.167-.583.25-.916h-.666c.333-.916.333-.916.083-2.415-.25,0-.583-.083-1-.083a7.206,7.206,0,0,0,.583-.833,3.664,3.664,0,0,0-.833-.167,2.305,2.305,0,0,0-.749-.083l.25-.749c0-.083-.083-.167-.083-.333H94.691a3.374,3.374,0,0,0,.416-.749,4.782,4.782,0,0,1-.583-.333c.25-.416,1-.583.666-1.249-.083-.083.25-.333.583-.666a6.873,6.873,0,0,0-2.248,1c-.25-.416.167-.5.333-.749s.416-.5.583-.749c-.25-.25-.5-.416-.833-.749-.25.083-.5.25-1,.416.167-.666.333-1.249-.167-1.582.5-.833.916-1.665,1.332-2.5-.25-.333-.416-.749-.666-1.166-.5.083-.916.25-1.332.333a8.081,8.081,0,0,0-.083-1.416c-.083-.5.25-.749.5-1.166-.666-.25-1.332-.5-2.082-.749.25-.083.5-.25.749-.333a5.259,5.259,0,0,0,.749-.333,7.268,7.268,0,0,0-2.248-1.416v-.167a4.759,4.759,0,0,1,.583-.666c-.083-.333-.333-.083-.5-.167a.306.306,0,0,1,.083-.25,9.986,9.986,0,0,0,.916-1c.083-.083,0-.333-.083-.666.25-.25.666-.666,1.166-1.083H89.611c-.083-.333.167-.5.333-.666.083-.167.25-.333.416-.583-.916-.583-1.915-.583-2.915-1.083.25-.416.416-.916.666-1.416a6.208,6.208,0,0,1-1-.583c.083-.5.916-.666.583-1.416-.5,0-1.166.083-1.5-.666a1.743,1.743,0,0,1,.333-.5c-.333-.25-.666-.5-.416-1h-1c0-.583.666-.666.749-1.166a3.666,3.666,0,0,0-.167-.833c.25-.167.5-.416.833-.666-.167-.083-.5-.167-.5-.333a2.739,2.739,0,0,1-.333-1.665,1.44,1.44,0,0,0-.083-.833,3.607,3.607,0,0,1-.333-2c1-.333,2-.749,2.915-1.082,0-.5-.333-.583-.666-.583a2.431,2.431,0,0,0-.749.167,42.091,42.091,0,0,0-4.663,1,3.416,3.416,0,0,1-.916.083,1.355,1.355,0,0,0-1,.083.731.731,0,0,1-.583.083,13.061,13.061,0,0,0-3.081-.416c-.833-.167-1.749,0-2.581-.083-.25,0-.583.083-.749-.083-.583-.666-1.416-.583-2.082-.916a1.545,1.545,0,0,1-1-1.332,6.53,6.53,0,0,1,2-.749,8.023,8.023,0,0,1,2,0,30.3,30.3,0,0,0,5.5,0,11.206,11.206,0,0,0,3.331-.167c.5-.167,1.083.083,1.5,0a7.015,7.015,0,0,1,2.248-.333,5.122,5.122,0,0,1,1.083.083,3.153,3.153,0,0,0,1.249,0,.586.586,0,0,0,.416-.333c0-.333-.167-.416-.5-.416a3.359,3.359,0,0,0-.916,0,1.022,1.022,0,0,1-1-.167c-.5-.416-.916.25-1.332,0a1.007,1.007,0,0,0-1.166.083,1.192,1.192,0,0,1-.916.25c-1.416-.333-2.748.167-4.164-.083a6.875,6.875,0,0,0-2.915,0,3.175,3.175,0,0,1-1.249-.083c-.916,0-1.832,0-2.748-.083-.583-.083-1.166-.333-1.749.167-1.083,0-2.165.5-3.164-.25a1.4,1.4,0,0,0-1.5-.167,5.432,5.432,0,0,1-2,.167,1.808,1.808,0,0,1-1.832-1.416,14.55,14.55,0,0,0-1.832-3.581c-.167-.333-.416-.5-.749-.167h0a3.13,3.13,0,0,0-.25-2.248c.583.167.833.167,1.083.25,0-.083,0-.25-.083-.25-.416-.5-.833-.916-1.249-1.332a4,4,0,0,1-1.249-2.5c0-.5-.333-.833-.666-1.249a3.891,3.891,0,0,1-.333-4.747,11.369,11.369,0,0,1,1.582-1.915,27.958,27.958,0,0,1,5-3.914,6.477,6.477,0,0,0,2-1.665,6.207,6.207,0,0,1,1.416-1.166,44.626,44.626,0,0,1,4.58-3.164c.749-.416,1.332-1,2-1.416-.167-.416-.333-.167-.5-.083-.25.083-.416.333-.666.416a1.544,1.544,0,0,1-.583.167,3.739,3.739,0,0,1-.666-2.248,17.117,17.117,0,0,1-.167-2.915c0-.416-.167-.833.167-1.166a.378.378,0,0,0,0-.416c-.416-1-.083-1.915-.083-2.915a1.193,1.193,0,0,1,.333-.833,3.65,3.65,0,0,0,.583-1.582,2.971,2.971,0,0,1,.916-1.915,10.308,10.308,0,0,0,1.166-1.5.689.689,0,0,0-.25-1.083c-.5-.25,0-.5,0-.916-.416-.333-.833-.833-1.5-1.332.416-.167.833-.25,1.166-.416.167-.583-.5-.749-.583-1.249,0-.583.583-.583.916-.833.25-.583-.333-.833-.416-1.249.083,0,.167-.083.25-.083.416.083.749.333,1.249,0,.167-.749-.749-1.166-.749-2,.167,0,.333-.083.5,0a3.888,3.888,0,0,1,.833.416c.333-.416.083-.833.167-1.166.25-.167.583-.25.749-.5a4.513,4.513,0,0,0,.5-.916c-.083-.333-.25-.749-.333-1-.167-.833.749-.416.833-1.083.083-1.332.167-1.332-.25-2.248a10.937,10.937,0,0,1,1.416-.749,14.77,14.77,0,0,1,.083-1.832c.583-.5-.25-1.166.083-1.749.083-.167-.083-.5-.25-.749-.167-.333-.333-.583-.583-1.166.583.25,1,.416,1.416.583v-1.083a3.756,3.756,0,0,1,.25-.916c-.25-.416-.5-.916-.749-1.332.25-.333.666-.666.333-1.166a1.937,1.937,0,0,1-.333-1.665,3.608,3.608,0,0,0-.083-.416,5.223,5.223,0,0,1-.5-3,20.457,20.457,0,0,0-.333-3.081,5.421,5.421,0,0,1-.083-2.581,2.265,2.265,0,0,0,0-.749,2.46,2.46,0,0,1,.167-1.083,2.709,2.709,0,0,0,.333-1.832c-.083-.167.167-.5.25-.666a7.507,7.507,0,0,0,.749-2.665,6.642,6.642,0,0,1,.916-3.081,2.367,2.367,0,0,0,.333-1A4.944,4.944,0,0,1,82.2,263.38a16.191,16.191,0,0,0,1.665-.416A3.51,3.51,0,0,1,85.78,264.3c.5.666,1.083,1.249,1.582,1.915a6.088,6.088,0,0,1,.583,1.582,4.262,4.262,0,0,0,.833,1.749,8.8,8.8,0,0,1,1.5,2.915,19.117,19.117,0,0,0,1.416,3.248,5.6,5.6,0,0,1,.5,1,12.582,12.582,0,0,0,2.748,4.663,8.248,8.248,0,0,1,.916,1.416,1.969,1.969,0,0,0,1,1.166,1,1,0,0,1,.416.416c.333,1.166,1.5,2,1.749,3.248a4.354,4.354,0,0,0,.583,1c-.25.167-.416.25-.666.416a10.89,10.89,0,0,1-1.249.416c.416.416.749.583,1.166.416a4.537,4.537,0,0,1,2.581,0,9.05,9.05,0,0,0,1.5.083c.833,0,1.749-.083,2.581-.167a7.1,7.1,0,0,1,1.915.25,2.2,2.2,0,0,0,1.915-.083,3.8,3.8,0,0,0,1.5-1.915,5.5,5.5,0,0,0,.25-2c0-.167.083-.416.083-.583.666-.25,1.332-.167,1.915-.583a3.467,3.467,0,0,0,1.582-2.581,4.351,4.351,0,0,1,.583-1.749,6.506,6.506,0,0,0,.749-2.831,9.681,9.681,0,0,1,.333-1.5,1.544,1.544,0,0,0,.167-.583,5.443,5.443,0,0,1,.749-2.5c.749-1.915,1.5-3.747,2.332-5.579A25.541,25.541,0,0,1,121.5,264.3c.333-.583.749-1.249,1.166-1.832a6.568,6.568,0,0,1,3.914-2.5c.083,0,.167-.083.25-.167A8.622,8.622,0,0,1,131,263.88c.333.583.749,1.083,1.083,1.665a11.63,11.63,0,0,1,1.332,3.331,8.673,8.673,0,0,0,.5,1.332,9.311,9.311,0,0,1,1.332,2.748c.916,1.083,1.249,2.581,2.332,3.664a4.16,4.16,0,0,1,1.166,2.332,11.69,11.69,0,0,0,.833,2.915,6.538,6.538,0,0,1,.416,1.832,14.167,14.167,0,0,0,.833,2.665,1.255,1.255,0,0,0,1.249,1,2.645,2.645,0,0,1,.749.25v.916a3.4,3.4,0,0,0,.25,1.832,1.489,1.489,0,0,1,.083,1.332c-.083.083-.083.416,0,.416.749.5.25,1.249.333,1.832.167.167.416.25.583.416-.083.666-.749,1.083-.916,1.749,0,.083,0,.25.083.25a1.817,1.817,0,0,1,.25,2.5,7.32,7.32,0,0,0-.5.833l.333.333a.905.905,0,0,0,.416.083,2.057,2.057,0,0,0,.333.749c.083.083.416-.083.666-.167h0c.167.416-.167.666-.416,1,.25.416.416.749.666,1.166-.083.083-.25.167-.333.25a.941.941,0,0,0-.749,1.083c.333.25.749.583,1.166.916l-.583.583a8.853,8.853,0,0,0,4.5,2,.636.636,0,0,1,.416.167c.333.833,1.083.666,1.749.749a1.544,1.544,0,0,1,.583.167c.333.583-.167.916-.416,1.249.083.083.083.167.167.167a3.92,3.92,0,0,0,1.332.333c.333.083.333.25.416.416a3.633,3.633,0,0,0,.833.666l-.833.833c.416.5,1,.333,1.5.5.416.167.5.416.583.833.416.083.749.167,1.166.25,0,.167,0,.333-.083.333a4.881,4.881,0,0,0-1.5,1.166c.583.333,1.166.083,1.749.25.333.333-.416.666-.083,1.083.167.25.749.25.666.749,0,.083.333.25.5.333a4.248,4.248,0,0,1,1.915,1,6.955,6.955,0,0,0,1.582.666v.666c.5.25.916.416,1.582.749l-1.166.583c.083.167.083.25.167.25.333.083.666.167,1.083.25a3.559,3.559,0,0,1,1.749.916,16.656,16.656,0,0,0,2.332,1.665c-.5.25-.916.416-1.249.583-.083.416.167.5.416.583a1.1,1.1,0,0,1,.833,1.083c-.083.083-.333.167-.666.416,1.166.333,2.332.416,3.331.749-1.083,0-2.165.083-3.248.083-.167.416.083.5.333.583.083,0,.083,0,.167.083.833.416,1.832.416,2.5,1.083s1.332,1.249,2.082,2a4.059,4.059,0,0,1-.916.333c0,.333.167.416.416.416a2.984,2.984,0,0,1,2,.749c-.25.167-.416.333-.666.5.25.333.5.749.749,1.083a2.119,2.119,0,0,0,1,.916,3.781,3.781,0,0,1,1.582,1.249,2.636,2.636,0,0,0,1,.666c.416.167.833.333,1.5.583-.416.167-.749.25-1.083.416a5.833,5.833,0,0,1,.666.833c-.333.167-.666.416-1.083.666a5.522,5.522,0,0,0,2.248,1.249,4.688,4.688,0,0,1,2.165,1.416c.25.416.833.583,1.332.833-.833.333-1.665-.416-2.665-.083.416.333.749.666,1.083.916.666.416,1.416.583,1.749,1.416a3.32,3.32,0,0,0,1.249.666c-.916,0-1.665.083-2.5.083.833.833,1.832.583,2.5,1.249a.638.638,0,0,1-.666.833,7.213,7.213,0,0,1-1.5.083c.833.333,1.332.5,1.915.749-.25.333-.416.583-.666.916.5.167,1,.333,1.416.5l-.666.666a9.234,9.234,0,0,0,1.832.583,11.785,11.785,0,0,0,1.665.333c-.25.666-1.083.167-1.5.749a6.189,6.189,0,0,0,2.748,1.416l-.25.749c.083.083.083.167.167.167a3.416,3.416,0,0,0,.916.083,2.034,2.034,0,0,1,1.832.833,3.889,3.889,0,0,1-.416.833,6.268,6.268,0,0,1-.749.749,4.6,4.6,0,0,0,1.832.083h1.416c.5.25.416.833.916.916.333.083.666.25,1,.333.083.25.167.5.25.833l-.5.749c.083.083.083.25.167.25a4.553,4.553,0,0,0,2.332.749,2.367,2.367,0,0,1,1,.333,3.889,3.889,0,0,1,.833.416c-.25.083-.583.25-.833.333-.083.333.167.333.333.416.583.083.833.583,1.249.833.083.833.833,1,1.416,1.166a16.847,16.847,0,0,0,2.165.333,5.9,5.9,0,0,0,1.166.083.731.731,0,0,1-.083.916c-.25.333-.5.583-.916,1.083,1.166.167,2.165.25,3.248.416-.167.25-.333.416-.5.666.167.167.416.25.583.416-.083.333-.083.583-.167.916a14.754,14.754,0,0,0-1.416.5c.333.583,1.249.167,1.332.916.583.167,1.083.25,1.749.5-.333.167-.5.333-.666.416,1,1,2.332,1,3.581,1.5a6.375,6.375,0,0,0-2.665,1.166,15.479,15.479,0,0,1,1.665.833,10.183,10.183,0,0,0,1.582,1,8.63,8.63,0,0,0,4.413,1c-.833.5-1.749.333-2.415,1.083.416.416.916.083,1.249.25.416.167.833.416,1.249.583a1.342,1.342,0,0,0-.583.333c1.665.583,3.248.5,5,1-1,.167-1.832.333-2.665.5.5.666,1.166.416,1.749.749-.167.333-.25.666-.416,1,.167.416,1,.5.749,1.166,0,.083.333.333.583.416a20.435,20.435,0,0,0,2.415.666,19.627,19.627,0,0,0,2.332.333,17.9,17.9,0,0,0,1.915-.167,2.09,2.09,0,0,1-.666.416,2.96,2.96,0,0,0-.749.333,2.892,2.892,0,0,0-.749.5c.749.25,1.416.083,1.915.583.167.167.5.083.749.083.583-.083,1.249-.083,1.832-.167h0c.083.167.083.416.167.666,1.166.083,2.332.167,3.664.25.167.25.5.583.833,1a9.132,9.132,0,0,0,3-1.749h0c0,.083.083.25,0,.333-.583.666-.5,1.582-1,2.415h.833c0,.416.25.583.583.833-.416.167-.749.333-1.332.583a2.975,2.975,0,0,0,1.749.416c.583.083,1.166.083,1.665.167a10.065,10.065,0,0,1,1.5.416c.5.167,1.083.333,1.749.583.167.083-.416.5.083.666a3.416,3.416,0,0,0,.916.083c.416.083.833,0,1.083.416.083.167.5.167.749.167H247.5a2.649,2.649,0,0,1,.749.25c-.25.666-.916.583-1.416,1,1.249.333,2.332.25,3.747.5-.666.167-1,.25-1.416.333.167.5.416.749.833.749.749.083,1.416.083,2.165.167,0,.25-.167.666-.083.749.583.5-.167.416-.25.749.583.5,1.416.083,2,.416-.083.583-.916.416-1,1.083,1.416-.083,2.665-.666,4.247-.666a3.438,3.438,0,0,1-1.582.749,2.136,2.136,0,0,0-1.332.833,4.3,4.3,0,0,0,.916.167,7.687,7.687,0,0,1-.416.666,7.336,7.336,0,0,0,2.748-.5,7.688,7.688,0,0,1,3.081-.666,13.459,13.459,0,0,0-2.831,2.248c.583.333,1-.083,1.332-.083a2.971,2.971,0,0,1,1.582-.167c-.833.416-1.416.666-2.165,1.083.25.25.333.583.5.583a1.7,1.7,0,0,0,.916,0c.583-.083,1.249-.083,2.165-.167-1.249.416-1.249.416-1.582,1.166.666.25,1.249.416,1.915.666.167.083.416.083.416.167.167,1,1.083.5,1.749.916-.5.167-.916.333-1.332.5v.167c.416.083.749.083,1.166.167,0,.25-.083.416-.083.749.833.083,1.665.083,2.581.167a7.281,7.281,0,0,1-.833.666c.833.083,1.5.167,2.415.333-.583.333-1,.583-1.5.916.583.5,1.166,0,1.749.083a2.494,2.494,0,0,1-.333.666c.25.333.5.167.833.083h0a4.619,4.619,0,0,1,.5.666,4.649,4.649,0,0,0-.666.416,5.645,5.645,0,0,0-.749.5c1.749.666,3.5.749,5.08,1.416,0,.5-.5.167-.749.5.333.416.916.416,1.416.666a5.928,5.928,0,0,1,1.749.916c-.916-.25-1.582-.333-2.248-.5a6.612,6.612,0,0,0-1.832-.083c.583.25,1.249.416,2.082.749-.5.083-.833.167-1.166.25a.291.291,0,0,0,.083.167c.416.167.916.333,1.332.5a7,7,0,0,0-1,.333,6.979,6.979,0,0,0,2.082.749,5.7,5.7,0,0,1,1.915.916,7.691,7.691,0,0,0-1.249-.083v.25c.333.333.833.583.916,1.166,0,.167.25.25.5.333s.583.167,1.249.333a16.221,16.221,0,0,0-1.915.5,10.841,10.841,0,0,0,1.166.416c1.249.167,2.581.333,3.831.416a4.035,4.035,0,0,1,2.165.583c.333.25,1,.25,1.416.416.25,1.083-.833,1.249-1.249,1.749.167.167.25.333.416.5l-1.5.749c-.333.25-.583.583-1,.916.333.083.5.25.749.25.583.083,1.166.167,1.665.25.583.083,1.249,0,1.5.749.083.167.5.25.833.333,1.083.416,2.165.833,3.164,1.249.333.167.583.333,1.083.583-.416.333-.749.167-1.083.167-.083,0-.167.083-.25.083.083,0,.167-.083.25-.083.167.25.25.416.416.666a3.826,3.826,0,0,1-1.332.583c-.416.083-.916.083-1.332.167-.083.416.167.5.416.583,1.332.416,2.665.749,4,1.166a16.684,16.684,0,0,1,2.165.833c-1.416,0-2.831-.333-4.5-.333a8.345,8.345,0,0,0,2.415.833,16.453,16.453,0,0,1,2.165.666c0,.083.083.167,0,.167a.291.291,0,0,1-.167.083c-.583,0-1.249.083-2.082.083a2.658,2.658,0,0,0,.583.5,6.94,6.94,0,0,0,1.249.333c-.083.25-.083.5-.167.749.916.25,1.749.5,2.665.749,0,.167-.083.25-.083.333s-.083.167-.083.333l2,.749v.167c-.749-.083-1.5-.167-2.415-.25l.333.666a13.4,13.4,0,0,0,2.831,2c.333.167.583.333,1.166.666a14.129,14.129,0,0,1-2.248-.25c-.083.333.167.416.333.583l1.749,1.249a10.551,10.551,0,0,1,1.083.916c.749.749,1.5,1.582,2.332,2.415l-.416.416c-.5.167-.833-.5-1.416-.167a22.5,22.5,0,0,0,4.164,2.748c-.083.416-.25.833-.333,1.249.749.666,1.5,1.249,2.165,1.915a9.7,9.7,0,0,1,2.581,3.248,7.5,7.5,0,0,0,.833,1c-.749.167-1.166-.333-1.749-.333-.25.167,0,.333.083.5a6.292,6.292,0,0,1,1.915,2c.167.416.749.666,1.166.916a2.462,2.462,0,0,1,1.249,1.332c.083.333.666.583,1.166.916-.5-.083-.833-.083-1.249-.167-.083.583.583.749.666,1.249a2.772,2.772,0,0,0-.25.5c.666.583,1.332,1.249,2.082,2-.333.083-.583.083-.916.167.5.749,1.332,1,1.832,1.749a1.74,1.74,0,0,0-.5.333c.333.749,1.083,1.082,1.5,1.749-.083.333-.167.749-.25,1.166.083.083.167.25.25.333.583.583,1.249,1.166,1.832,1.749a.779.779,0,0,1,.083,1.083h-1.332c.749,1.332,2,1.749,3.164,2.415.167.5.416,1,.583,1.5a2.208,2.208,0,0,0-.5.416c.5.416.916.749,1.416,1.166-.167.333-.333.749-.5,1.166.666.749,1.416,1.665,2.082,2.5a3.528,3.528,0,0,0-.416.583,14.921,14.921,0,0,0,2.5,3.164c-.25.5-.666-.083-1,.167,0,.5.5.666.749,1.083a12.228,12.228,0,0,0,.833,1.083c.25.416.5.833.749,1.166.25.416.416.833.666,1.249-.167.167-.333.25-.5.416a26.938,26.938,0,0,0,2.332,3.914c.583.833,1.083,1.665,1.582,2.5.083.083.167.333.083.416-.416.583,0,1,.333,1.416s.583.833.916,1.249c.25.416.666.833.333,1.416-.083.167.083.583.25.833.749,1.332,1.5,2.748,2.332,4.08a2.475,2.475,0,0,1,.666,1.665,1.263,1.263,0,0,0,.333.666c.333.5.666.916,1,1.416.167.25.416.416.416.666,0,1,.666,1.582,1.166,2.332.833,1.249,1.665,2.415,2.415,3.581.167.333.25.666.416,1a4.879,4.879,0,0,0,.916.749,3.427,3.427,0,0,0-.749.167c0,.583.5.916.749,1.332.083.25.416.5.416.666-.333.75.25,1.083.583,1.582.333.416,0,.749-.167,1.166.25.083.416.25.666.333a6.053,6.053,0,0,0,.749.416c-.167.167-.25.333-.333.416.833,1.332,1.749,2.581,2.581,4a6.135,6.135,0,0,1-1.166.333,12.458,12.458,0,0,0,.916,1.083c.333.25.333.583.5,1,.083.333,0,1,.666,1.083.333.083.25.333.167.583,0,.167.25.416.333.666a4.944,4.944,0,0,1-.666.333,4.833,4.833,0,0,1,1.332,1.249,2.729,2.729,0,0,1,.25,1.665c0,.167.25.416.416.583.167.25.167.25,0,.916a14.5,14.5,0,0,0,1.166,1,1.091,1.091,0,0,0,.333,1.083c.5.416,1.166.75,1.249,1.5a9.158,9.158,0,0,0,1.166.75c.583.25,1.083.5.749,1.249.749.583,1.665.666,2.248,1.332a.306.306,0,0,0,.25.083c1.166,0,2.248.416,3.414.167a5.043,5.043,0,0,1,1.582,0,5.6,5.6,0,0,0,1.665.083c.333,0,.583.083.916.083.167,0,.416.083.583.083,1.082-.083,2.165-.25,3.248-.416a4.132,4.132,0,0,1,1.083-.25,2.1,2.1,0,0,0,1.416-.5,1.631,1.631,0,0,1,1.582-.333,2.311,2.311,0,0,0,1.5,0c.25-.083.583-.083.916-.167,1.166-.25,2.332-.5,3.5-.833.916-.25,1.832-.666,2.748-1a5.586,5.586,0,0,0,1.166-.749,10.03,10.03,0,0,0,.833-.916c.25.083.416.083.666.167a.8.8,0,0,0,.833-.25c1.083-1,2.165-1.915,3.164-2.915a.8.8,0,0,1,.749-.167h0a3.259,3.259,0,0,0-.666.833,6.21,6.21,0,0,0-.583,1c.25.333.666-.25.833.25,0,.083.333,0,.5-.083.333-.167.583-.583,1.083-.5h0c.416.333,1-.333,1.416.083.5-.167.916-.5,1.5-.333.167,0,.416-.25.666-.416.333-.333.666-.583,1-.916a3.522,3.522,0,0,1,.416.583,36.415,36.415,0,0,1,3.081-2.415c-.416.666-.583,1.083-.833,1.416.333.25.5,0,.666-.167.916-.749,1.832-1.582,2.831-2.5a4.8,4.8,0,0,1-.666,1.166c-.25.416-.583.749-.833,1.166-.25.333-.583.583-.5,1.166a5.054,5.054,0,0,1,1.166-.583,3.569,3.569,0,0,0,1.332-.416c.416-.25.833-.5,1.166-.75a2.633,2.633,0,0,1,1.416-.5c-.583.583-1.166,1.249-1.915,2a12.241,12.241,0,0,1,2.165-.416c.416-.083.833-.416,1.332.083.25.25.749,0,1.166.083a2.785,2.785,0,0,0,2-.167m2.332.583M96.023,352.815a2.432,2.432,0,0,0-.749-.167c-.25-.416-.666-.333-1.083-.167-.167-.5-.583-.416-1-.333a.306.306,0,0,0-.083-.25h-.25l.083.083c.083.083.167.083.25.167.333.083.666.25.916.333.333.083.666.083,1.083.167a.822.822,0,0,0,.833.167c.167.333.416.333.749.25.083.333.333.416.666.333,0,.25-.083.583.416.583a3.625,3.625,0,0,0-.5-.583c-.25-.083-.416-.167-.666-.25A1.674,1.674,0,0,0,96.023,352.815Zm-4.247,5.912a.306.306,0,0,0,.083.25.365.365,0,0,0-.083-.25c.25,0,.583-.083.916-.083.083.083.167.167.25.167a7.068,7.068,0,0,0,3.5-.583c.083,0,.083-.167.083-.25h.167c.333,0,.666.167.749-.25a.682.682,0,0,0-.333-.833,3.079,3.079,0,0,0-.916-.416,2.35,2.35,0,0,0-.333,1.249c-.416-.167-.916-.416-1.249,0a1.6,1.6,0,0,1-1.416.5c-.25,0-.583.083-.583.5A1.389,1.389,0,0,0,91.776,358.728Zm235.578,199.6h.25a.081.081,0,0,1,.083-.083c-.083,0-.25.083-.333.083A.812.812,0,0,0,326.6,558a4,4,0,0,0,0-1,4.138,4.138,0,0,0-1.665-1.416c.666.916,1.166,1.665,1.749,2.5A1.33,1.33,0,0,1,327.354,558.332Zm-196.19-85.188h0a3.606,3.606,0,0,1,.083.416.371.371,0,0,0,.167.5h.25a.082.082,0,0,0,.083-.083h-.167c-.083,0-.167.083-.25.083.167-.333.416-.666.583-1h0c-.083-.083-.083-.167-.167-.25-.25-.333-.333-.333-.583,0Zm123.493,63.37a.487.487,0,0,0,.416-.666c-.416.083-.333.416-.416.666,0,.333-.083.583-.083.833-1.416.666-1.582.916-1.665,2.665.083,0,.167-.083.25-.083a1.063,1.063,0,0,0-.167,1c.416-.167.833-.416,1.249-.583-.333.583-1,1-1.249,1.749,1-.416,1-.5,2-2.165-.333.167-.583.333-.749.416.333-.5.666-1.083,1-1.582.083-.167.25-.333-.083-.5-.833.333-1.083,1.416-2,1.665.5-.916,1-1.749,1.416-2.665C254.574,537.1,254.657,536.765,254.657,536.515ZM141.24,587.644c-.167.083-.333.25-.5.333-.25.25-.25.666-.083.583a1.815,1.815,0,0,0,.416-.333,5.3,5.3,0,0,1,.167-.583c0-.167-.083-.333-.083-.5-.083,0-.25,0-.25.083a.631.631,0,0,0-.167.333c.083,0,.167.083.25.083Zm-.833-103.924c-.583.167-.666.666-.5,1.249a9.692,9.692,0,0,1,.5-1.249c0-.083.083-.167.083-.25v-.083c-.083.083-.167.083-.167.167A.258.258,0,0,0,140.407,483.72Zm114.666,38.222c.749,0,.749,0,1.083-.5a.624.624,0,0,0-.416.083,2.919,2.919,0,0,1-.666.416,642.544,642.544,0,0,0-.167.167C254.99,522.025,255.074,522.025,255.074,521.942ZM129.915,473.061c-.083-.25.333-.583,0-.833-.25.167-.583.25-.416.666a.636.636,0,0,1,.416.167.624.624,0,0,1,.083.416c.5-.25.5-.25.5-.666A4.072,4.072,0,0,1,129.915,473.061Zm125.658,73.78c.083-.167.083-.333.167-.5,0-.25-.083-.333-.333-.167a.411.411,0,0,0,.083-.583c-.083-.083-.333.083-.5.083-.083,0-.167.083-.25.167a4.459,4.459,0,0,0,.416-.916c.083-.25.083-.583.167-.833a.082.082,0,0,0-.083.083h.167a17.425,17.425,0,0,0-1.166,1.416.381.381,0,0,0,.167.666c.167-.083.333-.25.5-.333.167.25.25.583.666.416-.416.25-.333.333,0,.5a2.432,2.432,0,0,1-.167.749,3.251,3.251,0,0,0-1.749,2.332,10.647,10.647,0,0,0,1.749-2.332l.416-.416C255.906,547.007,255.906,546.841,255.573,546.841Zm24.649-42.219c-.083.167-.083.25-.167.416v.167c0-.083.083-.083.083-.167a.751.751,0,0,0,.083-.416c-.083-.583-.25-1.083-.333-1.665a6.3,6.3,0,0,0-.083,1.249C279.889,504.288,280.139,504.455,280.222,504.621ZM127.833,469.564c-.916.333-.916.333-1.166,1.166.416-.333.916-.583,1.166-1.166.25-.083.583-.083.5-.666A6.631,6.631,0,0,0,127.833,469.564Zm163.381,38.8c0-.083-.083-.167-.083-.25a.365.365,0,0,1,.083.25c.416,1.083.416,1.083,1.166,1.5C292.13,509.118,291.963,508.535,291.214,508.369Zm-37.972,27.98c-1.166.333-1.582.666-1.665,1.832.583-.666,1.332-1.083,1.665-1.832,1.166-.583,1.166-.583,1.249-1.332C254.074,535.432,253.325,535.6,253.242,536.348Zm2.082-19.9h-1.665c-.167,0-.416.083-.333.416.749.333,1.416-.25,2-.416a.906.906,0,0,0,.833.583,2.4,2.4,0,0,0,1.832-.583,7.7,7.7,0,0,1-1.249.083C256.24,516.613,255.74,516.779,255.324,516.446ZM94.358,349.9h-.583v.083a1.417,1.417,0,0,0,.583-.083,6.014,6.014,0,0,0,3.248,1.332c.083.5.666.583,1,.833.749.5,1.582,1,2.332,1.5.167.167.416.333.167.749-.25,0-.5-.083-.666-.083s-.5,0-.5.167c-.333.583-.749.083-1.083.167-.25.25-.416.583-.666.833s-.583.416-.833.666a1.573,1.573,0,0,0,1.083,1.083c.583-.167,1.166-.416,1.749-.583.167.167.333.416.583.5.167.167.25.583.666.416-.25-.5-.5-.916-.749-1.416a10.4,10.4,0,0,0,1-.749,1.5,1.5,0,0,1,1.332,0,4.681,4.681,0,0,1,1.083.583,1.835,1.835,0,0,1-.5-1.5.91.91,0,0,0-1.083-1,2.293,2.293,0,0,1-1.832-.5c-.583-.416-1.249-.833-1.832-1.166a3.568,3.568,0,0,0-1.332-.416c-.416-.583-1.083-.583-1.582-.833A12.144,12.144,0,0,0,94.358,349.9ZM258.321,557.666a1.007,1.007,0,0,0-.583,1.083c.749-.416.749-.416.833-1.249-.083,0-.167.083-.25.167a11.484,11.484,0,0,0,1.166-2.5c-.416.25-.666.333-.916.5.167-.416.333-.916.5-1.416-.25.083-.333,0-.416.083l-1.249,1.749a1.2,1.2,0,0,0,.167.25c.333-.25.583-.5.916-.75a3.624,3.624,0,0,1-.833,1.582c-.167.167-.167.416,0,.5A1.79,1.79,0,0,0,258.321,557.666ZM148.568,591.641c.25-.25.666-.333.583-.833a1.014,1.014,0,0,0-1,.5.586.586,0,0,1,.416.333,9.952,9.952,0,0,0-1.332.666c-.167.083-.167.25-.333.5a2.616,2.616,0,0,0,2.581-1.083A4.09,4.09,0,0,0,148.568,591.641Zm42.552-90.934c.833.666,1.665.416,2.581.25-.167-.583-.416-.833-.916-.749-.333.083-.666.167-1.083.25l.25-.749c.083,0,.167-.083.25-.083-.083,0-.167.083-.25.083a3.936,3.936,0,0,0-3,1.832A13.048,13.048,0,0,0,191.12,500.708Zm90.184,3.248c.25.583.416,1.083.666,1.666.083.25.167.583.583.666l.25-.5.749.75a1.184,1.184,0,0,0,.083-1.166c.333.583.749,1.083,1.083,1.665a.291.291,0,0,0,.167-.083c-.083-.5-.167-.916-.25-1.416.333.666.666,1.416,1.083,2.082.083.25.167.5.583.416a5.843,5.843,0,0,1,.083-2.082c.083-.25-.167-.583-.333-.916-.167.25-.25.416-.416.666-.25-.416-.416-.749-.666-1.166-.5.333-.333.666-.333,1.083-.25-.416-.583-.833-1-1.416v1.249c-.333-.666-.666-1.249-1.083-2.082a3.464,3.464,0,0,0-.083,1.832c-.333-.75-.749-1.5-1.166-2.415a2.722,2.722,0,0,1,0,1.166c-.167-.167-.333-.416-.583-.666-.25,1.749-.25,1.749.583,2.581C281.638,505.2,281.3,504.621,281.3,503.955Zm12.824,6.995c0,.083.083.167.083.25,0-.083-.083-.083-.083-.25-.5-1.582-1.249-2.831-2.082-3.164a6.449,6.449,0,0,0,.583,1.332C293.046,509.784,293.3,510.617,294.129,510.95ZM257.9,514.781c-.083-.333-.25-.583-.583-.583a5.054,5.054,0,0,0-2.915.833c1.332-.083,2.415-.167,3.5-.25.083.083.083.167.167.25a6.463,6.463,0,0,0,2.748.75,3.743,3.743,0,0,0,.666-.167A4.723,4.723,0,0,0,257.9,514.781Zm1.249,46.133c.666-.583.666-.583.666-1.249h-.5c.583-1.5.583-1.5.25-2.248-.666.916-.583,2-1,2.831.25.25.416.5.583.666a2.207,2.207,0,0,1-.416.5C259.071,561.413,259.154,561.247,259.154,560.914Zm10.076,11.825a4.18,4.18,0,0,0-.167,1c0,.083.25.25.333.333.083-.167.25-.333.25-.5.083-.333-.167-.583-.416-.833-.25-.583.25-1.083.083-1.749-1.332,1.665-1.582,2.581-.916,3.747C268.98,574.154,268.814,573.321,269.23,572.738Zm.833-66.368c-.333-.5-.583-1-.916-1.416-.333-.5-.416-1.166-1.249-1.749a42.32,42.32,0,0,0,1.5,4.58c.167.5.666.416,1,.25a8.4,8.4,0,0,0-.333-1.665c.333.416.666.833,1.083,1.332-.167-1.166-.167-1.332-1.083-2Zm-3.581,63.2c-.583,0-.583.5-.666.833a19.553,19.553,0,0,0,.083,2.165c0,.167.167.333.167.5a1.33,1.33,0,0,0,1.083-1.249,10.14,10.14,0,0,0,0-2.248,2.432,2.432,0,0,1-.749.167c.083,0,.083-.083.083-.166v-.167l-.083-.083C266.4,569.407,266.482,569.491,266.482,569.574Zm-15.405-48.8c.333-.083.583-.083.916-.167a6.173,6.173,0,0,1,3-.5,4.177,4.177,0,0,0,1.416-.083c.666-.083.666-.25.416-1.166a8.916,8.916,0,0,0-5.579,1.582c-.083,0-.083.25-.167.333s-.167.083-.167.167A.179.179,0,0,1,251.077,520.776Zm26.9-18.32c-.333-.25-.583-.5-.916-.749a5.8,5.8,0,0,0,1.665,4.663c0-.25.083-.416.083-.666,0-.416.416-.167.5-.333a.636.636,0,0,0,.167-.416,3.541,3.541,0,0,0-.167-.916c-.333-.75-.583-1.416-.916-2.082a1.576,1.576,0,0,0-.5-.333c0,.416.083.583.083.833ZM265.233,508.7h-.25a.082.082,0,0,1-.083.083c.167,0,.25-.083.333-.083.083.25.167.583.25.833a8.128,8.128,0,0,0-1.915-.5,2.443,2.443,0,0,1-1.332-.333c-.749-.583-1.5-1.083-2.248-1.665a12.25,12.25,0,0,0-1.083-.833c0,.333.083.583.25.666.916.916,1.749,1.915,2.748,2.748a4.22,4.22,0,0,1,1.416,2,3.7,3.7,0,0,0-2.915-1.332,3.765,3.765,0,0,0,.583.583l2.248.75c.167-.416.5-.25.749-.25a7.014,7.014,0,0,0,2.248-.666c-.25-.583-.916-.583-1-1.249.5-.083.749.25,1.083.5a8.567,8.567,0,0,0,2.248,1.249c.083-.167.167-.25.167-.333a4.825,4.825,0,0,0-2.082-3.414c-.167-.083-.333-.25-.5-.333s-.333-.25-.5,0a9.345,9.345,0,0,1,.416,1.083h0c-.333-.167-.666-.25-1-.416a.291.291,0,0,0-.167.083c.083.416.666.5.749,1.166A.831.831,0,0,0,265.233,508.7Zm6.912,69.033h0a2.922,2.922,0,0,0,.416.666c.167.167.333.167.583.333a11.6,11.6,0,0,1-3.164.749,39.629,39.629,0,0,1-5.413.5c-.25,0-.5,0-.5.416.167.083.25.167.416.167,1.332,0,2.665,0,4.08-.083a44.557,44.557,0,0,0,4.663-.583,19.82,19.82,0,0,0,2.165-.416c.25-.083.5-.083.5-.416-.916-.333-.916-.333-.749-.916-.333-.083-.666-.083-.833-.25-.25-.167-.333-.5-.666-.5-.083,0-.167-.416-.25-.833-.5.333-.916.583-1.332.833.167-.416.333-.749.5-1.166.167-.333.25-.666-.167-.916-.167-.083-.083-.5-.083-.75a2.306,2.306,0,0,0-.749.083c-.749-1.083-.083-2.415-.333-3.664a4.97,4.97,0,0,0-.833,3.414,3.58,3.58,0,0,1,.167,2.082c0,.083.083.167.167.25.25-.083.583-.083.833-.167-.083.5.167.666.583.75C271.978,577.4,272.061,577.568,272.145,577.735ZM152.9,531.269c-.083-.083-.167-.083-.25-.167-.25.25-.583.416-.666.749-.25.583-.5,1.249-.749,1.915s-.333,1.332-.583,1.915c-.5,1.166-.5,2.415-.916,3.5a4.781,4.781,0,0,0,.583.333c.5.25.833.167,1-.333a1.544,1.544,0,0,0,.167-.583c.333-1.332.666-2.581,1-3.914.167-.666.833-1.416.167-2.165-.083-.083.083-.416.083-.583C152.815,531.768,152.815,531.518,152.9,531.269Zm-1.582.25a.905.905,0,0,0,.833-.583,16.712,16.712,0,0,0,1.083-4c-.25-.083-.416-.167-.666-.25a11.847,11.847,0,0,0,.416-1.332c.083-.416.333-.833.083-1.332a5.976,5.976,0,0,1-.167-1.416c-1.083.916-1.083,2.082-1.665,3.081.416,0,.583-.083.833-.083.25,1.5-.749,2.748-1.083,4.164.25.083.5.083.666.167C151.732,530.436,151.15,530.852,151.316,531.518ZM89.278,347.07c1.416.167,2.415.25,3.414.416a25.018,25.018,0,0,1,8.494,2.5,32.293,32.293,0,0,1,6,3.914c.167.167.333.416.666.25C104.1,349.818,95.274,346.32,89.278,347.07Zm12.741-26.814a3.978,3.978,0,0,1-.416,1,1,1,0,0,1-1.915-.083c-.083-.25-.083-.583-.167-.916-.083-.25-.333-.5-.583-.416a1.062,1.062,0,0,0-.583.416,1.989,1.989,0,0,0-.167.749,3.269,3.269,0,0,0,.666,2.082,3.892,3.892,0,0,0,3.164-.749c.583-.333,1.332-.666,1.416-1.582A7.33,7.33,0,0,1,102.019,320.256Zm90.268,193.859a12.189,12.189,0,0,0-3.248-.583c-.749-.083-1.166.416-1.749.666a.48.48,0,0,0-.25.666.972.972,0,0,0,.5.5,12.871,12.871,0,0,0,2.581.333v-.666A16.9,16.9,0,0,1,192.286,514.114Zm-6.662,4.663a1.663,1.663,0,0,0,.666.25,7.5,7.5,0,0,1,1.332.25,2.345,2.345,0,0,0,2.415-.583,1.549,1.549,0,0,0-1.416-.75A4.263,4.263,0,0,0,185.624,518.778Zm63.121,15.072c.167-.083.333-.083.416-.167,1.5-1.5,2.915-3.081,4.413-4.663.083-.083,0-.167,0-.333a4.287,4.287,0,0,0-2.082,1.332A9.691,9.691,0,0,0,248.745,533.85Zm-96.763-37.473a1.293,1.293,0,0,0-1.166.666l-2.5,3.747c-.083.083,0,.25,0,.583C149.984,499.958,151.483,498.709,151.982,496.377Zm-89.1-144.062a56.111,56.111,0,0,1-2.248-7.328c0-.083-.167-.083-.25-.167A11.315,11.315,0,0,0,62.881,352.316Zm198.772,210.43a1.736,1.736,0,0,0-.916,1.749c.083.749.167,1.416.25,2.165a5.094,5.094,0,0,0,.416,1,.32.32,0,0,0,.583,0c-.167-.833-.416-1.582-.5-2.415C261.486,564.328,261.652,563.5,261.652,562.746ZM191.7,511.783a5.419,5.419,0,0,0-4.5-.416c-.083,0-.167.167-.333.333a5.356,5.356,0,0,0,2,.833C189.455,511.7,190.621,512.2,191.7,511.783Zm1.915-8.077a6.287,6.287,0,0,0-3.081.083,2.159,2.159,0,0,0-1.5,1.332c1-.167,1.915-.25,2.831-.416a2.493,2.493,0,0,0,.833-.333C193.036,504.288,193.2,504.122,193.619,503.705Zm80.774,2c.25.333.583.666.833,1a7.3,7.3,0,0,0-.833-3.331c-.083,0-1.166-.416-1.166-.416a8.914,8.914,0,0,0,.5,2.665A1.433,1.433,0,0,0,274.393,505.7ZM76.7,321.5a9.1,9.1,0,0,1-.5.916.555.555,0,0,1-.833,0,2.492,2.492,0,0,1-.333-.666c-.083-.167-.25-.416-.333-.583a.892.892,0,0,0-.833.749,1.866,1.866,0,0,0,1.083,1.832A2.236,2.236,0,0,0,76.7,321.5Zm72.364,272.551c-.5.083-.833,0-1.083.167a4.881,4.881,0,0,0-2.332,2.165c.666.583.749.583,1.249.5.333-.083.416-.333.5-.666a2.156,2.156,0,0,1,.583-.916A6.736,6.736,0,0,1,149.068,594.056Zm37.722-84.438c.083.167.167.25.167.333,1.166.333,2.165-.25,3.331-.416a.536.536,0,0,0,.583-.5,9.382,9.382,0,0,1-1.5-.25A2.474,2.474,0,0,0,186.79,509.618ZM68.044,348.4c-.833-.167-1.582-.5-2.415,0a1.23,1.23,0,0,1-.749-.083,4.285,4.285,0,0,1-2.165-1.166,2.815,2.815,0,0,0,2.248,1.749A3.355,3.355,0,0,0,68.044,348.4Zm182.7,185.781a9.236,9.236,0,0,0,4.5-3.581c-.416.25-.833.333-1.083.5A20.054,20.054,0,0,0,250.744,534.183Zm-66.368-12.075a1.82,1.82,0,0,0,.25.416c.749.583,1.582.25,2.332-.083.083-.083.25-.25.25-.333a1,1,0,0,0-.416-.416A3.94,3.94,0,0,0,184.375,522.109Zm71.781.416c-1.749.25-1.915.25-2.915.916-.583.333-.583.333-1,1A10.013,10.013,0,0,0,256.156,522.525Zm59.54,14.823c1.665.167,2.665-.167,3.164-1.166-.25,0-.583-.167-.749-.083a12.134,12.134,0,0,0-1.582.583C316.2,536.848,315.779,536.931,315.7,537.347Zm-64.2-10.909a6.431,6.431,0,0,1,.833.083,28.731,28.731,0,0,0,3.581-1c.083,0,.083-.167.083-.333-1.249.25-2.415.416-3.664.749C252.076,525.939,251.909,526.106,251.493,526.439Zm12.075,43.052a7.3,7.3,0,0,0-.167-2.5c0-.083-.083-.083-.167-.083-.666.666-.5,1.5-.583,2.248C262.985,569.241,263.318,569.407,263.568,569.491Zm2.082-1.249c-.916.916-1.665,1.665-1.083,2.831.25.083.5.083.833.167C265.316,570.24,265.816,569.407,265.649,568.242Zm-7.328-15.988c-.5.25-.833.5-.916,1a3.724,3.724,0,0,1-1.083,1.832c-.167.167-.416.333-.5.583a.525.525,0,0,0,.167.833A10.123,10.123,0,0,0,258.321,552.253Zm-108-31.56a7.274,7.274,0,0,0,2.332-2.581c.083-.167,0-.333-.083-.833C151.732,518.528,150.4,519.194,150.317,520.693ZM261.4,559.581a4.728,4.728,0,0,0-1,1.915c-.25,1.083-.333,1.166-.083,1.915C260.9,562.163,261.652,561.163,261.4,559.581Zm10.326-57.541c0,2.082.333,3,1.249,3.664A6.916,6.916,0,0,0,271.728,502.04Zm16.9,5.579a2.539,2.539,0,0,0-.749-1.749c-.583.167-.749.25-.666.583.167.5.416,1.083.583,1.582,0,.083.167.083.25.167Zm-138.732-6c.25.5.5.749.916.416.333-.333.749-.583.5-1a2.958,2.958,0,0,0-.333-.749,1.859,1.859,0,0,0-.583.583A3.912,3.912,0,0,1,149.9,501.624Zm176.2,47.8a2.972,2.972,0,0,0-2.165.25c-.25.083-.666.083-.583.583A3.774,3.774,0,0,0,326.105,549.422ZM149.984,511.866c.583,0,.916-.666,1.5-.25.167.083.583-.5.5-.833a.62.62,0,0,0-.833-.25A2.671,2.671,0,0,0,149.984,511.866Zm.916-8.993c-1.416.749-1.5.833-1.832,1.749a2.048,2.048,0,0,0,1.832-1.166C150.983,503.289,150.9,503.039,150.9,502.873Zm125.908,2c0-.25.083-.416.083-.583-.25-.833-.416-1.665-.666-2.5,0-.167-.167-.25-.25-.333A4.692,4.692,0,0,0,276.808,504.871Zm-125.075.666c-1.332-.083-1.582-.083-1.749.25a2.064,2.064,0,0,0,0,1.416A4.149,4.149,0,0,0,151.732,505.537Zm-2.165,4.164c.666-.167,1.166-.333,1.665-.5a.922.922,0,0,0,.749-1C150.483,508.369,150.317,508.452,149.567,509.7Zm175.289,34.891a4.733,4.733,0,0,0-3.831.083c1.249.083,2.332.083,3.414.167C324.523,544.842,324.606,544.759,324.856,544.592ZM191.2,496.461c1.749,0,2.248-.083,2.915-.749C192.453,495.628,191.87,495.794,191.2,496.461Zm79.858,7.578a2.42,2.42,0,0,0,.416,1.832c.416.916.416.916,1.083,1.332A5.85,5.85,0,0,0,271.062,504.038Zm-18.736,30.395a4.079,4.079,0,0,0-2.082,1.5A2.605,2.605,0,0,0,252.326,534.433ZM191.12,498.542a2.8,2.8,0,0,0,2.415-1.083A2.8,2.8,0,0,0,191.12,498.542ZM127.25,466.9a2.212,2.212,0,0,0-2,.916c-.167.167-.333.416-.083.666A4.251,4.251,0,0,0,127.25,466.9Zm24.815,45.883-.083-.083h-.167a5.219,5.219,0,0,0-1.332,2.248A2.549,2.549,0,0,0,152.066,512.782Zm-11.159,76.444c-.833-.083-1,.25-1.665,2.248a.506.506,0,0,0,.749-.333A5.8,5.8,0,0,1,140.907,589.226Zm182.867-37.889a3.077,3.077,0,0,0,2.5-.5C325.273,550.421,324.606,551,323.774,551.337Zm-185.864,43.3q1.874-.125,1.5-1.5C138.742,593.39,138.409,593.973,137.909,594.639ZM259.737,511.7a14.882,14.882,0,0,0,2,1c.083,0,.167-.083.25-.083C260.986,511.45,260.986,511.45,259.737,511.7Zm58.208,27.23c1.083.416,1.166.416,1.832-.75A2.81,2.81,0,0,0,317.945,538.93Zm5.246,3.581a2.46,2.46,0,0,0-1.582-.333c-.167,0-.416.083-.333.416A1.97,1.97,0,0,0,323.191,542.51ZM147.236,590.725c.833-.25,1.5-.25,1.915-1a.987.987,0,0,0-.666-.083A1.74,1.74,0,0,0,147.236,590.725Zm2.581-2.415-.083-.083c-.666-.167-1,.25-1.416.666,0,0,0,.25.083.25.583.25.916-.25,1.249-.583C149.734,588.56,149.734,588.477,149.817,588.31ZM90.943,359.477a12.432,12.432,0,0,0-1,1.166c-.083.083.083.333.083.583a10.407,10.407,0,0,0,1-.666A5.122,5.122,0,0,0,90.943,359.477ZM262.485,580.066a1.618,1.618,0,0,0-1.332-.25c-.083,0-.167.167-.167.25a.306.306,0,0,0,.083.25C261.569,580.732,261.652,580.649,262.485,580.066Zm57.958-34.558c1.582.25,2.082.25,3-.167A12.312,12.312,0,0,0,320.443,545.508Zm-169.959-50.38c-1.249.167-1.332.25-1.416,1.166C149.651,495.961,150.234,495.794,150.483,495.128Zm173.04,57.042c.666.416.666.416,2.248.167-.833-.083-1.5-.167-2.082-.25C323.607,552.087,323.607,552.087,323.524,552.17ZM148.568,491.548c-1.416.167-1.416.167-1.749.833A1.679,1.679,0,0,0,148.568,491.548Zm104.007,52.379c1.083-.583,1.332-.75,1.665-1.832A7.066,7.066,0,0,0,252.576,543.926Zm23.316-38.639c-.167-1.416-.167-1.416-.833-2C274.893,504.038,275.309,504.538,275.892,505.288ZM151.066,586.312a2.366,2.366,0,0,0-2,.666C149.9,587.228,150.317,586.811,151.066,586.312Zm138.9-79.026c-.25,1-.25,1,.666,1.665A7.713,7.713,0,0,0,289.965,507.286Zm-145.894-22.15c-1.083.833-1.083.833-1.416,1.832A2.928,2.928,0,0,0,144.071,485.136Zm3,4.164c-1.249.333-1.249.333-1.582,1.249A3.332,3.332,0,0,0,147.069,489.3Zm-16.321-18.736c-1,.25-1,.25-1.249.916A2.135,2.135,0,0,0,130.748,470.563Zm-3.081.5c.833-.25.833-.25,1.166-.833C128.083,470.313,128.083,470.313,127.667,471.062ZM150.9,521.609c0,.083.083.083.083.167h.167a1.652,1.652,0,0,0,.583-1.665C151.233,520.776,150.9,521.109,150.9,521.609Zm31.727,56.709a1.861,1.861,0,0,0,1.249-1.249C183.126,577.318,183.126,577.318,182.627,578.318Zm72.114-28.562a1.149,1.149,0,0,0,.333.25c.167-.5.916-.5.833-1.332C255.407,549.089,255.074,549.422,254.741,549.755Zm-2.915-21.234c.749-.5,1.166-.749,1.582-1C252.825,527.521,252.159,527.438,251.826,528.521Zm-113.5,64.12c.833.333.833.25,1.249-.666A1.581,1.581,0,0,0,138.326,592.641Zm10.576.583a1.538,1.538,0,0,0-1.582.416A1.073,1.073,0,0,0,148.9,593.223Zm179.7-33.392c-.083.083-.083.167-.167.25a1.493,1.493,0,0,0,.583.416c.083.083.25-.083.416-.083-.083-.083-.083-.333-.167-.333C329.02,560,328.853,559.914,328.6,559.831ZM151.982,522.275c.5-.5.833-.833.583-1.332C152.149,521.109,151.982,521.442,151.982,522.275Zm93.1,57.874c-.167.167-.333.167-.416.333-.083.25.167.5.5.5.083,0,.25-.167.333-.167A2.307,2.307,0,0,0,245.081,580.15ZM323.94,547.09a1.91,1.91,0,0,0-1.665.167C322.941,547.174,323.441,547.423,323.94,547.09Zm-182.7-61.039c.333-.167.749-.25.833-.833C141.49,485.385,141.24,485.635,141.24,486.052Zm54.377,7.744c-.833-.583-.833-.583-1.5-.583C194.618,493.546,194.951,494.046,195.617,493.8ZM96.439,290.028a.905.905,0,0,0-.416.083.433.433,0,0,0-.167.333c.083.083.167.167.25.167.167,0,.333-.167.5-.25a.115.115,0,0,0,0-.167ZM241.167,581.648c-.333-.167-.5-.333-.666-.333s-.416,0-.416.25c0,.167.25.333.416.333S240.834,581.732,241.167,581.648Zm13.24-29.062c.25.167.416-.083.5-.167.083,0,.083-.167.083-.25-.167,0-.25,0-.333.083S254.491,552.5,254.408,552.586Zm2.831-.333c-.083-.083-.083-.167-.167-.25-.167.167-.416.333-.583.5l.167.167A2.531,2.531,0,0,0,257.239,552.253ZM151.982,514.781c-.5.167-.749.333-.583.833C151.732,515.53,151.9,515.2,151.982,514.781Zm97.845,65.286c-.083-.167-.167-.333-.25-.333s-.333,0-.416.083c-.167.083,0,.416.25.416C249.494,580.233,249.578,580.15,249.828,580.066Zm-111.169-97.1c.5,0,.666-.167.666-.583A4.757,4.757,0,0,0,138.659,482.97ZM252.909,535.6c.25.083.5-.25.416-.5,0-.083-.167-.083-.25-.083-.083.083-.25.167-.333.333A1.2,1.2,0,0,0,252.909,535.6ZM59.883,347.652a.291.291,0,0,0-.167.083c.083.083.083.25.167.333h.083A.906.906,0,0,1,59.883,347.652ZM320.359,540.179c-.083,0-.167-.083-.25-.083s-.167.083-.25.167a.433.433,0,0,0,.333.167C320.276,540.429,320.359,540.262,320.359,540.179ZM259.4,514.031a1.462,1.462,0,0,0,.416.333c.083,0,.167-.083.333-.167-.083-.083-.083-.167-.167-.167A1.361,1.361,0,0,0,259.4,514.031Zm-75.2,61.955c-.083-.083-.167-.083-.167-.167-.083.083-.25.167-.333.25-.083.167-.333.25.083.5C183.792,576.4,184.042,576.152,184.209,575.986Zm141.314-27.9c-.083-.083-.083-.167-.167-.167a.306.306,0,0,0-.25.083c.083.083.083.167.167.167A.365.365,0,0,1,325.522,548.09ZM252.742,531.1l.083-.083v-.083l-.083.083C252.659,531.019,252.742,531.1,252.742,531.1Zm12.075,36.807c-.083,0-.167.083-.25.083l.083.167.083-.083C264.817,568.075,264.817,567.992,264.817,567.909Zm-7.911,12.324a.645.645,0,0,0,.083-.25c0-.083-.167-.167-.25-.167s-.083.083-.167.167A1.151,1.151,0,0,1,256.906,580.233Zm1.915-63.2c-.083,0-.167.083-.25.083l.167.167c.083,0,.167-.083.25-.083A.179.179,0,0,0,258.821,517.029ZM247,579.983h-.083c0,.083.083.083.083.167a.082.082,0,0,0,.083-.083Zm9.243-30.228v.083h.083v-.167C256.323,549.755,256.323,549.755,256.24,549.755ZM186.957,519.61h-.083v.083h.083Zm1.249,2a.291.291,0,0,0,.167-.083l-.083-.083a.291.291,0,0,0-.167.083A.082.082,0,0,0,188.206,521.609Zm.833-4.5c-.083-.083-.167-.167-.25-.167s-.167.083-.25.167c.083.083.167.167.25.167S188.955,517.2,189.039,517.112Zm2.415-10.825V506.2h-.167c0,.083,0,.083.083.167C191.37,506.287,191.37,506.287,191.453,506.287Zm-42.8-12.657a.083.083,0,1,0,0,.167c.083,0,.083-.083.167-.083C148.735,493.713,148.651,493.713,148.651,493.629Zm61.455,47.465v-.083h-.083v.083ZM133.079,474.06v.083h.083Zm192.11,80.774v.083l.083-.083ZM224.013,579.9l-.083-.083v.083Zm35.807.25c-.083,0-.083,0-.167-.083,0,.083.083.083.083.167A.082.082,0,0,0,259.82,580.15Zm-70.615-73.03.083.083v-.083Zm-61.289,74.945a.082.082,0,0,0-.083-.083h-.167c0,.083.083.083.083.167A.258.258,0,0,1,127.917,582.065Zm57.791-53.045h-.25l.083.083C185.624,529.1,185.624,529.02,185.708,529.02Zm-34.891,56.792h.083v-.083h-.083Z" transform="translate(4313.904 8062.2)"/>
</svg>
