<svg xmlns="http://www.w3.org/2000/svg" viewBox="356 8424 91.319 170">
  <defs>
    <style>
      .cls-1 {
        fill: #303030;
      }
    </style>
  </defs>
  <g id="PAPIGA" transform="translate(21 6524)">
    <path id="Path_201" data-name="Path 201" class="cls-1" d="M165,219.57l.47-.862c.5-.783,1.018-1.54,1.462-2.324.418-.7.783-1.462,1.175-2.193.392-.7.783-1.41,1.175-2.141-.522,0-.627-.157-.47-.548.052-.1.131-.209.183-.313a3.916,3.916,0,0,1,.5-.653,19.961,19.961,0,0,0,3.264-5.013c.783-1.462,1.7-2.872,2.559-4.308.235-.418.5-.809.7-1.253a27.485,27.485,0,0,1,2.846-4.778,16.452,16.452,0,0,0,1.8-3.159c.5-1.175,1.018-2.324,1.54-3.5.1-.235.339-.392.47-.627.522-.888,1.044-1.749,1.514-2.663.261-.522.5-1.07.7-1.593.548-1.436,1.07-2.846,1.567-4.282.078-.209.287-.418.131-.7-.026-.026.052-.131.1-.209.131-.235.313-.444.418-.679.392-.888.731-1.8,1.123-2.715a5.107,5.107,0,0,0,.339-1.07,3.988,3.988,0,0,0-.287.418c-.026-.026-.078-.026-.1-.052,1.305-3.551,3.055-6.945,4.282-10.548-.157.339-.339.653-.5.992a6.273,6.273,0,0,1-.522,1.018,1.541,1.541,0,0,1,.052-.366c.131-.366.235-.7.392-1.07.574-1.384,1.227-2.741,1.749-4.151.522-1.332.94-2.663,1.384-4.021.183-.574.052-1.2.366-1.749-.313-.7.209-1.253.313-1.88l.078-.235.078-.235a.229.229,0,0,0,.026-.183c-.287-.574.131-1.018.261-1.514a1.66,1.66,0,0,0,.078-.653,3.4,3.4,0,0,0-.392.261c.1-.522.235-1.018.339-1.54.052-.235.183-.522-.209-.679-.078-.026-.1-.261-.078-.392a8.135,8.135,0,0,1,.235-1.149c.157-.6.366-1.2.522-1.8a4.129,4.129,0,0,0,.026-.809,1.955,1.955,0,0,1,.052-.548c.366-1.253.548-2.559.809-3.864.313-1.619.757-3.211,1.149-4.8.157-.627.339-1.253.47-1.88A40.567,40.567,0,0,1,201,126.569c.078-.183.183-.366.261-.574a2.013,2.013,0,0,0-.1-1.462,9.5,9.5,0,0,1-.313-4.83c.209-1.462.548-2.924.731-4.386a51.164,51.164,0,0,1,1.854-7.337,1.774,1.774,0,0,0,.1-.914c-.052-.157.052-.366.1-.548.392-1.1.783-2.193,1.149-3.29.209-.6.339-1.253.5-1.854a8.833,8.833,0,0,1,.287-.888c.7-1.723,1.436-3.473,2.167-5.2.052-.131.209-.287.026-.444-.052-.026,0-.209.026-.287a2.72,2.72,0,0,1,.157-.418,37.239,37.239,0,0,1,2.428-4.36,6.691,6.691,0,0,0,.574-1.044c.392-.731.731-1.462,1.149-2.167a1.478,1.478,0,0,0,.183-1.462,2.475,2.475,0,0,1-.157-.522c-.052.078-.1.131-.157.209a3.32,3.32,0,0,1-.5-1.775c-.026-.392-.026-.783-.026-1.2a2.25,2.25,0,0,0-.157-.914,2.905,2.905,0,0,1-.026-.966c-.1-.026-.209-.026-.418-.052-.026-.313.078-.731-.1-.966-.313-.418,0-1.018-.444-1.384-.183-.157-.183-.5-.261-.731a1.078,1.078,0,0,0-.183-.392.608.608,0,0,1-.209-.679.221.221,0,0,0,0-.183c-.444-.392-.157-.914-.235-1.436-.1.157-.183.261-.261.366a.649.649,0,0,1-.235-.679,3.658,3.658,0,0,1,.157-.731,1.006,1.006,0,0,0-.209-1.1,2.509,2.509,0,0,1-.6-1.332,5.235,5.235,0,0,0-.783-1.749c-.157-.261-.522-.392-.809-.574a.588.588,0,0,0,.026-.183c-.653-.444-1.253-.862-1.88-1.279.026-.052.026-.078.052-.131a1.8,1.8,0,0,1,.339.052,4.069,4.069,0,0,1-.131-.418c.157-.026.261-.026.392-.052,0-.026.026-.078.026-.1a8.711,8.711,0,0,1-.6-2.428c.026-1.175,0-2.35.052-3.5a6.173,6.173,0,0,1,.287-1.54c.235-.783.548-1.567.835-2.35a5.518,5.518,0,0,1,.313-.522,1.948,1.948,0,0,0,.183-.313,2.343,2.343,0,0,1,.809-1.462,6.69,6.69,0,0,1,2.376-1.775c.287-.1.548-.287.835-.418a7.337,7.337,0,0,1,1.018-.5,3.823,3.823,0,0,0,1.253-.548c.1-.1.522-.026.862,0a1.24,1.24,0,0,0,.653-.183c.5-.235.966-.5,1.462-.731a.738.738,0,0,1,.7-.1c.157.078.392-.052.6-.1.157-.026.313-.078.548-.131a5.359,5.359,0,0,0-.209.5.762.762,0,0,0,.235.052,12.277,12.277,0,0,1,2.167-.261,9.27,9.27,0,0,1,3.942.47,2.961,2.961,0,0,0,2.063.313c.052-.026.131,0,.183,0a12.592,12.592,0,0,1,3.969,1.619,3.771,3.771,0,0,0,1.514.679,3.983,3.983,0,0,1,2.063,1.1,6.875,6.875,0,0,0,1.175.94,16.3,16.3,0,0,1,2.611,2.4,1.138,1.138,0,0,0,.366.339,7.739,7.739,0,0,1,2.01,2.115,2.59,2.59,0,0,0,1.279,1.07,1.888,1.888,0,0,1,.653.5c.653.6,1.305,1.227,1.958,1.854a2.665,2.665,0,0,0,1.279.757,1.09,1.09,0,0,1,.862.783,4.826,4.826,0,0,1-1.358-.418c0,.052-.026.131,0,.157a6.272,6.272,0,0,1,.731,2.271c.078.366.157.7.261,1.07.026.078.078.157.1.235a5.509,5.509,0,0,0,1.07,2.611,3.628,3.628,0,0,1,.157.5,1.69,1.69,0,0,0,.1.339c.731,1.593,1.41,3.211,2.3,4.726a1.565,1.565,0,0,0,.6.757c.1.052.183.209.261.339.261.366.5.731.757,1.07a.81.81,0,0,1,.183.757,2.092,2.092,0,0,0,.444,2.01,4.019,4.019,0,0,0,.679.653c.339.339.7.653,1.018,1.018.261.287.6.548.366,1.018.209.653.418,1.332.653,1.984a17.948,17.948,0,0,1,1.1,2.768c.078.392.235.809-.131,1.175-.078.078-.026.287-.026.418,0,.679,0,1.332.052,2.01.052.757.131,1.54.209,2.3.131,1.305.261,2.611.366,3.916.131,1.749.183,3.5.392,5.248a27.1,27.1,0,0,1,.209,4.36,2.2,2.2,0,0,1-.157.888c-.052-.131-.078-.287-.157-.548-.052.47-.078.809-.1,1.149-.131,1.305-.235,2.611-.444,3.916a22.246,22.246,0,0,1-.6,2.611,28.03,28.03,0,0,1-2.35,5.718.677.677,0,0,1-.261.287c.131-.366.287-.757.418-1.123a6.2,6.2,0,0,0-1.253,1.723c-.6,1.358-1.2,2.715-1.828,4.047-.287.6-.653,1.175-.992,1.749-.078.131-.1.313-.366.209-.052-.026-.209.157-.287.287-.287.444-.574.914-.888,1.384a8.85,8.85,0,0,1-1.2,1.828,18.6,18.6,0,0,0-1.279,1.645c-1.384,1.619-2.768,3.238-4.125,4.856a4.157,4.157,0,0,0-.339.574c0,.026,0,.052-.026.052-.6.627-1.227,1.253-1.828,1.854-.157.183-.444.287-.522.5a1.211,1.211,0,0,1-.94.731,3.334,3.334,0,0,0-1.514.835,4.338,4.338,0,0,1-3.995,1.044c-.052-.392-.1-.835-.7-.7-.1-.418-.731-.235-.783-.731a.651.651,0,0,0-.522-.313,1.232,1.232,0,0,1-.862-.287c-.548-.339-1.123-.653-1.671-.992a.815.815,0,0,0-.809-.052,5.577,5.577,0,0,1-.888.235c-.1.026-.209.1-.366.157.1.183.183.366.313.627-.235-.157-.392-.235-.627-.366-.1.548.444.835.418,1.332a2.529,2.529,0,0,1-.287-.078v.966c-.052.026-.078.026-.131.052-.235-.392-.444-.783-.679-1.175.052.7.5,1.332.235,2.089-.1-.287-.235-.6-.339-.888-.078.47.131.966-.261,1.54-.026-.522-.052-.914-.1-1.332a.772.772,0,0,0-.1.078,4.151,4.151,0,0,1-.992,2.533c-.522.862-1.123,1.645-1.7,2.48a.811.811,0,0,1-.1.157c-.6.261-.731.862-.992,1.358a51.883,51.883,0,0,1-4.412,6.684c-.627.809-1.279,1.593-1.854,2.454-2.48,3.577-5.17,7.023-7.337,10.835a35.141,35.141,0,0,1-2.741,3.812c-2.115,2.794-4.282,5.561-6.371,8.381a32.423,32.423,0,0,0-1.749,2.872,5.544,5.544,0,0,1-.757.992,18.689,18.689,0,0,1-2.35,1.958,12.271,12.271,0,0,0-3.969,4.517,6.98,6.98,0,0,1-.47.731,27.929,27.929,0,0,0-3,4.543,16,16,0,0,1-2.559,3.629c-1.984,2.193-3.995,4.386-5.953,6.606-.809.914-1.567,1.906-2.376,2.846a10.006,10.006,0,0,1-.731.757c-2.141,1.984-4.308,3.942-6.475,5.927-.339.313-.679.679-1.018,1.018C165.078,219.622,165.026,219.6,165,219.57Zm44.229-81.956a3.507,3.507,0,0,0,.287-.366l.783-1.488c.1-.235.209-.47.339-.7a.2.2,0,0,0-.1-.052c-.183.313-.366.627-.522.94-.287.548-.522,1.123-.783,1.671-.078.157-.157.287-.235.444.052.026.078.026.131.052C209.15,137.927,209.2,137.77,209.229,137.613Zm-8.459-2.768c-.052-.052-.1-.157-.131-.157l-.862.47c.026.026.052.078.078.1.313-.157.627-.287.914-.418a.541.541,0,0,1-.052.157.857.857,0,0,0,.862-.131c.131-.1.339-.078.5-.131a2.222,2.222,0,0,0,.444-.157c.183-.1.339-.235.574-.131.052.026.157-.078.313-.157-.392-.131-.731-.235-1.018-.052A6.052,6.052,0,0,1,200.769,134.846Zm3.969,10.679a5.454,5.454,0,0,0-.522.574c-.94,1.384-1.88,2.794-2.846,4.2-1.149,1.671-2.3,3.316-3.446,4.987-.131.183-.209.366-.339.548.026.026.078.052.1.078l.627-.862c.992-1.41,1.984-2.82,2.976-4.256.888-1.279,1.749-2.533,2.585-3.838a16.073,16.073,0,0,0,.862-1.436c.313-.183.418-.5.6-.783-.052-.026-.078-.052-.131-.078Q204.973,145.133,204.738,145.524ZM222.388,63.8h-.078a14.381,14.381,0,0,0,.209,1.854c.078.444.548.548.94.339a6.894,6.894,0,0,1,.992-.47,8.216,8.216,0,0,0,2.115-1.514.666.666,0,0,0,.183-.261,3.247,3.247,0,0,0-.783-4.23,1.2,1.2,0,0,0-1.775.052,8.275,8.275,0,0,0-1.567,2.324,3.342,3.342,0,0,0-.209.914C222.414,63.124,222.414,63.464,222.388,63.8Zm.209,52.035c.078-.078.131-.078.157-.1.261-.888.522-1.8.783-2.689.052-.131.078-.287.131-.418.392-.992.914-1.958,1.2-2.976a19.873,19.873,0,0,0,.835-3.89c.026-.261.1-.522.157-.783.183-.679.366-1.332.522-1.984a1,1,0,0,0-.131-.914c-.131.783-.235,1.462-.366,2.193a1.53,1.53,0,0,1-.287-.235c-.078.444-.157.862-.209,1.305-.078.653-.1,1.332-.209,1.984a2.5,2.5,0,0,1-.339,1.253,2.5,2.5,0,0,0-.366,1.332c-.026.1-.026.287-.078.287-.47.1-.313.522-.392.809a4.808,4.808,0,0,1-.366,1.149c-.052-.313-.1-.5-.131-.679-.1.47-.1.914-.183,1.358a3.021,3.021,0,0,1-.392,1.305c-.078-.1-.1-.157-.183-.261C222.727,114.533,222.675,115.16,222.6,115.839Zm-6.553,9.791c-.366.679-.731,1.358-1.1,2.063-.313.653-.653,1.305-.914,1.984-.131.313-.47.392-.627.7a5.812,5.812,0,0,1-1.07,1.54c-.548.522-.783,1.227-1.305,1.723-.052.052-.026.131-.026.235.078-.052.131-.052.157-.078.992-1.332,2.036-2.637,2.976-4.021A16.246,16.246,0,0,0,216.043,125.629Zm-5.535-53.184a1.857,1.857,0,0,1,.235.444,15.1,15.1,0,0,0,1.54,4.465c.261.47.574.914.862,1.358a.571.571,0,0,0,.131-.078c-.1-.183-.209-.392-.313-.574-.157-.287-.339-.574-.5-.862a16.83,16.83,0,0,1-1.384-3.89,2.3,2.3,0,0,1,0-.6C210.978,72.654,210.769,72.55,210.508,72.445Zm2.611-3.185c.366-.444.7-.835,1.018-1.227-.131-.287-.313-.5-.548-.339a1.809,1.809,0,0,0-.522.653C212.91,68.633,212.78,68.947,213.119,69.26Zm4.778,7.258a.235.235,0,0,0,.131-.026c.026-.209-.026-.47.078-.6.313-.366.183-.731.131-1.123a3.075,3.075,0,0,1-.078-1.1,1.558,1.558,0,0,0-.287-1.1c.052.287.209.627.1.862a1.881,1.881,0,0,0-.026,1.253c.026.131.026.366-.026.392-.235.1-.157.261-.131.418.026.1.078.261.026.287C217.453,76.1,217.9,76.283,217.9,76.518Zm-11.671,48.249a1.742,1.742,0,0,0-.392.339.427.427,0,0,0-.052.313.391.391,0,0,0,.261.052c.653-.313,1.436-.418,1.723-1.227.052-.131.183-.209.261-.339a1.543,1.543,0,0,0,.157-.366c-.026-.026-.078-.052-.1-.078a3.614,3.614,0,0,1-1.8,1.619A.612.612,0,0,1,206.226,124.768Zm16.109-9.112c-.1.548-.209,1.018-.313,1.488-.026,0-.052-.026-.078-.026a5.662,5.662,0,0,0-.1-.653h-.131c-.026.339,0,.7-.052,1.018a7.435,7.435,0,0,1-.287,1.018A3.4,3.4,0,0,0,222.335,115.656Zm-4.647-17.7c.418-1.018.862-2.037,1.305-3.081A5.683,5.683,0,0,0,217.688,97.954ZM204.216,125.5c-.757.183-1.018.862-1.41,1.384C203.459,126.674,203.459,126.674,204.216,125.5Zm14.334-3.681a3.944,3.944,0,0,0-.94,2.036c.157-.261.287-.548.47-.862a3.412,3.412,0,0,1,.131.392A2.852,2.852,0,0,0,218.55,121.817Zm7.6-20.417.835-1.253a4.751,4.751,0,0,1-.5-.209C226.3,100.408,225.86,100.747,226.147,101.4Zm-6.893,19.712c.94-.5.862-1.358,1.149-2.036-.026-.026-.078-.026-.1-.052C219.933,119.677,219.62,120.355,219.255,121.113Zm-.287-25.2a20.073,20.073,0,0,0-1.044,2.3A5.1,5.1,0,0,0,218.967,95.917Zm-13.394,18.067c.731,1.044.731,1.123,1.54.809C206.644,114.533,206.148,114.272,205.573,113.985Zm3.655-46.579c.261.653.914.862,1.41,1.305a5.385,5.385,0,0,0,.052-.548C210.221,67.9,209.542,68.059,209.229,67.406Zm2.271,4.935a.571.571,0,0,1-.078.131c.679.209,1.358.418,2.036.653A4.146,4.146,0,0,0,211.5,72.341Zm-5.848,43.419c-.287-.418-.574-.835-.862-1.227C204.686,115.16,204.947,115.525,205.652,115.76Zm9.9-34.856a3.053,3.053,0,0,0,1.619.992C216.931,81.505,216.67,81.348,215.547,80.9Zm-.418,13.551a1.736,1.736,0,0,0,.966-1.593C215.808,93.385,215.495,93.881,215.129,94.455Zm8.616,2.01a2.885,2.885,0,0,0-.287,1.723A2.069,2.069,0,0,0,223.745,96.466ZM207.218,141.9c-.026-.026-.078-.052-.1-.1a22.848,22.848,0,0,0-1.279,1.958c.026.026.078.052.1.078C206.383,143.2,206.8,142.548,207.218,141.9Zm13.289-22.349a2.96,2.96,0,0,0,.653-1.958C220.926,118.241,220.717,118.893,220.508,119.546Zm-4.6,7.232a3,3,0,0,0,.783-1.88C216.409,125.577,216.148,126.178,215.913,126.778Zm-.6-31.279.1.1a5.339,5.339,0,0,0,1.044-1.253c-.026-.026-.078-.052-.1-.1C215.991,94.664,215.652,95.082,215.312,95.5Zm3.995,1.384a1.688,1.688,0,0,0-.653,1.514C218.889,97.823,219.1,97.353,219.307,96.883ZM209.02,68.894c-.052.026-.078.078-.131.1a3.864,3.864,0,0,0,.339.548.24.24,0,0,0,.261.052.291.291,0,0,0,.078-.261A.734.734,0,0,0,209.02,68.894ZM215.652,92.6c-.235.444-.5.914-.731,1.358C215.364,93.594,215.756,93.2,215.652,92.6Zm1.88-12.376c.052-.548.078-1.1.131-1.8A2.239,2.239,0,0,0,217.531,80.226Zm-2.48,12.663a1.844,1.844,0,0,0,.5-1.2A1.722,1.722,0,0,0,215.051,92.889Zm8.982,5.431a2.681,2.681,0,0,0,.131-.627c.026-.209.209-.47-.131-.679C223.928,97.484,223.771,97.876,224.033,98.319Zm-15.744,15.639a1.149,1.149,0,0,1-1.253-.052C207.4,114.481,207.636,114.507,208.289,113.959Zm9.817-44.646c.052.261.078.522.131.757C218.471,69.443,218.471,69.443,218.106,69.312ZM199.1,134.167c-.1.209-.235.47.026.627.131.078.339-.026.522-.026v-.1h-.418c-.026-.052-.052-.052-.052-.078A1.082,1.082,0,0,1,199.1,134.167Zm19.921-35.8c.052,0,.078.026.131.026.313-.522.339-.574.287-1.07C219.255,97.745,219.15,98.058,219.02,98.372Zm-3.5-26.109a.236.236,0,0,0,.026.131c.366-.052.731-.078,1.123-.131a.235.235,0,0,0-.026-.131C216.252,72.184,215.887,72.236,215.521,72.263Zm10.887,29.529.157.078c.157-.339.313-.653.47-.992-.052-.026-.078-.052-.131-.078C226.748,101.139,226.591,101.479,226.408,101.792ZM215.234,91.218c-.052,0-.131-.026-.183-.026-.052.261-.1.5-.157.757.052,0,.1.026.157.026C215.1,91.74,215.155,91.479,215.234,91.218Zm-10.548,42.636c.418-.261.418-.261.418-.7C204.921,133.436,204.816,133.645,204.686,133.854Zm6.945-66.213c.052,0,.131.026.183.026.026-.209.052-.392.078-.6-.052,0-.1-.026-.183-.026C211.683,67.223,211.657,67.432,211.631,67.641Zm38.537,57.022c-.026-.026-.052-.026-.1-.052-.1.209-.235.418-.339.627.026.026.078.026.1.052C249.933,125.081,250.063,124.872,250.168,124.663Zm-33.263-.392a.2.2,0,0,0,.052.078.081.081,0,0,0,.052-.026c.052-.183.131-.339.183-.522-.026,0-.052-.026-.078-.026C217.035,123.958,216.957,124.115,216.9,124.272Zm-9.869,7.572c-.313.078-.339.261-.209.522C206.9,132.183,206.983,132,207.036,131.843Zm-3.211,2.454c.052.026.1.026.157.052.052-.183.131-.392.183-.574-.052-.026-.1-.026-.157-.052A3.7,3.7,0,0,1,203.824,134.3ZM193.2,162.286l.157.078c.052-.183.131-.339.183-.522-.026-.026-.078-.026-.1-.052C193.354,161.973,193.276,162.13,193.2,162.286Zm23.315-68.719c-.026-.026-.052-.078-.1-.1a.505.505,0,0,0-.313.548C216.252,93.855,216.383,93.724,216.513,93.568Zm-10.626,39.32-.157-.078a5.178,5.178,0,0,0-.287.522c.052.026.078.052.131.078C205.678,133.227,205.782,133.044,205.887,132.888Zm13.838-34.856c.261-.235.261-.235.183-.574C219.855,97.693,219.777,97.849,219.725,98.032Zm-15.4,28.093c.052.026.078.052.131.078a3.249,3.249,0,0,1,.261-.522c-.026-.026-.078-.026-.1-.052A3.074,3.074,0,0,0,204.32,126.125ZM216.9,94.534a.459.459,0,0,0,.1.131,4.536,4.536,0,0,0,.392-.339c-.026-.026-.052-.078-.078-.1C217.192,94.325,217.035,94.429,216.9,94.534Zm-14.438,31.853c.052.026.078.052.131.078.078-.157.183-.339.261-.5-.026-.026-.078-.026-.1-.052C202.675,126.047,202.571,126.23,202.466,126.387Zm5.4,14.517a.36.36,0,0,0-.1-.078c-.078.157-.183.313-.261.444.026.026.052.026.078.052C207.688,141.19,207.767,141.034,207.871,140.9Zm-2.585-15.2c-.157-.1-.209-.157-.235-.157a.468.468,0,0,0-.131.183s.078.1.1.078A.678.678,0,0,0,205.286,125.708ZM212,67.458c.052.026.078.052.131.052.026-.1.078-.209.1-.313-.026,0-.052-.026-.078-.026C212.1,67.276,212.048,67.354,212,67.458Z" transform="translate(170 1850.4)"/>
    <path id="Path_202" data-name="Path 202" class="cls-1" d="M390.4,94.254a3.252,3.252,0,0,1-.5,1.488.9.9,0,0,1-.209.235,1.587,1.587,0,0,1-1.488-.183.775.775,0,0,1-.444-.888,7.483,7.483,0,0,1,.444-1.54,1.07,1.07,0,0,1,1.149-.7,1.227,1.227,0,0,1,.966.966A4.561,4.561,0,0,1,390.4,94.254Z" transform="translate(5.406 1818.592)"/>
  </g>
</svg>
