<svg xmlns="http://www.w3.org/2000/svg" viewBox="5464.201 8549.821 89.924 96.914">
  <defs>
    <style>
      .cls-1 {
        fill: #5a7814;
      }
    </style>
  </defs>
  <path id="Subtraction_17" data-name="Subtraction 17" class="cls-1" d="M22.657,90.062A21.39,21.39,0,0,1,1.268,68.673V52.911a21.574,21.574,0,0,1,.62-5.147C3.633,43.2,7.908,35.124,16.935,32.4c.5-.151.967-.3,1.392-.439a21.652,21.652,0,0,1,4.331-.436,21.234,21.234,0,0,1,8.851,1.9c0,.006,0,.009,0,.011h0a.029.029,0,0,0,.016,0,21.247,21.247,0,0,1,2.351,1.256c-.059.359-.145.762-.254,1.2-1.2,4.787-2.333,6.773-4.865,8.5a12.362,12.362,0,0,0-6.1-1.609,12.231,12.231,0,0,0-5.489,1.284C15.312,44.8,10.926,47.3,10.3,54.612l-.005,0c-.006.058-.008.119-.01.181a16.589,16.589,0,0,0-.006,3.337v8.294a12.384,12.384,0,0,0,24.767,0V55.672c.522-.4,1.092-.85,1.7-1.33a28.576,28.576,0,0,0,5.283-6.412c.346-.579.675-1.141.978-1.671a21.426,21.426,0,0,1,1.049,6.652V68.673a21.39,21.39,0,0,1-21.39,21.389Zm0-31.522a21.3,21.3,0,0,1-11.281-3.208c.732-5.671,1.895-7.41,5.018-9.754a12.371,12.371,0,0,0,11.434.571,11.533,11.533,0,0,0,6.713-8.705c.043-.2.1-.426.168-.663a11.668,11.668,0,0,0,.305-1.338l.006,0,.009.006c.007-.167.012-.354.012-.556V23.641a12.384,12.384,0,0,0-24.767,0v11.31A21.069,21.069,0,0,0,3.82,41.488c-.531.887-1.016,1.727-1.442,2.5a21.415,21.415,0,0,1-1.11-6.834V21.389A21.39,21.39,0,0,1,37.783,6.265a21.249,21.249,0,0,1,6.265,15.125V37.151a21.426,21.426,0,0,1-1.035,6.607,31.714,31.714,0,0,1-7.947,10.9l-.013.01-.02.016q0-.037,0-.074A21.211,21.211,0,0,1,22.657,58.54Z" transform="translate(5519.894 8549.023) rotate(39)"/>
</svg>
