<svg xmlns="http://www.w3.org/2000/svg" viewBox="420 10089.805 96.935 138.818">
  <defs>
    <style>
      .cls-1, .cls-2 {
        fill: #e7eedf;
      }

      .cls-1 {
        fill-rule: evenodd;
      }
    </style>
  </defs>
  <g id="Untitled-1" transform="translate(180.719 9945.808)">
    <path id="XMLID_2_" class="cls-1" d="M283.4,144.2l.194,138.55s2.421-26.045,4.163-36.5,7.455-29.046,3.2-47.926c-4.454-18.783-4.744-27.5-7.552-54.122Z" transform="translate(-1.403 -0.006)"/>
    <path id="XMLID_4_" class="cls-2" d="M283.4,144l.194,138.453h-.1L283.3,144Zm.1,138.743Zm0-.29s2.42-25.948,4.066-36.307l.1-.1c-1.646,10.457-4.066,36.4-4.163,36.4Zm4.066-36.017c.29-1.936.775-4.647,1.259-6.584h.1c-.484,1.936-.968,4.647-1.259,6.681Zm1.259-6.584c2.227-10.65,5.325-26.141,1.84-41.633h.1c3.486,15.491.387,30.982-1.84,41.633Zm1.936-41.633c-3.486-15.491-4.357-24.2-6.1-40.664h.1c1.743,16.459,2.614,25.173,6.1,40.664Zm-6.1-40.664L283.3,144h.1c.484,4.841.968,9.682,1.259,13.555ZM283.4,144.194Z" transform="translate(-1.4 0)"/>
    <path id="XMLID_12_" class="cls-2" d="M288.7,252.98c1.549-.968,3.2-19.945,16.459-30.3,13.168-10.36,15.975-37.276,15.975-37.276s.678,34.468-12.974,46.28-18.977,21.107-19.461,21.3Z" transform="translate(-1.571 -1.317)"/>
    <path id="XMLID_14_" class="cls-2" d="M288.7,252.968c.387-.29.775-1.743,1.355-3.873h.1c-.581,2.227-1.065,3.679-1.452,3.873Zm1.355-3.873c1.743-6.293,5.228-18.783,15.007-26.529l.1.1c-9.779,7.746-13.264,20.139-15.007,26.432Zm15.007-26.432c13.168-10.36,15.975-37.082,15.975-37.179h.1s-2.808,26.819-16.072,37.179Zm16.072-37.179Zm0-.484c0,.968.678,34.662-12.974,46.57l-.1-.194c13.652-11.812,12.974-45.409,12.974-46.377Zm-12.974,46.861A113.025,113.025,0,0,0,289.568,252l-.1-.1a108.623,108.623,0,0,1,18.686-20.042ZM289.568,251.9q-.726,1.017-.871,1.162l-.1-.1c.1,0,.387-.387.968-1.065Zm-.871,1.065Z" transform="translate(-1.568 -1.304)"/>
    <path id="XMLID_22_" class="cls-2" d="M288.7,255.288s13.458-3.486,15.2,10.747,6.584,15.394,6.584,15.394-10.65-2.517-13.652-11.909-.484-8.714-8.133-14.233Z" transform="translate(-1.571 -3.527)"/>
    <path id="XMLID_23_" class="cls-2" d="M270.29,249.1v1.259l.1.29v.194H270V249.1Z" transform="translate(-0.977 -3.342)"/>
    <path id="XMLID_24_" class="cls-2" d="M270.29,246.3v1.646H270V246.3Z" transform="translate(-0.977 -3.253)"/>
    <path id="XMLID_25_" class="cls-2" d="M270.19,243.4h0l.1.484v1.259H269.9V243.4h.29Z" transform="translate(-0.974 -3.161)"/>
    <path id="XMLID_26_" class="cls-2" d="M269.99,240.5v.29l.1.581v.484l.1.387H269.8v-.387l-.1-.484V240.6Z" transform="translate(-0.967 -3.069)"/>
    <path id="XMLID_27_" class="cls-2" d="M269.687,237.7v.29l.1.581.1.484v.387h-.387v-.29l-.1-.581-.1-.581v-.29Z" transform="translate(-0.955 -2.98)"/>
    <path id="XMLID_28_" class="cls-2" d="M269.09,234.8l.1.194.1.581.1.581.1.387-.387.1v-.387l-.1-.581-.194-.581V234.9Z" transform="translate(-0.939 -2.887)"/>
    <path id="XMLID_29_" class="cls-2" d="M268.39,232.1l.1.194.1.29.1.29v.29l.194.581-.29.1-.194-.581-.1-.29-.1-.29v-.387l-.1-.194Z" transform="translate(-0.916 -2.802)"/>
    <path id="XMLID_30_" class="cls-2" d="M267.587,229.3v.1l.1.29.1.29.1.387.1.29.1.29h0l-.29.1h0l-.1-.29-.1-.29-.1-.29-.1-.387-.1-.29-.1-.1Z" transform="translate(-0.888 -2.713)"/>
    <path id="XMLID_31_" class="cls-2" d="M266.49,226.6l.1.29.1.29.194.29.1.29.1.29.1.194-.29.1-.1-.1-.1-.387-.194-.29-.1-.29-.1-.29-.1-.194Z" transform="translate(-0.856 -2.627)"/>
    <path id="XMLID_32_" class="cls-2" d="M265.19,224.1l.194.194.1.29.194.29.1.387.194.29v.1l-.29.1v-.1l-.194-.29-.1-.29-.194-.29-.194-.29-.1-.29Z" transform="translate(-0.815 -2.547)"/>
    <path id="XMLID_33_" class="cls-2" d="M263.79,221.6l.1.194.194.29.194.29.194.29.1.29.1.1-.29.194v-.1l-.194-.29-.194-.29-.194-.29-.194-.29-.1-.194Z" transform="translate(-0.77 -2.468)"/>
    <path id="XMLID_34_" class="cls-2" d="M262.09,219.2v.1l.29.29.194.29.194.29.291.29.1.194-.29.194-.1-.194-.29-.29-.194-.29-.194-.29-.194-.29-.1-.1Z" transform="translate(-0.716 -2.391)"/>
    <path id="XMLID_35_" class="cls-2" d="M260.29,217l.1.194.29.29.194.29.29.29.194.29h0l-.194.194h0l-.29-.29-.29-.29-.194-.29-.29-.29-.1-.1Z" transform="translate(-0.659 -2.321)"/>
    <path id="XMLID_36_" class="cls-2" d="M258.394,214.8l.194.29.29.29.194.29.194.29.29.194-.29.194-.194-.194-.29-.29-.194-.29-.194-.29-.194-.194Z" transform="translate(-0.602 -2.251)"/>
    <path id="XMLID_37_" class="cls-2" d="M256.79,212.5l.1.1.194.29.194.29.194.29.194.29.1.194-.29.194-.1-.194-.194-.29-.194-.29-.194-.29-.194-.29-.1-.1Z" transform="translate(-0.547 -2.178)"/>
    <path id="XMLID_38_" class="cls-2" d="M255.49,210l.194.29.1.29.194.29.194.387.1.29-.29.1-.1-.194-.194-.387-.194-.29-.194-.29-.1-.387Z" transform="translate(-0.506 -2.099)"/>
    <path id="XMLID_39_" class="cls-2" d="M254.387,207.3l.1.387.1.29.194.29.1.29.1.387h.1l-.387.194v-.1l-.1-.29-.194-.387-.1-.29-.1-.29-.194-.29Z" transform="translate(-0.468 -2.013)"/>
    <path id="XMLID_40_" class="cls-2" d="M253.49,204.6h0l.1.387.1.29.1.29.1.387.1.29h0l-.29.194v-.1l-.1-.29-.194-.29v-.387l-.194-.29V204.7Z" transform="translate(-0.443 -1.927)"/>
    <path id="XMLID_41_" class="cls-2" d="M252.79,201.9l.1.1v.387l.1.29.1.29.1.29v.29l-.29.1-.1-.29-.1-.29v-.387l-.1-.29-.1-.29V202Z" transform="translate(-0.42 -1.841)"/>
    <path id="XMLID_42_" class="cls-2" d="M252.29,199.1h.1v.387l.1.29v.581l.1.29v.1l-.29.1v-.1l-.1-.29-.1-.387v-.581l-.1-.29v-.1Z" transform="translate(-0.404 -1.752)"/>
    <path id="XMLID_43_" class="cls-2" d="M252.087,196.2v.775l.1.581v.387h-.29l-.1-.387v-.581l-.1-.581v-.1Z" transform="translate(-0.395 -1.66)"/>
    <path id="XMLID_44_" class="cls-2" d="M251.987,193.4v1.743h-.29l-.1-.581V193.4Z" transform="translate(-0.392 -1.571)"/>
    <path id="XMLID_45_" class="cls-2" d="M251.987,190.5h0v1.743H251.6v-.775l.1-.484V190.5h.29Z" transform="translate(-0.392 -1.479)"/>
    <path id="XMLID_46_" class="cls-2" d="M252.281,187.7v.1l-.1.29v.387l-.1.29v.678l-.387-.1.1-.194v-.775l.1-.29V187.6Z" transform="translate(-0.395 -1.387)"/>
    <path id="XMLID_47_" class="cls-2" d="M252.294,185.2l.29.1v.194l-.1.581-.1.484h-.29v-.484l.1-.678.1-.194.29.1Z" transform="translate(-0.408 -1.31)"/>
    <path id="XMLID_48_" class="cls-2" d="M252.1,185.587l.1-.1.1-.29.29.1-.1.29v.1Z" transform="translate(-0.408 -1.31)"/>
    <path id="XMLID_49_" class="cls-2" d="M251.2,188.246l.1-.29.1-.387.29-.678.1-.29.29.1-.1.29-.194.678-.194.387-.1.29Z" transform="translate(-0.379 -1.355)"/>
    <path id="XMLID_50_" class="cls-2" d="M250.4,191.043v-.194l.194-.484.194-.484.1-.484v-.1l.29.194h0l-.1.484-.1.484-.194.484v.194Z" transform="translate(-0.353 -1.441)"/>
    <path id="XMLID_51_" class="cls-2" d="M249.7,193.843l.1-.581.194-.581.1-.581.387.1-.1.484-.194.678-.1.581Z" transform="translate(-0.331 -1.53)"/>
    <path id="XMLID_52_" class="cls-2" d="M249.1,196.643l.1-.1.1-.678.1-.678.1-.29.29.1v.29l-.194.678-.1.678H249.1Z" transform="translate(-0.312 -1.619)"/>
    <path id="XMLID_53_" class="cls-2" d="M248.7,199.446v-.29l.1-.387.1-.387v-.29l.1-.29h.29v.29l-.1.387v.387l-.1.29v.387Z" transform="translate(-0.299 -1.711)"/>
    <path id="XMLID_54_" class="cls-2" d="M248.4,202.343v-.484l.1-.387v-.387l.1-.387v-.1l.29.1v.387l-.1.387v.775l-.1.1Z" transform="translate(-0.29 -1.8)"/>
    <path id="XMLID_55_" class="cls-2" d="M248.2,205.146l.1-.1V203.5h.387v.387l-.1.387v.968Z" transform="translate(-0.284 -1.892)"/>
    <path id="XMLID_56_" class="cls-2" d="M248.3,208.043v-.194l-.1-.387V206.3h.387v1.743Z" transform="translate(-0.284 -1.981)"/>
    <path id="XMLID_57_" class="cls-2" d="M248.494,210.943v-.194l-.1-.387v-.387l-.1-.387V209.2h.387v.678l.1.484v.387l.1.194Z" transform="translate(-0.287 -2.073)"/>
    <path id="XMLID_58_" class="cls-2" d="M248.89,213.743v-.1l-.1-.387-.1-.387v-.484l-.1-.29.387-.1v.387l.1.387.1.387.1.387v.194Z" transform="translate(-0.296 -2.162)"/>
    <path id="XMLID_59_" class="cls-2" d="M249.587,216.543v-.1l-.1-.387-.1-.387-.1-.387-.1-.387.29-.1.1.387.1.387.1.387.1.387.1.1Z" transform="translate(-0.315 -2.251)"/>
    <path id="XMLID_60_" class="cls-2" d="M250.581,219.243v-.1l-.194-.387-.1-.29-.194-.387-.1-.387h0l.29-.194h0l.194.387.1.387.194.387.1.387.1.1Z" transform="translate(-0.341 -2.337)"/>
    <path id="XMLID_61_" class="cls-2" d="M251.875,221.846v-.1l-.194-.29-.194-.387-.194-.387-.194-.29v-.1l.29-.1h0l.194.29.194.387.194.387.194.29.1.1Z" transform="translate(-0.376 -2.423)"/>
    <path id="XMLID_62_" class="cls-2" d="M253.565,224.246h0l-.29-.387-.29-.29-.194-.387-.194-.29-.1-.1.29-.194.1.1.194.29.194.387.29.29.194.29.1.1Z" transform="translate(-0.42 -2.499)"/>
    <path id="XMLID_63_" class="cls-2" d="M255.365,226.449l-.484-.581-.484-.581-.1-.194.29-.194.1.1.484.678.484.581Z" transform="translate(-0.478 -2.573)"/>
    <path id="XMLID_64_" class="cls-2" d="M257.068,228.749l-.194-.29-.484-.678-.29-.387.194-.194.387.387.484.678.194.29Z" transform="translate(-0.535 -2.646)"/>
    <path id="XMLID_65_" class="cls-2" d="M258.768,231.046l-.1-.1-.387-.581-.484-.678v-.1l.194-.194.1.1.484.678.387.581.1.1Z" transform="translate(-0.589 -2.716)"/>
    <path id="XMLID_66_" class="cls-2" d="M260.368,233.349h0l-.387-.581-.387-.581-.194-.194.29-.194.194.194.387.581.387.581h0Z" transform="translate(-0.64 -2.792)"/>
    <path id="XMLID_67_" class="cls-2" d="M261.968,235.846l-.1-.194-.29-.581-.387-.484-.194-.194.29-.194.194.194.387.581.29.484.1.194Z" transform="translate(-0.691 -2.868)"/>
    <path id="XMLID_68_" class="cls-2" d="M263.468,238.246l-.194-.29-.387-.581-.29-.581h-.1l.387-.194v.1l.387.484.29.581.194.29Z" transform="translate(-0.738 -2.945)"/>
    <path id="XMLID_69_" class="cls-2" d="M264.871,240.743l-.1-.29-.29-.484-.29-.484-.194-.29.29-.194.194.29.29.581.29.484.1.194Z" transform="translate(-0.786 -3.021)"/>
    <path id="XMLID_70_" class="cls-2" d="M266.271,243.243l-.194-.387-.29-.387-.194-.484-.194-.29.29-.194.194.29.29.484.194.387.194.387Z" transform="translate(-0.83 -3.1)"/>
    <path id="XMLID_71_" class="cls-2" d="M267.574,245.743l-.194-.387-.387-.775-.194-.387.29-.194.194.387.387.871.194.387Z" transform="translate(-0.875 -3.18)"/>
    <path id="XMLID_72_" class="cls-2" d="M268.775,248.343l-.1-.29-.29-.581-.29-.581-.1-.1.387-.194v.1l.29.678.29.581.1.194Z" transform="translate(-0.913 -3.263)"/>
    <path id="XMLID_73_" class="cls-2" d="M270.071,250.943h-.1v-.1h-.1v-.1l-.1-.194-.1-.29-.387-.678-.1-.194.387-.194.1.29.29.678.1.194.1.194.1.1h0v.1h0Z" transform="translate(-0.951 -3.345)"/>
    <path id="XMLID_74_" class="cls-2" d="M272.7,256.9h.194l.291.1.29.1.29.1.484.194h.1l-.1.387-.194-.1-.387-.194h-.29l-.29-.194h-.194l-.29-.1h0Z" transform="translate(-1.059 -3.59)"/>
    <path id="XMLID_75_" class="cls-2" d="M269.9,256.4h.678l.29.1h.29l.29.1h.1v.387l-.194-.1h-.29l-.194-.1h-.29l-.29-.1H269.8Z" transform="translate(-0.97 -3.574)"/>
    <path id="XMLID_76_" class="cls-2" d="M267,256.4h.29l.1-.1h1.355v.387H267Z" transform="translate(-0.881 -3.571)"/>
    <path id="XMLID_77_" class="cls-2" d="M264.1,257.081l.194-.1.194-.1h.194l.1-.1.194-.1h.387l.194-.1h.194l.1-.1v.387h-.194l-.194.1-.194.1h-.29l-.194.1-.194.1h-.194l-.1.1Z" transform="translate(-0.789 -3.577)"/>
    <path id="XMLID_78_" class="cls-2" d="M261.6,258.468l.194-.1.194-.1.1-.194.194-.1.194-.1.194-.1.1-.1.194-.1.1-.1.194.29-.1.1-.194.1-.194.1-.1.1-.194.1-.194.1-.194.1-.1.1-.194.194Z" transform="translate(-0.71 -3.609)"/>
    <path id="XMLID_79_" class="cls-2" d="M259.6,260.459h0l.194-.194.1-.194.194-.194.1-.1.194-.194.194-.194.1-.194h.1l.194.29h0l-.194.1-.1.194-.194.194-.1.1-.194.194-.1.194-.194.194v.1Z" transform="translate(-0.646 -3.663)"/>
    <path id="XMLID_80_" class="cls-2" d="M258.1,262.952l.1-.194.1-.29.194-.194.1-.29.1-.194.194-.194v-.1l.29.194h0l-.194.29-.1.194-.1.194-.194.29-.1.194-.1.291Z" transform="translate(-0.598 -3.737)"/>
    <path id="XMLID_81_" class="cls-2" d="M257,265.646h0l.1-.29.1-.29.194-.387.1-.194.1-.387V264l.387.194-.1.1-.1.29-.1.29-.1.29-.1.29-.1.29h0Z" transform="translate(-0.563 -3.816)"/>
    <path id="XMLID_82_" class="cls-2" d="M256.2,268.446l.194-.581.194-.581.1-.484.387.1-.194.484-.194.678-.194.484Z" transform="translate(-0.538 -3.905)"/>
    <path id="XMLID_83_" class="cls-2" d="M255.2,271.049l.194-.387.194-.484.194-.484.1-.194.29.1-.1.194-.194.484-.194.581-.194.387Z" transform="translate(-0.506 -3.991)"/>
    <path id="XMLID_84_" class="cls-2" d="M254.1,273.746l.1-.29.194-.387.194-.387.194-.484v-.1l.29.194h0l-.194.484-.194.387-.194.387-.1.29Z" transform="translate(-0.471 -4.074)"/>
    <path id="XMLID_85_" class="cls-2" d="M252.7,276.249l.1-.29.194-.29.194-.387.194-.29.194-.29.29.194-.194.29-.194.29-.194.387-.194.29-.1.194Z" transform="translate(-0.427 -4.156)"/>
    <path id="XMLID_86_" class="cls-2" d="M251,278.455v-.1l.194-.194.194-.194.1-.194.194-.194.194-.194.194-.29.29.194-.194.29-.194.194-.194.29-.194.194-.1.194-.194.194h-.1Z" transform="translate(-0.373 -4.233)"/>
    <path id="XMLID_87_" class="cls-2" d="M248.8,280.168h.1l.1-.1.1-.1h.194l.1-.1.1-.1.1-.1.194-.1.1-.1.194-.1.1-.194.29.29-.194.194-.1.1-.194.1-.1.1-.194.1-.1.1-.194.1-.1.1h-.1l-.1.1-.1.1h0Z" transform="translate(-0.303 -4.299)"/>
    <path id="XMLID_88_" class="cls-2" d="M249.74,280.59l-.387.1-.387.1h-.29l-.29.1H248l-.1-.29h.1l.387-.1h.29l.29-.1h.29l.387-.1Z" transform="translate(-0.274 -4.334)"/>
    <path id="XMLID_89_" class="cls-2" d="M252.543,279.89l-.194.1-.29.1-.29.1h-.29l-.29.1-.194.1H250.8v-.29l.1-.1h.29l.194-.1.29-.1h.29l.29-.1.194-.1Z" transform="translate(-0.366 -4.312)"/>
    <path id="XMLID_90_" class="cls-2" d="M255.243,278.89h-.1l-.29.194-.387.1-.29.194-.29.1-.29.1-.1-.291.29-.194.29-.1.29-.1.29-.1.29-.194h.1Z" transform="translate(-0.452 -4.28)"/>
    <path id="XMLID_91_" class="cls-2" d="M257.746,277.587l-.29.1-.29.194-.387.194-.29.194-.194.1-.194-.29.194-.1.387-.194.29-.194.29-.194.29-.194Z" transform="translate(-0.535 -4.236)"/>
    <path id="XMLID_92_" class="cls-2" d="M260.049,275.79l-.1.194-.194.1-.1.1-.194.194-.29.194-.29.194-.194.194-.194-.387h.1l.29-.29.387-.194.1-.194.194-.1.1-.1.194-.194Z" transform="translate(-0.611 -4.182)"/>
    <path id="XMLID_93_" class="cls-2" d="M262.055,273.694v.1l-.194.194-.1.194-.194.1-.1.194-.1.1-.194.194-.1.1-.194.194-.194-.29.1-.1.194-.194.1-.1.1-.194.194-.1.1-.194.194-.1.1-.194.1-.1Z" transform="translate(-0.681 -4.118)"/>
    <path id="XMLID_94_" class="cls-2" d="M263.662,271.294h0l-.1.194-.1.194-.1.194-.1.194-.194.194-.1.194-.1.194-.1.194-.29-.194.1-.194.1-.194.1-.1.1-.194.194-.194.1-.194.1-.194.1-.194v-.1Z" transform="translate(-0.738 -4.042)"/>
    <path id="XMLID_95_" class="cls-2" d="M264.965,268.7l-.1.29-.194.29-.194.387-.1.387-.194.29-.29-.194.1-.29.194-.387.194-.29.194-.387.1-.194Z" transform="translate(-0.783 -3.962)"/>
    <path id="XMLID_96_" class="cls-2" d="M266.068,266.1v.1l-.194.484-.29.581-.194.387-.29-.1.194-.387.194-.581.194-.581h.1Z" transform="translate(-0.821 -3.88)"/>
    <path id="XMLID_97_" class="cls-2" d="M267.168,263.4l-.1.194v.1l-.1.194-.194.387-.1.387-.194.387-.29-.1.1-.387.194-.387.194-.387v-.194l.1-.194.1-.1Z" transform="translate(-0.856 -3.794)"/>
    <path id="XMLID_98_" class="cls-2" d="M268.755,261.19h0l-.194.1-.1.194-.1.1-.194.1-.1.194-.1.1-.1.194-.1.1-.1.1v.1l-.29-.194v-.1l.1-.1.1-.194.194-.1.1-.1.1-.194.1-.1.1-.194.194-.1.1-.194h.1Z" transform="translate(-0.894 -3.717)"/>
    <path id="XMLID_99_" class="cls-2" d="M271.046,259.587l-.194.1-.29.1-.194.194-.194.1-.29.194-.194.1-.1.1-.194-.29.1-.1.194-.1.29-.194.194-.1.194-.1.29-.194.194-.194Z" transform="translate(-0.958 -3.663)"/>
    <path id="XMLID_100_" class="cls-2" d="M273.543,258.19l-.678.29-.29.194-.29.194-.29.1-.194-.29.29-.1.29-.194.387-.194.581-.29Z" transform="translate(-1.034 -3.622)"/>
    <path id="XMLID_101_" class="cls-2" d="M241.236,197.376c1.259,19.751,2.9,39.5,1.84,59.254a1.018,1.018,0,0,1-1.84-.871c.678-19.461-.775-38.534-1.936-57.9a.937.937,0,0,1,.775-1.162.832.832,0,0,1,1.162.678Z" transform="translate(0 -1.674)"/>
    <path id="XMLID_102_" class="cls-2" d="M240.368,196.6c5.422-.194,11.037-.387,16.169,1.259l-.29-.1C275.61,204.535,278.9,236.1,242.5,239.874a.968.968,0,1,1,0-1.936c9.779-1.065,24.689-5.422,25.657-17.524,1.452-19.364-12.3-22.269-27.787-21.785a1,1,0,0,1-.968-1.065c-.1-.581.387-.968.968-.968Z" transform="translate(-0.003 -1.669)"/>
    <path id="XMLID_103_" class="cls-2" d="M271.023,236.774c.29,5.519-2.517,19.945,3.97,18.4.484-.1,1.065-.29,1.065-.871a.968.968,0,1,1,1.936,0,2.79,2.79,0,0,1-1.936,2.614c-9.972,4.163-6.874-15.588-7.068-19.654a1.079,1.079,0,0,1,.775-1.259,1.174,1.174,0,0,1,1.259.775Z" transform="translate(-0.935 -2.925)"/>
    <path id="XMLID_104_" class="cls-2" d="M259.932,247.3c.484-4.841-10.36,4.066-4.647,7.746,1.646.968,5.228.871,5.809-1.259a.987.987,0,0,1,1.936.387c-1.355,4.647-9.295,4.551-10.747.194-3.292-9.295,10.263-13.652,9.585-6.681a.98.98,0,0,1-1.162.775,1.167,1.167,0,0,1-.775-1.162Z" transform="translate(-0.397 -3.188)"/>
    <path id="XMLID_105_" class="cls-2" d="M254.143,248.327c1.355.678,5.809,1.84,5.906-1.259a.968.968,0,0,1,1.936,0c-.1,5.035-6.2,4.454-9.2,2.808a.947.947,0,0,1-.194-1.355,1.091,1.091,0,0,1,1.549-.194Z" transform="translate(-0.417 -3.247)"/>
    <path id="XMLID_106_" class="cls-2" d="M267.938,244.778a34.865,34.865,0,0,0,3.292,3.1h0a1.72,1.72,0,0,0,.968-.387,1.036,1.036,0,0,1,2.033.387c-1.259,5.131-7.068-.871-8.133-2.421a1.007,1.007,0,0,1,.581-1.259.931.931,0,0,1,1.259.581Z" transform="translate(-0.851 -3.183)"/>
    <path id="XMLID_107_" class="cls-2" d="M299.6,247.267c.678-3.97,10.65-9.295,9.779,7.552a1,1,0,0,1-.968,1.065.924.924,0,0,1-1.065-.871c.1-2.033.968-7.262-.871-8.617h0c-1.936-.871-4.357-1.452-4.841,1.162a1,1,0,0,1-1.162.871,1.072,1.072,0,0,1-.871-1.162Z" transform="translate(-1.918 -3.155)"/>
    <path id="XMLID_108_" class="cls-2" d="M307.442,250.633c-8.327.484-6.874,6.487-.581,2.421a1.024,1.024,0,0,1,1.355.194.981.981,0,0,1-.194,1.452c-9.2,6.1-12.877-5.325-.581-6.1a.97.97,0,0,1,.968.968.9.9,0,0,1-.968,1.065Z" transform="translate(-1.918 -3.326)"/>
    <path id="XMLID_109_" class="cls-2" d="M314.19,247c10.166-9,7.455,4.841,8.423,7.455a.918.918,0,0,1,.194,1.259.969.969,0,0,1-1.355.29c-3.389-2.808,2.614-15.007-5.809-7.649a1.053,1.053,0,0,1-1.452,0,.936.936,0,0,1,0-1.355Z" transform="translate(-2.373 -3.18)"/>
    <path id="XMLID_110_" class="cls-2" d="M326.8,246.967c.678-3.97,10.65-9.295,9.779,7.552a.924.924,0,0,1-.871,1.065,1,1,0,0,1-1.065-.968c.1-2.033.968-7.262-.871-8.617h0c-1.936-.871-4.357-1.452-4.841,1.162a1.075,1.075,0,0,1-2.13-.194Z" transform="translate(-2.783 -3.145)"/>
    <path id="XMLID_111_" class="cls-2" d="M334.845,250.336c-8.327.484-6.874,6.487-.581,2.421a.981.981,0,0,1,1.452.194,1.174,1.174,0,0,1-.194,1.452c-9.2,6.1-12.877-5.325-.581-6a.97.97,0,0,1,.968.968,1,1,0,0,1-1.065.968Z" transform="translate(-2.792 -3.32)"/>
    <path id="XMLID_112_" class="cls-2" d="M314.64,245.357c1.065,2.13.871,7.165.775,9.392a.987.987,0,1,1-1.936-.387c.1-5.325-.581-5.809-.678-9.585a.983.983,0,0,1,1.259-.678.932.932,0,0,1,.581,1.259Z" transform="translate(-2.338 -3.181)"/>
    <path id="XMLID_113_" class="cls-2" d="M330.5,255.2a2.78,2.78,0,0,1-2.13-.968c-1.936-1.355-.484-2.517,1.646-3.2,3.582-3.1,5.325-1.936,5.422-.1.871.484.968,1.355-.29,2.9-2.421,2.711-3.97,2.517-4.647,1.355Z" transform="translate(-2.804 -3.343)"/>
    <path id="XMLID_114_" class="cls-2" d="M327.332,241.149c0,.1-.1.1,0,0a.1.1,0,0,0,.1.1.868.868,0,0,1,.871.871.955.955,0,0,1-.871.968c-2.13-.194-2.808-1.549-1.452-3.2a1.037,1.037,0,0,1,1.355-.1c.291.484.387.968,0,1.355Z" transform="translate(-2.735 -3.04)"/>
    <path id="XMLID_115_" class="cls-2" d="M331.224,238.235l.291.581a.924.924,0,0,1-.871,1.065c-2.614.1-2.13-4.066.484-3.582a.918.918,0,0,1,.678,1.259c-.194.387-.29.581-.581.678Z" transform="translate(-2.85 -2.934)"/>
    <path id="XMLID_116_" class="cls-2" d="M335.429,238.936a1.825,1.825,0,0,1,.194.775,1,1,0,0,1-1.162.871c-1.646-.387-1.743-3.2.678-3.582a.941.941,0,0,1,1.065.968,1.331,1.331,0,0,1-.775.968Z" transform="translate(-2.989 -2.957)"/>
    <path id="XMLID_117_" class="cls-2" d="M338.431,242.833c0,.1.1.1.1.194a.924.924,0,0,1-.484,1.355.98.98,0,0,1-1.355-.387c-.775-1.743-.387-3.2,1.646-3.2a1,1,0,0,1,.968,1.065,1.03,1.03,0,0,1-.871.968Z" transform="translate(-3.086 -3.078)"/>
    <path id="XMLID_118_" class="cls-2" d="M283.09,146.543h-.29l.194-1.743h.29Z" transform="translate(-1.384 -0.026)"/>
    <path id="XMLID_119_" class="cls-2" d="M282.79,149.443l-.29-.1.194-1.646h.29Z" transform="translate(-1.374 -0.118)"/>
    <path id="XMLID_120_" class="cls-2" d="M282.587,152.243v-.1l.1-1.549-.29-.1-.194,1.549v.194Z" transform="translate(-1.365 -0.207)"/>
    <path id="XMLID_121_" class="cls-2" d="M282.287,155.143l.1-.775V153.4h-.29l-.1.968-.1.775Z" transform="translate(-1.355 -0.299)"/>
    <path id="XMLID_122_" class="cls-2" d="M281.99,157.943h-.29l.1-1.743.387.1Z" transform="translate(-1.349 -0.388)"/>
    <path id="XMLID_123_" class="cls-2" d="M281.69,160.843h-.29l.1-1.743h.387Z" transform="translate(-1.339 -0.48)"/>
    <path id="XMLID_124_" class="cls-2" d="M281.487,163.643l.1-.871V162l-.291-.1-.1.775-.1.968Z" transform="translate(-1.33 -0.569)"/>
    <path id="XMLID_125_" class="cls-2" d="M281.187,166.543v-.1l.194-1.646h-.387l-.1,1.646h-.1Z" transform="translate(-1.32 -0.661)"/>
    <path id="XMLID_126_" class="cls-2" d="M280.89,169.343h-.29l.1-1.743.387.1Z" transform="translate(-1.314 -0.751)"/>
    <path id="XMLID_127_" class="cls-2" d="M280.687,172.243v-.678l.1-1.065h-.29l-.194,1.065v.678Z" transform="translate(-1.304 -0.843)"/>
    <path id="XMLID_128_" class="cls-2" d="M280.29,175.043l.1-.387.1-1.259-.29-.1L280,174.655v.387Z" transform="translate(-1.295 -0.932)"/>
    <path id="XMLID_129_" class="cls-2" d="M279.99,177.943l.1-.29.1-1.452h-.291l-.194,1.355v.29Z" transform="translate(-1.285 -1.024)"/>
    <path id="XMLID_130_" class="cls-2" d="M279.69,180.743l.1-.387v-.581l.1-.678h0l-.29-.1v.1l-.1.581-.1.678v.387Z" transform="translate(-1.276 -1.113)"/>
    <path id="XMLID_131_" class="cls-2" d="M279.29,183.643h0l.1-.678.1-.581.1-.484h-.387l-.1.484-.1.581v.581h0Z" transform="translate(-1.263 -1.205)"/>
    <path id="XMLID_132_" class="cls-2" d="M278.79,186.443l.1-.387.1-.581.1-.581.1-.194h-.387v.1l-.1.678-.1.581-.1.29Z" transform="translate(-1.247 -1.294)"/>
    <path id="XMLID_133_" class="cls-2" d="M278.29,189.243l.1-.29.1-.581.1-.484v-.29l-.291-.1-.1.29-.1.581-.1.484v.387Z" transform="translate(-1.231 -1.383)"/>
    <path id="XMLID_134_" class="cls-2" d="M277.687,192.043l.1-.29.1-.581.1-.484.1-.29-.387-.1v.29l-.194.581-.1.484-.1.387Z" transform="translate(-1.209 -1.472)"/>
    <path id="XMLID_135_" class="cls-2" d="M276.89,194.843l.1-.387.194-.484.1-.581.1-.194-.29-.1-.1.194-.194.581-.1.484-.1.387Z" transform="translate(-1.187 -1.561)"/>
    <path id="XMLID_136_" class="cls-2" d="M276.187,197.64v-.1l.1-.29.1-.29v-.29l.1-.29v-.29l.1-.194-.29-.1-.1.194v.29l-.1.29-.1.29-.1.29-.1.29v.1Z" transform="translate(-1.161 -1.647)"/>
    <path id="XMLID_137_" class="cls-2" d="M275.687,200.44v-.29l.1-.29v-.387l.1-.29.1-.29V198.7l-.387-.1v.194l-.1.29v.387l-.1.29v.387l-.1.194Z" transform="translate(-1.145 -1.736)"/>
    <path id="XMLID_138_" class="cls-2" d="M275.29,203.243l.1-.484.1-.775V201.5h-.29v.1l-.1.387-.1.678v.581Z" transform="translate(-1.136 -1.829)"/>
    <path id="XMLID_139_" class="cls-2" d="M275.087,206.043v-.1l.1-.775V204.4l-.29-.1-.1.775v.871l-.1.1Z" transform="translate(-1.126 -1.918)"/>
    <path id="XMLID_140_" class="cls-2" d="M274.89,208.943l.1-.484V207.2h-.29l-.1.387v1.355Z" transform="translate(-1.123 -2.01)"/>
    <path id="XMLID_141_" class="cls-2" d="M274.79,211.843l.1-.775V210.1H274.5v1.743Z" transform="translate(-1.12 -2.102)"/>
    <path id="XMLID_142_" class="cls-2" d="M274.79,214.646h0V213h-.29v1.646h.29Z" transform="translate(-1.12 -2.194)"/>
    <path id="XMLID_143_" class="cls-2" d="M274.887,217.543l-.1-.194V215.8h-.29v1.743Z" transform="translate(-1.12 -2.283)"/>
    <path id="XMLID_144_" class="cls-2" d="M274.887,220.443V218.7H274.5v.581l.1.871v.29Z" transform="translate(-1.12 -2.375)"/>
    <path id="XMLID_145_" class="cls-2" d="M275.084,223.243l-.1-.387V221.5H274.6v.484l.1.871v.387Z" transform="translate(-1.123 -2.464)"/>
    <path id="XMLID_146_" class="cls-2" d="M275.187,226.143v-.678l-.1-.775v-.29h-.29v1.162l.1.581Z" transform="translate(-1.129 -2.557)"/>
    <path id="XMLID_147_" class="cls-2" d="M275.387,228.943h0v-.871l-.1-.775v-.1l-.29.1h0v.871l.1.775v.1Z" transform="translate(-1.136 -2.646)"/>
    <path id="XMLID_148_" class="cls-2" d="M275.684,231.843v-.387l-.1-.871-.1-.484h-.29v.581l.1.775.1.387Z" transform="translate(-1.142 -2.738)"/>
    <path id="XMLID_149_" class="cls-2" d="M275.984,234.643v-.194l-.1-.678-.1-.775v-.1l-.29.1v.1l.1.678.1.775v.194Z" transform="translate(-1.152 -2.827)"/>
    <path id="XMLID_150_" class="cls-2" d="M276.381,237.543v-.29l-.1-.581-.1-.678V235.8H275.8v.194l.194.678v.678l.1.194Z" transform="translate(-1.161 -2.919)"/>
    <path id="XMLID_151_" class="cls-2" d="M276.881,240.343v-.1l-.1-.484-.1-.581-.1-.581-.29.1.1.581.1.581.1.484h.29Z" transform="translate(-1.177 -3.008)"/>
    <path id="XMLID_152_" class="cls-2" d="M277.671,243.046h-.1v-.194l-.1-.194v-.194l-.1-.194-.1-.194v-.29l-.1-.387-.387.1.1.387.1.194.1.29v.194l.1.194v.194l.1.194h0Z" transform="translate(-1.193 -3.097)"/>
    <path id="XMLID_153_" class="cls-2" d="M278.474,245.843v-.194l-.1-.29-.194-.387v-.387l-.1-.29-.1-.194-.29.1v.194l.1.29.1.387.1.29.1.387.1.1Z" transform="translate(-1.222 -3.183)"/>
    <path id="XMLID_154_" class="cls-2" d="M279.175,248.643l-.1-.29-.1-.484-.1-.387-.1-.484v-.1l-.387.1v.1l.1.387.1.484.1.484.1.29Z" transform="translate(-1.244 -3.272)"/>
    <path id="XMLID_155_" class="cls-2" d="M279.678,251.443l-.1-.581-.194-.968V249.7l-.387.1v.194l.29.968.1.581Z" transform="translate(-1.263 -3.361)"/>
    <path id="XMLID_156_" class="cls-2" d="M280.278,254.243l-.29-1.065-.1-.678-.29.1.1.678.194,1.065Z" transform="translate(-1.282 -3.45)"/>
    <path id="XMLID_157_" class="cls-2" d="M280.681,257.046v-.387l-.194-1.065-.1-.194h-.29v.194l.194,1.162.1.387Z" transform="translate(-1.298 -3.542)"/>
    <path id="XMLID_158_" class="cls-2" d="M281.181,259.943l-.1-.775-.194-.968-.29.1.1.968.194.678Z" transform="translate(-1.314 -3.632)"/>
    <path id="XMLID_159_" class="cls-2" d="M281.678,262.743l-.194-1.065-.1-.678-.387.1.1.678.194.968Z" transform="translate(-1.327 -3.721)"/>
    <path id="XMLID_160_" class="cls-2" d="M282.081,265.543v-.1l-.194-1.259-.1-.387-.29.1v.387l.194,1.162v.194Z" transform="translate(-1.342 -3.81)"/>
    <path id="XMLID_161_" class="cls-2" d="M282.481,268.443l-.1-.581-.194-1.162h-.29l.194,1.162.1.581Z" transform="translate(-1.355 -3.902)"/>
    <path id="XMLID_162_" class="cls-2" d="M282.881,271.243h0l-.194-1.743-.387.1.29,1.646h.29Z" transform="translate(-1.368 -3.991)"/>
    <path id="XMLID_163_" class="cls-2" d="M283.281,274.046l-.1-.678-.1-.968H282.7l.1.968.194.775Z" transform="translate(-1.381 -4.083)"/>
    <path id="XMLID_164_" class="cls-2" d="M283.681,276.846l-.194-1.549v-.1H283.1v.1l.194,1.646Z" transform="translate(-1.393 -4.172)"/>
    <path id="XMLID_165_" class="cls-2" d="M283.477,144.194c0-.194-.484-.484-.678.484s.581.484.581.484a3.631,3.631,0,0,1,.1-.968Z" transform="translate(-1.383 0)"/>
    <path id="XMLID_166_" class="cls-2" d="M284.455,276.875l-1.162-.775-.194.484.29,2.227Z" transform="translate(-1.393 -4.201)"/>
  </g>
</svg>
