<svg xmlns="http://www.w3.org/2000/svg" viewBox="495 6556.804 124.079 177.691">
  <defs>
    <style>
      .cls-1, .cls-2 {
        fill: #5b7915;
      }

      .cls-1 {
        fill-rule: evenodd;
      }
    </style>
  </defs>
  <g id="Untitled-1" transform="translate(255.719 6412.808)">
    <path id="XMLID_2_" class="cls-1" d="M283.4,144.2l.248,177.346s3.1-33.338,5.329-46.722,9.543-37.179,4.09-61.346c-5.7-24.043-6.073-35.2-9.667-69.278Z" transform="translate(10.558 0.049)"/>
    <path id="XMLID_4_" class="cls-2" d="M283.424,144l.248,177.222h-.124L283.3,144Zm.124,177.594Zm0-.372s3.1-33.214,5.205-46.474l.124-.124c-2.107,13.385-5.205,46.6-5.329,46.6Zm5.205-46.1c.372-2.479.991-5.949,1.611-8.427h.124c-.62,2.479-1.239,5.949-1.611,8.551Zm1.611-8.427c2.85-13.632,6.816-33.461,2.355-53.291h.124c4.462,19.829.5,39.658-2.355,53.291Zm2.479-53.291c-4.462-19.829-5.577-30.983-7.808-52.051h.124c2.231,21.068,3.346,32.222,7.808,52.051Zm-7.808-52.051L283.3,144h.124c.62,6.2,1.239,12.393,1.611,17.35Zm-1.611-17.1Z" transform="translate(10.534 0.001)"/>
    <path id="XMLID_12_" class="cls-2" d="M288.7,271.9c1.983-1.239,4.09-25.53,21.068-38.791,16.855-13.261,20.449-47.714,20.449-47.714s.868,44.12-16.607,59.239S289.32,271.656,288.7,271.9Z" transform="translate(11.827 9.908)"/>
    <path id="XMLID_14_" class="cls-2" d="M288.724,272c.5-.372.991-2.231,1.735-4.957h.124c-.744,2.85-1.363,4.709-1.859,4.957Zm1.735-4.957c2.231-8.056,6.692-24.043,19.209-33.957l.124.124c-12.517,9.915-16.979,25.778-19.209,33.833Zm19.209-33.833c16.855-13.261,20.449-47.466,20.449-47.59h.124s-3.594,34.329-20.573,47.59Zm20.573-47.59Zm0-.62c0,1.239.868,44.367-16.607,59.611l-.124-.248c17.474-15.12,16.607-58.124,16.607-59.363Zm-16.607,59.983a144.679,144.679,0,0,0-23.795,25.778l-.124-.124c2.6-3.594,9.667-13.509,23.919-25.654Zm-23.795,25.654q-.929,1.3-1.115,1.487L288.6,272c.124,0,.5-.5,1.239-1.363ZM288.724,272Z" transform="translate(11.803 9.813)"/>
    <path id="XMLID_22_" class="cls-2" d="M288.7,255.393s17.226-4.462,19.457,13.756,8.427,19.705,8.427,19.705-13.633-3.222-17.474-15.243-.62-11.154-10.41-18.218Z" transform="translate(11.827 26.543)"/>
    <path id="XMLID_23_" class="cls-2" d="M270.372,249.1v1.611l.124.372v.248H270V249.1Z" transform="translate(7.352 25.153)"/>
    <path id="XMLID_24_" class="cls-2" d="M270.372,246.3v2.107H270V246.3Z" transform="translate(7.352 24.483)"/>
    <path id="XMLID_25_" class="cls-2" d="M270.272,243.4h0l.124.62v1.611h-.5V243.4h.372Z" transform="translate(7.328 23.789)"/>
    <path id="XMLID_26_" class="cls-2" d="M270.072,240.5v.372l.124.744v.62l.124.5h-.5v-.5l-.124-.62v-.991Z" transform="translate(7.28 23.095)"/>
    <path id="XMLID_27_" class="cls-2" d="M269.8,237.7v.372l.124.744.124.62v.5h-.5v-.372l-.124-.744-.124-.744V237.7Z" transform="translate(7.184 22.425)"/>
    <path id="XMLID_28_" class="cls-2" d="M269.172,234.8l.124.248.124.744.124.744.124.5-.5.124v-.5l-.124-.744-.248-.744v-.248Z" transform="translate(7.064 21.731)"/>
    <path id="XMLID_29_" class="cls-2" d="M268.472,232.1l.124.248.124.372.124.372v.372l.248.744-.372.124-.248-.744-.124-.372-.124-.372v-.5l-.124-.248Z" transform="translate(6.897 21.084)"/>
    <path id="XMLID_30_" class="cls-2" d="M267.7,229.3v.124l.124.372.124.372.124.5.124.372.124.372h0l-.372.124h0l-.124-.372-.124-.372-.124-.372-.124-.5-.124-.372-.124-.124Z" transform="translate(6.681 20.414)"/>
    <path id="XMLID_31_" class="cls-2" d="M266.572,226.6l.124.372.124.372.248.372.124.372.124.372.124.248-.372.124-.124-.124-.124-.5-.248-.372-.124-.372-.124-.372-.124-.248Z" transform="translate(6.442 19.768)"/>
    <path id="XMLID_32_" class="cls-2" d="M265.272,224.1l.248.248.124.372.248.372.124.5.248.372v.124l-.372.124v-.124l-.248-.372-.124-.372-.248-.372-.248-.372-.124-.372Z" transform="translate(6.131 19.17)"/>
    <path id="XMLID_33_" class="cls-2" d="M263.872,221.6l.124.248.248.372.248.372.248.372.124.372.124.124-.372.248v-.124l-.248-.372-.248-.372-.248-.372-.248-.372-.124-.248Z" transform="translate(5.796 18.572)"/>
    <path id="XMLID_34_" class="cls-2" d="M262.172,219.2v.124l.372.372.248.372.248.372.372.372.124.248-.372.248-.124-.248-.372-.372-.248-.372-.248-.372-.248-.372-.124-.124Z" transform="translate(5.389 17.997)"/>
    <path id="XMLID_35_" class="cls-2" d="M260.372,217l.124.248.372.372.248.372.372.372.248.372h0l-.248.248h0l-.372-.372-.372-.372-.248-.372-.372-.372-.124-.124Z" transform="translate(4.958 17.471)"/>
    <path id="XMLID_36_" class="cls-2" d="M258.448,214.8l.248.372.372.372.248.372.248.372.372.248-.372.248-.248-.248-.372-.372-.248-.372-.248-.372-.248-.248Z" transform="translate(4.528 16.944)"/>
    <path id="XMLID_37_" class="cls-2" d="M256.872,212.5l.124.124.248.372.248.372.248.372.248.372.124.248-.372.248-.124-.248-.248-.372-.248-.372-.248-.372-.248-.372-.124-.124Z" transform="translate(4.121 16.394)"/>
    <path id="XMLID_38_" class="cls-2" d="M255.572,210l.248.372.124.372.248.372.248.5.124.372-.372.124-.124-.248-.248-.5-.248-.372-.248-.372-.124-.5Z" transform="translate(3.81 15.796)"/>
    <path id="XMLID_39_" class="cls-2" d="M254.5,207.3l.124.5.124.372.248.372.124.372.124.5h.124l-.5.248v-.124l-.124-.372-.248-.5-.124-.372-.124-.372-.248-.372Z" transform="translate(3.522 15.149)"/>
    <path id="XMLID_40_" class="cls-2" d="M253.572,204.6h0l.124.5.124.372.124.372.124.5.124.372h0l-.372.248v-.124l-.124-.372-.248-.372v-.5l-.248-.372v-.5Z" transform="translate(3.331 14.503)"/>
    <path id="XMLID_41_" class="cls-2" d="M252.872,201.9l.124.124v.5l.124.372.124.372.124.372v.372l-.372.124-.124-.372-.124-.372v-.5l-.124-.372-.124-.372v-.124Z" transform="translate(3.163 13.857)"/>
    <path id="XMLID_42_" class="cls-2" d="M252.372,199.1h.124v.5l.124.372v.744l.124.372v.124l-.372.124v-.124l-.124-.372-.124-.5V199.6l-.124-.372V199.1Z" transform="translate(3.044 13.187)"/>
    <path id="XMLID_43_" class="cls-2" d="M252.2,196.2v.991l.124.744v.5h-.372l-.124-.5v-.744l-.124-.744v-.124Z" transform="translate(2.972 12.493)"/>
    <path id="XMLID_44_" class="cls-2" d="M252.1,193.4v2.231h-.372l-.124-.744V193.4Z" transform="translate(2.948 11.823)"/>
    <path id="XMLID_45_" class="cls-2" d="M252.1,190.5h0v2.231h-.5v-.991l.124-.62v-.62h.372Z" transform="translate(2.948 11.129)"/>
    <path id="XMLID_46_" class="cls-2" d="M252.444,187.724v.124l-.124.372v.5l-.124.372v.868l-.5-.124.124-.248v-.991l.124-.372v-.62Z" transform="translate(2.972 10.435)"/>
    <path id="XMLID_47_" class="cls-2" d="M252.348,185.2l.372.124v.248l-.124.744-.124.62H252.1v-.62l.124-.868.124-.248.372.124Z" transform="translate(3.068 9.861)"/>
    <path id="XMLID_48_" class="cls-2" d="M252.1,185.7l.124-.124.124-.372.372.124-.124.372v.124Z" transform="translate(3.068 9.861)"/>
    <path id="XMLID_49_" class="cls-2" d="M251.2,188.707l.124-.372.124-.5.372-.868.124-.372.372.124-.124.372-.248.868-.248.5-.124.372Z" transform="translate(2.852 10.196)"/>
    <path id="XMLID_50_" class="cls-2" d="M250.4,191.531v-.248l.248-.62.248-.62.124-.62V189.3l.372.248h0l-.124.62-.124.62-.248.62v.248Z" transform="translate(2.661 10.842)"/>
    <path id="XMLID_51_" class="cls-2" d="M249.7,194.331l.124-.744.248-.744.124-.744.5.124-.124.62-.248.867-.124.744Z" transform="translate(2.493 11.512)"/>
    <path id="XMLID_52_" class="cls-2" d="M249.1,197.131l.124-.124.124-.868.124-.867.124-.372.372.124v.372l-.248.868-.124.868h-.5Z" transform="translate(2.35 12.182)"/>
    <path id="XMLID_53_" class="cls-2" d="M248.7,199.907v-.372l.124-.5.124-.5v-.372l.124-.372h.372v.372l-.124.5v.5l-.124.372v.5Z" transform="translate(2.254 12.876)"/>
    <path id="XMLID_54_" class="cls-2" d="M248.4,202.831v-.62l.124-.5v-.5l.124-.5V200.6l.372.124v.5l-.124.5v.991l-.124.124Z" transform="translate(2.182 13.546)"/>
    <path id="XMLID_55_" class="cls-2" d="M248.2,205.607l.124-.124V203.5h.5v.5l-.124.5v1.239Z" transform="translate(2.135 14.24)"/>
    <path id="XMLID_56_" class="cls-2" d="M248.324,208.531v-.248l-.124-.5V206.3h.5v2.231Z" transform="translate(2.135 14.91)"/>
    <path id="XMLID_57_" class="cls-2" d="M248.548,211.431v-.248l-.124-.5v-.5l-.124-.5v-.5h.5v.868l.124.62v.5l.124.248Z" transform="translate(2.158 15.604)"/>
    <path id="XMLID_58_" class="cls-2" d="M248.972,214.231v-.124l-.124-.5-.124-.5v-.62l-.124-.372.5-.124v.5l.124.5.124.5.124.5v.248Z" transform="translate(2.23 16.274)"/>
    <path id="XMLID_59_" class="cls-2" d="M249.7,217.031v-.124l-.124-.5-.124-.5-.124-.5-.124-.5.372-.124.124.5.124.5.124.5.124.5.124.124Z" transform="translate(2.374 16.944)"/>
    <path id="XMLID_60_" class="cls-2" d="M250.744,219.731v-.124l-.248-.5-.124-.372-.248-.5-.124-.5h0l.372-.248h0l.248.5.124.5.248.5.124.5.124.124Z" transform="translate(2.565 17.59)"/>
    <path id="XMLID_61_" class="cls-2" d="M252.091,222.307v-.124l-.248-.372-.248-.5-.248-.5-.248-.372v-.124l.372-.124h0l.248.372.248.5.248.5.248.372.124.124Z" transform="translate(2.829 18.237)"/>
    <path id="XMLID_62_" class="cls-2" d="M253.863,224.707h0l-.372-.5-.372-.372-.248-.5-.248-.372-.124-.124.372-.248.124.124.248.372.248.5.372.372.248.372.124.124Z" transform="translate(3.163 18.811)"/>
    <path id="XMLID_63_" class="cls-2" d="M255.663,226.883l-.62-.744-.62-.744-.124-.248.372-.248.124.124.62.868.62.744Z" transform="translate(3.594 19.361)"/>
    <path id="XMLID_64_" class="cls-2" d="M257.339,229.183l-.248-.372-.62-.868-.372-.5.248-.248.5.5.62.868.248.372Z" transform="translate(4.025 19.912)"/>
    <path id="XMLID_65_" class="cls-2" d="M259.039,231.507l-.124-.124-.5-.744-.62-.868v-.124l.248-.248.124.124.62.868.5.744.124.124Z" transform="translate(4.432 20.438)"/>
    <path id="XMLID_66_" class="cls-2" d="M260.639,233.783h0l-.5-.744-.5-.744-.248-.248.372-.248.248.248.5.744.5.744h0Z" transform="translate(4.815 21.013)"/>
    <path id="XMLID_67_" class="cls-2" d="M262.239,236.307l-.124-.248-.372-.744-.5-.62-.248-.248.372-.248.248.248.5.744.372.62.124.248Z" transform="translate(5.198 21.587)"/>
    <path id="XMLID_68_" class="cls-2" d="M263.739,238.707l-.248-.372-.5-.744-.372-.744H262.5l.5-.248v.124l.5.62.372.744.248.372Z" transform="translate(5.557 22.161)"/>
    <path id="XMLID_69_" class="cls-2" d="M265.115,241.231l-.124-.372-.372-.62-.372-.62-.248-.372.372-.248.248.372.372.744.372.62.124.248Z" transform="translate(5.916 22.736)"/>
    <path id="XMLID_70_" class="cls-2" d="M266.515,243.731l-.248-.5-.372-.5-.248-.62-.248-.372.372-.248.248.372.372.62.248.5.248.5Z" transform="translate(6.251 23.334)"/>
    <path id="XMLID_71_" class="cls-2" d="M267.791,246.231l-.248-.5-.5-.991-.248-.5.372-.248.248.5.5,1.115.248.5Z" transform="translate(6.586 23.932)"/>
    <path id="XMLID_72_" class="cls-2" d="M268.991,248.831l-.124-.372-.372-.744-.372-.744-.124-.124.5-.248v.124l.372.868.372.744.124.248Z" transform="translate(6.873 24.554)"/>
    <path id="XMLID_73_" class="cls-2" d="M270.315,251.431h-.124v-.124h-.124v-.124l-.124-.248-.124-.372-.5-.868-.124-.248.5-.248.124.372.372.868.124.248.124.248.124.124h0v.124h0Z" transform="translate(7.16 25.177)"/>
    <path id="XMLID_74_" class="cls-2" d="M272.724,256.9h.248l.372.124.372.124.372.124.62.248h.124l-.124.5-.248-.124-.5-.248h-.372l-.372-.248h-.248l-.372-.124h0Z" transform="translate(7.974 27.019)"/>
    <path id="XMLID_75_" class="cls-2" d="M269.924,256.4h.868l.372.124h.372l.372.124h.124v.5l-.248-.124h-.372l-.248-.124h-.372l-.372-.124h-.62Z" transform="translate(7.304 26.9)"/>
    <path id="XMLID_76_" class="cls-2" d="M267,256.424h.372l.124-.124h1.735v.5H267Z" transform="translate(6.634 26.876)"/>
    <path id="XMLID_77_" class="cls-2" d="M264.1,257.244l.248-.124L264.6,257h.248l.124-.124.248-.124h.5l.248-.124h.248l.124-.124v.5h-.248l-.248.124-.248.124h-.372l-.248.124-.248.124h-.248l-.124.124Z" transform="translate(5.94 26.924)"/>
    <path id="XMLID_78_" class="cls-2" d="M261.6,258.739l.248-.124.248-.124.124-.248.248-.124.248-.124.248-.124.124-.124.248-.124.124-.124.248.372-.124.124-.248.124-.248.124-.124.124-.248.124-.248.124-.248.124-.124.124-.248.248Z" transform="translate(5.341 27.163)"/>
    <path id="XMLID_79_" class="cls-2" d="M259.6,260.811h0l.248-.248.124-.248.248-.248.124-.124.248-.248.248-.248.124-.248h.124l.248.372h0l-.248.124-.124.248-.248.248-.124.124-.248.248-.124.248-.248.248v.124Z" transform="translate(4.863 27.57)"/>
    <path id="XMLID_80_" class="cls-2" d="M258.1,263.359l.124-.248.124-.372.248-.248.124-.372.124-.248.248-.248V261.5l.372.248h0l-.248.372-.124.248-.124.248-.248.372-.124.248-.124.372Z" transform="translate(4.504 28.12)"/>
    <path id="XMLID_81_" class="cls-2" d="M257,266.107h0l.124-.372.124-.372.248-.5.124-.248.124-.5V264l.5.248-.124.124-.124.372-.124.372-.124.372-.124.372-.124.372h0Z" transform="translate(4.24 28.719)"/>
    <path id="XMLID_82_" class="cls-2" d="M256.2,268.907l.248-.744.248-.744.124-.62.5.124-.248.62-.248.867-.248.62Z" transform="translate(4.049 29.389)"/>
    <path id="XMLID_83_" class="cls-2" d="M255.2,271.483l.248-.5.248-.62.248-.62.124-.248.372.124-.124.248-.248.62-.248.744-.248.5Z" transform="translate(3.81 30.035)"/>
    <path id="XMLID_84_" class="cls-2" d="M254.1,274.207l.124-.372.248-.5.248-.5.248-.62V272.1l.372.248h0l-.248.62-.248.5-.248.5-.124.372Z" transform="translate(3.546 30.657)"/>
    <path id="XMLID_85_" class="cls-2" d="M252.7,276.683l.124-.372.248-.372.248-.5.248-.372.248-.372.372.248-.248.372-.248.372-.248.5-.248.372-.124.248Z" transform="translate(3.211 31.279)"/>
    <path id="XMLID_86_" class="cls-2" d="M251,278.835v-.124l.248-.248.248-.248.124-.248.248-.248.248-.248.248-.372.372.248-.248.372-.248.248-.248.372-.248.248-.124.248-.248.248h-.124Z" transform="translate(2.805 31.853)"/>
    <path id="XMLID_87_" class="cls-2" d="M248.8,280.439h.124l.124-.124.124-.124h.248l.124-.124.124-.124.124-.124.248-.124.124-.124.248-.124.124-.248.372.372-.248.248-.124.124-.248.124-.124.124-.248.124-.124.124-.248.124-.124.124H249.3l-.124.124-.124.124h0Z" transform="translate(2.278 32.356)"/>
    <path id="XMLID_88_" class="cls-2" d="M250.255,280.672l-.5.124-.5.124h-.372l-.372.124h-.5l-.124-.372h.124l.5-.124h.372l.372-.124h.372l.5-.124Z" transform="translate(2.063 32.619)"/>
    <path id="XMLID_89_" class="cls-2" d="M253.031,279.972l-.248.124-.372.124-.372.124h-.372l-.372.124-.248.124H250.8v-.372l.124-.124h.372l.248-.124.372-.124h.372l.372-.124.248-.124Z" transform="translate(2.757 32.452)"/>
    <path id="XMLID_90_" class="cls-2" d="M255.731,278.972h-.124l-.372.248-.5.124-.372.248-.372.124-.372.124-.124-.372.372-.248.372-.124.372-.124.372-.124.372-.248h.124Z" transform="translate(3.403 32.212)"/>
    <path id="XMLID_91_" class="cls-2" d="M258.207,277.7l-.372.124-.372.248-.5.248-.372.248-.248.124-.248-.372.248-.124.5-.248.372-.248.372-.248.372-.248Z" transform="translate(4.025 31.877)"/>
    <path id="XMLID_92_" class="cls-2" d="M260.483,275.872l-.124.248-.248.124-.124.124-.248.248-.372.248-.372.248-.248.248-.248-.5h.124l.372-.372.5-.248.124-.248.248-.124.124-.124.248-.248Z" transform="translate(4.599 31.471)"/>
    <path id="XMLID_93_" class="cls-2" d="M262.435,273.748v.124l-.248.248-.124.248-.248.124-.124.248-.124.124-.248.248-.124.124-.248.248-.248-.372.124-.124.248-.248.124-.124.124-.248.248-.124.124-.248.248-.124.124-.248.124-.124Z" transform="translate(5.126 30.992)"/>
    <path id="XMLID_94_" class="cls-2" d="M263.987,271.348h0l-.124.248-.124.248-.124.248-.124.248-.248.248-.124.248-.124.248-.124.248-.372-.248.124-.248.124-.248.124-.124.124-.248.248-.248.124-.248.124-.248.124-.248V271.1Z" transform="translate(5.557 30.418)"/>
    <path id="XMLID_95_" class="cls-2" d="M265.263,268.724l-.124.372-.248.372-.248.5-.124.5-.248.372-.372-.248.124-.372.248-.5.248-.372.248-.5.124-.248Z" transform="translate(5.892 29.819)"/>
    <path id="XMLID_96_" class="cls-2" d="M266.339,266.124v.124l-.248.62-.372.744-.248.5-.372-.124.248-.5.248-.744.248-.744h.124Z" transform="translate(6.179 29.197)"/>
    <path id="XMLID_97_" class="cls-2" d="M267.439,263.424l-.124.248v.124l-.124.248-.248.5-.124.5-.248.5-.372-.124.124-.5.248-.5.248-.5v-.248l.124-.248.124-.124Z" transform="translate(6.442 28.551)"/>
    <path id="XMLID_98_" class="cls-2" d="M269.135,261.272h0l-.248.124-.124.248-.124.124-.248.124-.124.248-.124.124-.124.248-.124.124-.124.124v.124l-.372-.248v-.124l.124-.124.124-.248.248-.124.124-.124.124-.248.124-.124.124-.248.248-.124.124-.248h.124Z" transform="translate(6.729 27.977)"/>
    <path id="XMLID_99_" class="cls-2" d="M271.507,259.7l-.248.124-.372.124-.248.248-.248.124-.372.248-.248.124-.124.124-.248-.372.124-.124.248-.124.372-.248.248-.124.248-.124.372-.248.248-.248Z" transform="translate(7.208 27.57)"/>
    <path id="XMLID_100_" class="cls-2" d="M274.031,258.272l-.868.372-.372.248-.372.248-.372.124-.248-.372.372-.124.372-.248.5-.248.744-.372Z" transform="translate(7.782 27.259)"/>
    <path id="XMLID_101_" class="cls-2" d="M241.783,197.582c1.611,25.282,3.718,50.564,2.355,75.846a1.3,1.3,0,0,1-2.355-1.115c.867-24.91-.991-49.325-2.479-74.111a1.2,1.2,0,0,1,.991-1.487,1.065,1.065,0,0,1,1.487.867Z" transform="translate(0 12.598)"/>
    <path id="XMLID_102_" class="cls-2" d="M240.642,196.631c6.94-.248,14.128-.5,20.7,1.611l-.372-.124c24.786,8.675,29,49.077-17.6,53.91a1.239,1.239,0,1,1,0-2.479c12.517-1.363,31.6-6.94,32.842-22.432,1.859-24.786-15.739-28.5-35.568-27.885a1.274,1.274,0,0,1-1.239-1.363c-.124-.744.5-1.239,1.239-1.239Z" transform="translate(0.025 12.558)"/>
    <path id="XMLID_103_" class="cls-2" d="M271.679,237c.372,7.064-3.222,25.53,5.081,23.547.62-.124,1.363-.372,1.363-1.115a1.239,1.239,0,1,1,2.479,0,3.572,3.572,0,0,1-2.479,3.346c-12.765,5.329-8.8-19.953-9.047-25.158a1.382,1.382,0,0,1,.991-1.611,1.5,1.5,0,0,1,1.611.991Z" transform="translate(7.036 22.014)"/>
    <path id="XMLID_104_" class="cls-2" d="M262.218,248.153c.62-6.2-13.261,5.205-5.949,9.915,2.107,1.239,6.692,1.115,7.436-1.611a1.264,1.264,0,0,1,2.479.5c-1.735,5.949-11.9,5.825-13.756.248-4.214-11.9,13.137-17.474,12.269-8.551a1.255,1.255,0,0,1-1.487.991,1.494,1.494,0,0,1-.991-1.487Z" transform="translate(2.988 23.993)"/>
    <path id="XMLID_105_" class="cls-2" d="M254.632,248.95c1.735.867,7.436,2.355,7.56-1.611a1.239,1.239,0,0,1,2.479,0c-.124,6.444-7.932,5.7-11.773,3.594a1.212,1.212,0,0,1-.248-1.735,1.4,1.4,0,0,1,1.983-.248Z" transform="translate(3.138 24.435)"/>
    <path id="XMLID_106_" class="cls-2" d="M268.47,244.968a44.624,44.624,0,0,0,4.214,3.966h0a2.2,2.2,0,0,0,1.239-.5,1.327,1.327,0,0,1,2.6.5c-1.611,6.568-9.047-1.115-10.41-3.1a1.289,1.289,0,0,1,.744-1.611,1.191,1.191,0,0,1,1.611.744Z" transform="translate(6.403 23.955)"/>
    <path id="XMLID_107_" class="cls-2" d="M299.6,248.4c.868-5.081,13.632-11.9,12.517,9.667a1.274,1.274,0,0,1-1.239,1.363,1.183,1.183,0,0,1-1.363-1.115c.124-2.6,1.239-9.295-1.115-11.03h0c-2.479-1.115-5.577-1.859-6.2,1.487a1.281,1.281,0,0,1-1.487,1.115A1.373,1.373,0,0,1,299.6,248.4Z" transform="translate(14.435 23.744)"/>
    <path id="XMLID_108_" class="cls-2" d="M309.64,251.2c-10.658.62-8.8,8.3-.744,3.1a1.311,1.311,0,0,1,1.735.248,1.255,1.255,0,0,1-.248,1.859c-11.773,7.808-16.483-6.816-.744-7.808a1.242,1.242,0,0,1,1.239,1.239,1.153,1.153,0,0,1-1.239,1.363Z" transform="translate(14.434 25.033)"/>
    <path id="XMLID_109_" class="cls-2" d="M314.272,247.843c13.013-11.526,9.543,6.2,10.782,9.543A1.175,1.175,0,0,1,325.3,259a1.24,1.24,0,0,1-1.735.372c-4.338-3.594,3.346-19.209-7.436-9.791a1.348,1.348,0,0,1-1.859,0,1.2,1.2,0,0,1,0-1.735Z" transform="translate(17.857 23.931)"/>
    <path id="XMLID_110_" class="cls-2" d="M326.8,248.1c.868-5.081,13.632-11.9,12.517,9.667a1.183,1.183,0,0,1-1.115,1.363,1.274,1.274,0,0,1-1.363-1.239c.124-2.6,1.239-9.295-1.115-11.03h0c-2.479-1.115-5.577-1.859-6.2,1.487a1.376,1.376,0,0,1-2.726-.248Z" transform="translate(20.945 23.672)"/>
    <path id="XMLID_111_" class="cls-2" d="M337.016,250.879c-10.658.62-8.8,8.3-.744,3.1a1.255,1.255,0,0,1,1.859.248,1.5,1.5,0,0,1-.248,1.859c-11.773,7.808-16.483-6.816-.744-7.684a1.242,1.242,0,0,1,1.239,1.239,1.274,1.274,0,0,1-1.363,1.239Z" transform="translate(21.015 24.985)"/>
    <path id="XMLID_112_" class="cls-2" d="M315.155,245.726c1.363,2.726,1.115,9.171.992,12.021a1.264,1.264,0,1,1-2.479-.5c.124-6.816-.744-7.436-.868-12.269a1.258,1.258,0,0,1,1.611-.867,1.194,1.194,0,0,1,.744,1.611Z" transform="translate(17.594 23.941)"/>
    <path id="XMLID_113_" class="cls-2" d="M331.351,256.9a3.558,3.558,0,0,1-2.726-1.239c-2.479-1.735-.62-3.222,2.107-4.09,4.585-3.966,6.816-2.479,6.94-.124,1.115.62,1.239,1.735-.372,3.718-3.1,3.47-5.081,3.222-5.949,1.735Z" transform="translate(21.103 25.157)"/>
    <path id="XMLID_114_" class="cls-2" d="M327.908,241.586c0,.124-.124.124,0,0a.121.121,0,0,0,.124.124,1.111,1.111,0,0,1,1.115,1.115,1.223,1.223,0,0,1-1.115,1.239c-2.727-.248-3.594-1.983-1.859-4.09a1.327,1.327,0,0,1,1.735-.124c.372.62.5,1.239,0,1.735Z" transform="translate(20.58 22.876)"/>
    <path id="XMLID_115_" class="cls-2" d="M331.872,238.788l.372.744a1.183,1.183,0,0,1-1.116,1.363c-3.346.124-2.727-5.205.62-4.585a1.175,1.175,0,0,1,.868,1.611c-.248.5-.372.744-.744.867Z" transform="translate(21.449 22.08)"/>
    <path id="XMLID_116_" class="cls-2" d="M336.034,239.482a2.335,2.335,0,0,1,.248.991,1.281,1.281,0,0,1-1.487,1.115c-2.107-.5-2.231-4.09.868-4.585a1.2,1.2,0,0,1,1.363,1.239,1.7,1.7,0,0,1-.991,1.239Z" transform="translate(22.492 22.254)"/>
    <path id="XMLID_117_" class="cls-2" d="M339.022,243.4c0,.124.124.124.124.248a1.183,1.183,0,0,1-.62,1.735,1.254,1.254,0,0,1-1.735-.5c-.991-2.231-.5-4.09,2.107-4.09a1.274,1.274,0,0,1,1.239,1.363,1.318,1.318,0,0,1-1.115,1.239Z" transform="translate(23.222 23.166)"/>
    <path id="XMLID_118_" class="cls-2" d="M283.172,147.031H282.8l.248-2.231h.372Z" transform="translate(10.415 0.192)"/>
    <path id="XMLID_119_" class="cls-2" d="M282.872,149.931l-.372-.124.248-2.107h.372Z" transform="translate(10.343 0.886)"/>
    <path id="XMLID_120_" class="cls-2" d="M282.7,152.731v-.124l.124-1.983-.372-.124-.248,1.983v.248Z" transform="translate(10.271 1.556)"/>
    <path id="XMLID_121_" class="cls-2" d="M282.4,155.631l.124-.991V153.4h-.372l-.124,1.239-.124.991Z" transform="translate(10.199 2.25)"/>
    <path id="XMLID_122_" class="cls-2" d="M282.072,158.431H281.7l.124-2.231.5.124Z" transform="translate(10.152 2.92)"/>
    <path id="XMLID_123_" class="cls-2" d="M281.772,161.331H281.4l.124-2.231h.5Z" transform="translate(10.08 3.614)"/>
    <path id="XMLID_124_" class="cls-2" d="M281.6,164.131l.124-1.115v-.991l-.372-.124-.124.991-.124,1.239Z" transform="translate(10.008 4.285)"/>
    <path id="XMLID_125_" class="cls-2" d="M281.3,167.031v-.124l.248-2.107h-.5l-.124,2.107H280.8Z" transform="translate(9.936 4.979)"/>
    <path id="XMLID_126_" class="cls-2" d="M280.972,169.831H280.6l.124-2.231.5.124Z" transform="translate(9.888 5.649)"/>
    <path id="XMLID_127_" class="cls-2" d="M280.8,172.731v-.868l.124-1.363h-.372l-.248,1.363v.868Z" transform="translate(9.816 6.343)"/>
    <path id="XMLID_128_" class="cls-2" d="M280.372,175.531l.124-.5.124-1.611-.372-.124L280,175.035v.5Z" transform="translate(9.745 7.013)"/>
    <path id="XMLID_129_" class="cls-2" d="M280.072,178.431l.124-.372.124-1.859h-.372l-.248,1.735v.372Z" transform="translate(9.673 7.707)"/>
    <path id="XMLID_130_" class="cls-2" d="M279.772,181.231l.124-.5v-.744l.124-.868h0l-.372-.124v.124l-.124.744-.124.868v.5Z" transform="translate(9.601 8.377)"/>
    <path id="XMLID_131_" class="cls-2" d="M279.372,184.131h0l.124-.868.124-.744.124-.62h-.5l-.124.62-.124.744v.744h0Z" transform="translate(9.505 9.071)"/>
    <path id="XMLID_132_" class="cls-2" d="M278.872,186.931l.124-.5.124-.744.124-.744.124-.248h-.5v.124l-.124.868-.124.744-.124.372Z" transform="translate(9.386 9.741)"/>
    <path id="XMLID_133_" class="cls-2" d="M278.372,189.731l.124-.372.124-.744.124-.62v-.372l-.372-.124-.124.372-.124.744-.124.62v.5Z" transform="translate(9.266 10.411)"/>
    <path id="XMLID_134_" class="cls-2" d="M277.8,192.531l.124-.372.124-.744.124-.62.124-.372-.5-.124v.372l-.248.744-.124.62-.124.5Z" transform="translate(9.099 11.081)"/>
    <path id="XMLID_135_" class="cls-2" d="M276.972,195.331l.124-.5.248-.62.124-.744.124-.248-.372-.124-.124.248-.248.744-.124.62-.124.5Z" transform="translate(8.931 11.751)"/>
    <path id="XMLID_136_" class="cls-2" d="M276.3,198.155v-.124l.124-.372.124-.372v-.372l.124-.372v-.372l.124-.248-.372-.124-.124.248v.372l-.124.372-.124.372-.124.372-.124.372v.124Z" transform="translate(8.74 12.397)"/>
    <path id="XMLID_137_" class="cls-2" d="M275.8,200.955v-.372l.124-.372v-.5l.124-.372.124-.372v-.248l-.5-.124v.248l-.124.372v.5l-.124.372v.5l-.124.248Z" transform="translate(8.62 13.067)"/>
    <path id="XMLID_138_" class="cls-2" d="M275.372,203.731l.124-.62.124-.991v-.62h-.372v.124l-.124.5-.124.868v.744Z" transform="translate(8.548 13.761)"/>
    <path id="XMLID_139_" class="cls-2" d="M275.2,206.531v-.124l.124-.991v-.991l-.372-.124-.124.991v1.115l-.124.124Z" transform="translate(8.476 14.431)"/>
    <path id="XMLID_140_" class="cls-2" d="M274.972,209.431l.124-.62V207.2h-.372l-.124.5v1.735Z" transform="translate(8.452 15.125)"/>
    <path id="XMLID_141_" class="cls-2" d="M274.872,212.331l.124-.991V210.1h-.5v2.231Z" transform="translate(8.428 15.819)"/>
    <path id="XMLID_142_" class="cls-2" d="M274.872,215.107h0V213H274.5v2.107h.372Z" transform="translate(8.428 16.513)"/>
    <path id="XMLID_143_" class="cls-2" d="M275,218.031l-.124-.248V215.8H274.5v2.231Z" transform="translate(8.428 17.184)"/>
    <path id="XMLID_144_" class="cls-2" d="M275,220.931V218.7h-.5v.744l.124,1.115v.372Z" transform="translate(8.428 17.878)"/>
    <path id="XMLID_145_" class="cls-2" d="M275.22,223.731l-.124-.5V221.5h-.5v.62l.124,1.115v.5Z" transform="translate(8.452 18.548)"/>
    <path id="XMLID_146_" class="cls-2" d="M275.3,226.631v-.868l-.124-.991V224.4H274.8v1.487l.124.744Z" transform="translate(8.5 19.242)"/>
    <path id="XMLID_147_" class="cls-2" d="M275.5,229.431h0v-1.115l-.124-.991V227.2l-.372.124h0v1.115l.124.991v.124Z" transform="translate(8.548 19.912)"/>
    <path id="XMLID_148_" class="cls-2" d="M275.82,232.331v-.5l-.124-1.115-.124-.62H275.2v.744l.124.991.124.5Z" transform="translate(8.596 20.606)"/>
    <path id="XMLID_149_" class="cls-2" d="M276.12,235.131v-.248l-.124-.868-.124-.991V232.9l-.372.124v.124l.124.868.124.991v.248Z" transform="translate(8.668 21.276)"/>
    <path id="XMLID_150_" class="cls-2" d="M276.544,238.031v-.372l-.124-.744-.124-.868V235.8h-.5v.248l.248.868v.868l.124.248Z" transform="translate(8.74 21.97)"/>
    <path id="XMLID_151_" class="cls-2" d="M277.044,240.831v-.124l-.124-.62-.124-.744-.124-.744-.372.124.124.744.124.744.124.62h.372Z" transform="translate(8.859 22.64)"/>
    <path id="XMLID_152_" class="cls-2" d="M277.915,243.507h-.124v-.248l-.124-.248v-.248l-.124-.248-.124-.248V241.9l-.124-.5-.5.124.124.5.124.248.124.372v.248l.124.248v.248l.124.248h0Z" transform="translate(8.979 23.31)"/>
    <path id="XMLID_153_" class="cls-2" d="M278.691,246.331v-.248l-.124-.372-.248-.5v-.5l-.124-.372-.124-.248-.372.124v.248l.124.372.124.5.124.372.124.5.124.124Z" transform="translate(9.194 23.956)"/>
    <path id="XMLID_154_" class="cls-2" d="M279.391,249.131l-.124-.372-.124-.62-.124-.5-.124-.62V246.9l-.5.124v.124l.124.5.124.62.124.62.124.372Z" transform="translate(9.362 24.626)"/>
    <path id="XMLID_155_" class="cls-2" d="M279.868,251.931l-.124-.744-.248-1.239V249.7l-.5.124v.248l.372,1.239.124.744Z" transform="translate(9.505 25.296)"/>
    <path id="XMLID_156_" class="cls-2" d="M280.467,254.731l-.372-1.363-.124-.867-.372.124.124.868.248,1.363Z" transform="translate(9.649 25.966)"/>
    <path id="XMLID_157_" class="cls-2" d="M280.844,257.507v-.5l-.248-1.363-.124-.248H280.1v.248l.248,1.487.124.5Z" transform="translate(9.769 26.66)"/>
    <path id="XMLID_158_" class="cls-2" d="M281.344,260.431l-.124-.991-.248-1.239-.372.124.124,1.239.248.868Z" transform="translate(9.888 27.33)"/>
    <path id="XMLID_159_" class="cls-2" d="M281.867,263.231l-.248-1.363L281.5,261l-.5.124.124.867.248,1.239Z" transform="translate(9.984 28)"/>
    <path id="XMLID_160_" class="cls-2" d="M282.243,266.031v-.124L282,264.3l-.124-.5-.372.124v.5l.248,1.487v.248Z" transform="translate(10.104 28.671)"/>
    <path id="XMLID_161_" class="cls-2" d="M282.643,268.931l-.124-.744-.248-1.487H281.9l.248,1.487.124.744Z" transform="translate(10.199 29.365)"/>
    <path id="XMLID_162_" class="cls-2" d="M283.044,271.731h0L282.8,269.5l-.5.124.372,2.107h.372Z" transform="translate(10.295 30.035)"/>
    <path id="XMLID_163_" class="cls-2" d="M283.444,274.507l-.124-.868L283.2,272.4h-.5l.124,1.239.248.991Z" transform="translate(10.391 30.729)"/>
    <path id="XMLID_164_" class="cls-2" d="M283.844,277.307l-.248-1.983V275.2h-.5v.124l.248,2.107Z" transform="translate(10.487 31.399)"/>
    <path id="XMLID_165_" class="cls-2" d="M283.675,144.249c0-.248-.62-.62-.867.62s.744.62.744.62a4.648,4.648,0,0,1,.124-1.239Z" transform="translate(10.407 0)"/>
    <path id="XMLID_166_" class="cls-2" d="M284.835,277.091l-1.487-.991-.248.62.372,2.85Z" transform="translate(10.487 31.614)"/>
  </g>
</svg>
