<svg xmlns="http://www.w3.org/2000/svg" viewBox="1378 8549 89.403 89.403">
  <defs>
    <style>
      .cls-1 {
        fill: #5a7814;
      }
    </style>
  </defs>
  <g id="Group_17" data-name="Group 17" transform="translate(2919 405)">
    <path id="Union_10" data-name="Union 10" d="M22.386,59a6,6,0,0,1-2.108-5.008,8.365,8.365,0,0,1,1.1-3.463,30.415,30.415,0,0,1-7.689-6.141,3.931,3.931,0,0,0-1.767.677C10.34,46.4,10.554,46.3,9.447,48.505s-4.155.249-3.1-2.754A7.846,7.846,0,0,1,11,40.877a29.892,29.892,0,0,1-3.849-8.766c-.2-.091-.412-.191-.62-.292a4.408,4.408,0,0,0-2.043-.646c-1.449.158-1.282.181-2.8,1.034s-2.524-1.491-.727-2.83a5.532,5.532,0,0,1,4.92-.941,5.826,5.826,0,0,1,.587.205,44.7,44.7,0,0,1-.33-6.46A8.18,8.18,0,0,1,5.075,21.6C3.481,20.578.048,17.169,1.892,15.4c1.364-1.305,3,.783,4.577,2.116a26.4,26.4,0,0,1,1.448-6.072A5.5,5.5,0,0,1,5.849,8.782c-.46-1.248-.944-4.607.834-4.817S7.9,7.229,8.872,8.3c.166.183.3.33.42.453A6.6,6.6,0,0,1,16.381,5.7a3.032,3.032,0,0,0,.948-1.1c.6-1.514.495-1.361.449-3.306s2.8-1.71,3.177.768A6.188,6.188,0,0,1,19.3,7.417q-.048.05-.1.1c2.044,2.717,1.974,7.83,2.095,12.741a2.715,2.715,0,0,0,.866-.6c1.378-1.544,1.181-1.409,1.971-3.749s4.08-.825,3.457,2.3a7.855,7.855,0,0,1-4.3,5.668,10.394,10.394,0,0,1-1.776.645,13.1,13.1,0,0,0,1.629,5.829c.815,1.244,1.463,2.219,2.033,3.019a3.5,3.5,0,0,0,1.122-1.2c.831-1.8.687-1.622.755-3.989s3.509-1.9,3.812,1.135a7.531,7.531,0,0,1-2.351,6.4,8.249,8.249,0,0,1-.748.613,47.561,47.561,0,0,0,4.766,3.308,6.8,6.8,0,0,1,2.956-1.921c1.552-.511,5.7-.962,5.879,1.23s-4.059,1.349-5.421,2.5c-.123.1-.233.2-.333.284a5.3,5.3,0,0,1,1.548,6.781,6.661,6.661,0,0,1,1.416.937c1.179,1.017,3.58,4.18,1.88,5.4s-3.093-2.652-4.7-3.2A10.72,10.72,0,0,0,34.6,51.3c-2.571,1.721-6.451,2.346-10.711.514-.228,1.075-.647,2.278-.4,3.041.495,1.5.481,1.319,1.728,2.736.876,1,.02,2.08-1.2,2.08A2.489,2.489,0,0,1,22.386,59Z" transform="matrix(0.951, -0.309, 0.309, 0.951, -1524.374, 8166.791)"/>
    <path id="Subtraction_2" data-name="Subtraction 2" class="cls-1" d="M44.7,89.4a45.031,45.031,0,0,1-9.009-.908,44.457,44.457,0,0,1-15.984-6.726A44.832,44.832,0,0,1,3.513,62.1a44.477,44.477,0,0,1-2.6-8.391,45.137,45.137,0,0,1,0-18.018A44.457,44.457,0,0,1,7.634,19.709,44.832,44.832,0,0,1,27.3,3.513a44.477,44.477,0,0,1,8.391-2.6,45.137,45.137,0,0,1,18.018,0A44.457,44.457,0,0,1,69.695,7.634,44.832,44.832,0,0,1,85.89,27.3a44.477,44.477,0,0,1,2.6,8.391,45.137,45.137,0,0,1,0,18.018,44.457,44.457,0,0,1-6.726,15.984A44.832,44.832,0,0,1,62.1,85.89a44.477,44.477,0,0,1-8.391,2.6A45.031,45.031,0,0,1,44.7,89.4Zm.078-79.625a35,35,0,1,0,35,35A35.04,35.04,0,0,0,44.779,9.778Z" transform="translate(-1541 8144)"/>
    <rect id="Rectangle_490" data-name="Rectangle 490" class="cls-1" width="10.089" height="76.365" transform="translate(-1473.915 8158.946) rotate(43)"/>
  </g>
</svg>
